<?xml version="1.0" encoding="UTF-8"?><svg xmlns="http://www.w3.org/2000/svg" xmlns:xlink="http://www.w3.org/1999/xlink" contentScriptType="text/ecmascript" width="1160.0" zoomAndPan="magnify" contentStyleType="text/css" height="1053.0" preserveAspectRatio="xMidYMid meet" version="1.0">
<line y2="482.1261291503906" style="stroke:rgb(0,0,0);stroke-width:1" x1="17.42723846435547" x2="16.169265747070312" y1="519.9006958007812"/>
<line y2="499.205322265625" style="stroke:rgb(0,0,0);stroke-width:1" x1="16.169265747070312" x2="46.9671630859375" y1="482.1261291503906"/>
<line y2="519.9006958007812" style="stroke:rgb(0,0,0);stroke-width:1" x1="46.9671630859375" x2="17.42723846435547" y1="499.205322265625"/>
<line y2="521.8502197265625" style="stroke:rgb(0,0,0);stroke-width:1" x1="46.9671630859375" x2="64.01283264160156" y1="499.205322265625"/>
<line y2="519.9006958007812" style="stroke:rgb(0,0,0);stroke-width:1" x1="64.01283264160156" x2="17.42723846435547" y1="521.8502197265625"/>
<line y2="486.7607116699219" style="stroke:rgb(0,0,0);stroke-width:1" x1="46.9671630859375" x2="74.749267578125" y1="499.205322265625"/>
<line y2="521.8502197265625" style="stroke:rgb(0,0,0);stroke-width:1" x1="74.749267578125" x2="64.01283264160156" y1="486.7607116699219"/>
<line y2="518.4498291015625" style="stroke:rgb(0,0,0);stroke-width:1" x1="74.749267578125" x2="94.93495178222656" y1="486.7607116699219"/>
<line y2="521.8502197265625" style="stroke:rgb(0,0,0);stroke-width:1" x1="94.93495178222656" x2="64.01283264160156" y1="518.4498291015625"/>
<line y2="521.3192749023438" style="stroke:rgb(0,0,0);stroke-width:1" x1="94.93495178222656" x2="123.75030517578125" y1="518.4498291015625"/>
<line y2="521.8502197265625" style="stroke:rgb(0,0,0);stroke-width:1" x1="123.75030517578125" x2="64.01283264160156" y1="521.3192749023438"/>
<line y2="523.5232543945312" style="stroke:rgb(0,0,0);stroke-width:1" x1="123.75030517578125" x2="150.75506591796875" y1="521.3192749023438"/>
<line y2="521.8502197265625" style="stroke:rgb(0,0,0);stroke-width:1" x1="150.75506591796875" x2="64.01283264160156" y1="523.5232543945312"/>
<line y2="497.2164001464844" style="stroke:rgb(0,0,0);stroke-width:1" x1="123.75030517578125" x2="147.7264862060547" y1="521.3192749023438"/>
<line y2="523.5232543945312" style="stroke:rgb(0,0,0);stroke-width:1" x1="147.7264862060547" x2="150.75506591796875" y1="497.2164001464844"/>
<line y2="522.206787109375" style="stroke:rgb(0,0,0);stroke-width:1" x1="147.7264862060547" x2="175.68508911132812" y1="497.2164001464844"/>
<line y2="523.5232543945312" style="stroke:rgb(0,0,0);stroke-width:1" x1="175.68508911132812" x2="150.75506591796875" y1="522.206787109375"/>
<line y2="522.3764038085938" style="stroke:rgb(0,0,0);stroke-width:1" x1="175.68508911132812" x2="201.1326141357422" y1="522.206787109375"/>
<line y2="523.5232543945312" style="stroke:rgb(0,0,0);stroke-width:1" x1="201.1326141357422" x2="150.75506591796875" y1="522.3764038085938"/>
<line y2="526.339599609375" style="stroke:rgb(0,0,0);stroke-width:1" x1="201.1326141357422" x2="252.90382385253906" y1="522.3764038085938"/>
<line y2="523.5232543945312" style="stroke:rgb(0,0,0);stroke-width:1" x1="252.90382385253906" x2="150.75506591796875" y1="526.339599609375"/>
<line y2="520.5877075195312" style="stroke:rgb(0,0,0);stroke-width:1" x1="201.1326141357422" x2="226.9122772216797" y1="522.3764038085938"/>
<line y2="526.339599609375" style="stroke:rgb(0,0,0);stroke-width:1" x1="226.9122772216797" x2="252.90382385253906" y1="520.5877075195312"/>
<line y2="468.5342102050781" style="stroke:rgb(0,0,0);stroke-width:1" x1="226.9122772216797" x2="253.1031036376953" y1="520.5877075195312"/>
<line y2="526.339599609375" style="stroke:rgb(0,0,0);stroke-width:1" x1="253.1031036376953" x2="252.90382385253906" y1="468.5342102050781"/>
<line y2="525.7896728515625" style="stroke:rgb(0,0,0);stroke-width:1" x1="253.1031036376953" x2="285.2561340332031" y1="468.5342102050781"/>
<line y2="526.339599609375" style="stroke:rgb(0,0,0);stroke-width:1" x1="285.2561340332031" x2="252.90382385253906" y1="525.7896728515625"/>
<line y2="454.50665283203125" style="stroke:rgb(0,0,0);stroke-width:1" x1="253.1031036376953" x2="292.359375" y1="468.5342102050781"/>
<line y2="525.7896728515625" style="stroke:rgb(0,0,0);stroke-width:1" x1="292.359375" x2="285.2561340332031" y1="454.50665283203125"/>
<line y2="521.4586181640625" style="stroke:rgb(0,0,0);stroke-width:1" x1="292.359375" x2="310.668701171875" y1="454.50665283203125"/>
<line y2="525.7896728515625" style="stroke:rgb(0,0,0);stroke-width:1" x1="310.668701171875" x2="285.2561340332031" y1="521.4586181640625"/>
<line y2="520.3138427734375" style="stroke:rgb(0,0,0);stroke-width:1" x1="310.668701171875" x2="362.1051025390625" y1="521.4586181640625"/>
<line y2="525.7896728515625" style="stroke:rgb(0,0,0);stroke-width:1" x1="362.1051025390625" x2="285.2561340332031" y1="520.3138427734375"/>
<line y2="520.7401123046875" style="stroke:rgb(0,0,0);stroke-width:1" x1="362.1051025390625" x2="417.9166564941406" y1="520.3138427734375"/>
<line y2="525.7896728515625" style="stroke:rgb(0,0,0);stroke-width:1" x1="417.9166564941406" x2="285.2561340332031" y1="520.7401123046875"/>
<line y2="519.9389038085938" style="stroke:rgb(0,0,0);stroke-width:1" x1="362.1051025390625" x2="389.3633117675781" y1="520.3138427734375"/>
<line y2="520.7401123046875" style="stroke:rgb(0,0,0);stroke-width:1" x1="389.3633117675781" x2="417.9166564941406" y1="519.9389038085938"/>
<line y2="488.2557678222656" style="stroke:rgb(0,0,0);stroke-width:1" x1="389.3633117675781" x2="387.2974548339844" y1="519.9389038085938"/>
<line y2="520.7401123046875" style="stroke:rgb(0,0,0);stroke-width:1" x1="387.2974548339844" x2="417.9166564941406" y1="488.2557678222656"/>
<line y2="491.0509948730469" style="stroke:rgb(0,0,0);stroke-width:1" x1="387.2974548339844" x2="424.73992919921875" y1="488.2557678222656"/>
<line y2="520.7401123046875" style="stroke:rgb(0,0,0);stroke-width:1" x1="424.73992919921875" x2="417.9166564941406" y1="491.0509948730469"/>
<line y2="518.2571411132812" style="stroke:rgb(0,0,0);stroke-width:1" x1="424.73992919921875" x2="451.6490783691406" y1="491.0509948730469"/>
<line y2="520.7401123046875" style="stroke:rgb(0,0,0);stroke-width:1" x1="451.6490783691406" x2="417.9166564941406" y1="518.2571411132812"/>
<line y2="516.460693359375" style="stroke:rgb(0,0,0);stroke-width:1" x1="451.6490783691406" x2="526.5958862304688" y1="518.2571411132812"/>
<line y2="520.7401123046875" style="stroke:rgb(0,0,0);stroke-width:1" x1="526.5958862304688" x2="417.9166564941406" y1="516.460693359375"/>
<line y2="516.1746215820312" style="stroke:rgb(0,0,0);stroke-width:1" x1="526.5958862304688" x2="570.5143432617188" y1="516.460693359375"/>
<line y2="520.7401123046875" style="stroke:rgb(0,0,0);stroke-width:1" x1="570.5143432617188" x2="417.9166564941406" y1="516.1746215820312"/>
<line y2="480.83026123046875" style="stroke:rgb(0,0,0);stroke-width:1" x1="526.5958862304688" x2="538.0980834960938" y1="516.460693359375"/>
<line y2="516.1746215820312" style="stroke:rgb(0,0,0);stroke-width:1" x1="538.0980834960938" x2="570.5143432617188" y1="480.83026123046875"/>
<line y2="476.2458190917969" style="stroke:rgb(0,0,0);stroke-width:1" x1="538.0980834960938" x2="573.5933227539062" y1="480.83026123046875"/>
<line y2="516.1746215820312" style="stroke:rgb(0,0,0);stroke-width:1" x1="573.5933227539062" x2="570.5143432617188" y1="476.2458190917969"/>
<line y2="12.364178657531738" style="stroke:rgb(0,0,0);stroke-width:1" x1="336.0398254394531" x2="495.0501708984375" y1="11.162213325500488"/>
<line y2="13.717840194702148" style="stroke:rgb(0,0,0);stroke-width:1" x1="495.0501708984375" x2="399.4521484375" y1="12.364178657531738"/>
<line y2="11.162213325500488" style="stroke:rgb(0,0,0);stroke-width:1" x1="399.4521484375" x2="336.0398254394531" y1="13.717840194702148"/>
<line y2="21.244239807128906" style="stroke:rgb(0,0,0);stroke-width:1" x1="399.4521484375" x2="366.0460510253906" y1="13.717840194702148"/>
<line y2="11.162213325500488" style="stroke:rgb(0,0,0);stroke-width:1" x1="366.0460510253906" x2="336.0398254394531" y1="21.244239807128906"/>
<line y2="80.76799011230469" style="stroke:rgb(0,0,0);stroke-width:1" x1="366.0460510253906" x2="329.6020202636719" y1="21.244239807128906"/>
<line y2="11.162213325500488" style="stroke:rgb(0,0,0);stroke-width:1" x1="329.6020202636719" x2="336.0398254394531" y1="80.76799011230469"/>
<line y2="16.59467315673828" style="stroke:rgb(0,0,0);stroke-width:1" x1="329.6020202636719" x2="294.6726379394531" y1="80.76799011230469"/>
<line y2="11.162213325500488" style="stroke:rgb(0,0,0);stroke-width:1" x1="294.6726379394531" x2="336.0398254394531" y1="16.59467315673828"/>
<line y2="18.105960845947266" style="stroke:rgb(0,0,0);stroke-width:1" x1="294.6726379394531" x2="252.0498046875" y1="16.59467315673828"/>
<line y2="11.162213325500488" style="stroke:rgb(0,0,0);stroke-width:1" x1="252.0498046875" x2="336.0398254394531" y1="18.105960845947266"/>
<line y2="16.77435874938965" style="stroke:rgb(0,0,0);stroke-width:1" x1="252.0498046875" x2="213.57528686523438" y1="18.105960845947266"/>
<line y2="11.162213325500488" style="stroke:rgb(0,0,0);stroke-width:1" x1="213.57528686523438" x2="336.0398254394531" y1="16.77435874938965"/>
<line y2="14.969782829284668" style="stroke:rgb(0,0,0);stroke-width:1" x1="213.57528686523438" x2="106.75566864013672" y1="16.77435874938965"/>
<line y2="11.162213325500488" style="stroke:rgb(0,0,0);stroke-width:1" x1="106.75566864013672" x2="336.0398254394531" y1="14.969782829284668"/>
<line y2="13.855281829833984" style="stroke:rgb(0,0,0);stroke-width:1" x1="106.75566864013672" x2="62.8079833984375" y1="14.969782829284668"/>
<line y2="11.162213325500488" style="stroke:rgb(0,0,0);stroke-width:1" x1="62.8079833984375" x2="336.0398254394531" y1="13.855281829833984"/>
<line y2="37.291900634765625" style="stroke:rgb(0,0,0);stroke-width:1" x1="106.75566864013672" x2="88.15179443359375" y1="14.969782829284668"/>
<line y2="13.855281829833984" style="stroke:rgb(0,0,0);stroke-width:1" x1="88.15179443359375" x2="62.8079833984375" y1="37.291900634765625"/>
<line y2="45.03474426269531" style="stroke:rgb(0,0,0);stroke-width:1" x1="88.15179443359375" x2="50.78826904296875" y1="37.291900634765625"/>
<line y2="13.855281829833984" style="stroke:rgb(0,0,0);stroke-width:1" x1="50.78826904296875" x2="62.8079833984375" y1="45.03474426269531"/>
<line y2="17.457853317260742" style="stroke:rgb(0,0,0);stroke-width:1" x1="50.78826904296875" x2="12.891619682312012" y1="45.03474426269531"/>
<line y2="13.855281829833984" style="stroke:rgb(0,0,0);stroke-width:1" x1="12.891619682312012" x2="62.8079833984375" y1="17.457853317260742"/>
<line y2="48.20737838745117" style="stroke:rgb(0,0,0);stroke-width:1" x1="50.78826904296875" x2="16.039522171020508" y1="45.03474426269531"/>
<line y2="17.457853317260742" style="stroke:rgb(0,0,0);stroke-width:1" x1="16.039522171020508" x2="12.891619682312012" y1="48.20737838745117"/>
<line y2="142.10641479492188" style="stroke:rgb(0,0,0);stroke-width:1" x1="16.039522171020508" x2="14.077230453491211" y1="48.20737838745117"/>
<line y2="17.457853317260742" style="stroke:rgb(0,0,0);stroke-width:1" x1="14.077230453491211" x2="12.891619682312012" y1="142.10641479492188"/>
<line y2="174.67588806152344" style="stroke:rgb(0,0,0);stroke-width:1" x1="14.077230453491211" x2="12.863478660583496" y1="142.10641479492188"/>
<line y2="17.457853317260742" style="stroke:rgb(0,0,0);stroke-width:1" x1="12.863478660583496" x2="12.891619682312012" y1="174.67588806152344"/>
<line y2="237.6876678466797" style="stroke:rgb(0,0,0);stroke-width:1" x1="12.863478660583496" x2="10.342185974121094" y1="174.67588806152344"/>
<line y2="17.457853317260742" style="stroke:rgb(0,0,0);stroke-width:1" x1="10.342185974121094" x2="12.891619682312012" y1="237.6876678466797"/>
<line y2="207.08985900878906" style="stroke:rgb(0,0,0);stroke-width:1" x1="12.863478660583496" x2="14.050434112548828" y1="174.67588806152344"/>
<line y2="237.6876678466797" style="stroke:rgb(0,0,0);stroke-width:1" x1="14.050434112548828" x2="10.342185974121094" y1="207.08985900878906"/>
<line y2="240.60313415527344" style="stroke:rgb(0,0,0);stroke-width:1" x1="14.050434112548828" x2="53.6022834777832" y1="207.08985900878906"/>
<line y2="237.6876678466797" style="stroke:rgb(0,0,0);stroke-width:1" x1="53.6022834777832" x2="10.342185974121094" y1="240.60313415527344"/>
<line y2="270.25579833984375" style="stroke:rgb(0,0,0);stroke-width:1" x1="53.6022834777832" x2="11.774776458740234" y1="240.60313415527344"/>
<line y2="237.6876678466797" style="stroke:rgb(0,0,0);stroke-width:1" x1="11.774776458740234" x2="10.342185974121094" y1="270.25579833984375"/>
<line y2="413.0959167480469" style="stroke:rgb(0,0,0);stroke-width:1" x1="11.774776458740234" x2="15.249407768249512" y1="270.25579833984375"/>
<line y2="237.6876678466797" style="stroke:rgb(0,0,0);stroke-width:1" x1="15.249407768249512" x2="10.342185974121094" y1="413.0959167480469"/>
<line y2="482.1261291503906" style="stroke:rgb(0,0,0);stroke-width:1" x1="15.249407768249512" x2="16.169265747070312" y1="413.0959167480469"/>
<line y2="237.6876678466797" style="stroke:rgb(0,0,0);stroke-width:1" x1="16.169265747070312" x2="10.342185974121094" y1="482.1261291503906"/>
<line y2="447.8703918457031" style="stroke:rgb(0,0,0);stroke-width:1" x1="15.249407768249512" x2="15.808511734008789" y1="413.0959167480469"/>
<line y2="482.1261291503906" style="stroke:rgb(0,0,0);stroke-width:1" x1="15.808511734008789" x2="16.169265747070312" y1="447.8703918457031"/>
<line y2="462.4298095703125" style="stroke:rgb(0,0,0);stroke-width:1" x1="15.808511734008789" x2="55.08238983154297" y1="447.8703918457031"/>
<line y2="482.1261291503906" style="stroke:rgb(0,0,0);stroke-width:1" x1="55.08238983154297" x2="16.169265747070312" y1="462.4298095703125"/>
<line y2="499.205322265625" style="stroke:rgb(0,0,0);stroke-width:1" x1="55.08238983154297" x2="46.9671630859375" y1="462.4298095703125"/>
<line y2="486.7607116699219" style="stroke:rgb(0,0,0);stroke-width:1" x1="55.08238983154297" x2="74.749267578125" y1="462.4298095703125"/>
<line y2="459.5590515136719" style="stroke:rgb(0,0,0);stroke-width:1" x1="55.08238983154297" x2="103.2917251586914" y1="462.4298095703125"/>
<line y2="486.7607116699219" style="stroke:rgb(0,0,0);stroke-width:1" x1="103.2917251586914" x2="74.749267578125" y1="459.5590515136719"/>
<line y2="489.9290771484375" style="stroke:rgb(0,0,0);stroke-width:1" x1="103.2917251586914" x2="114.02307891845703" y1="459.5590515136719"/>
<line y2="486.7607116699219" style="stroke:rgb(0,0,0);stroke-width:1" x1="114.02307891845703" x2="74.749267578125" y1="489.9290771484375"/>
<line y2="518.4498291015625" style="stroke:rgb(0,0,0);stroke-width:1" x1="114.02307891845703" x2="94.93495178222656" y1="489.9290771484375"/>
<line y2="521.3192749023438" style="stroke:rgb(0,0,0);stroke-width:1" x1="114.02307891845703" x2="123.75030517578125" y1="489.9290771484375"/>
<line y2="497.2164001464844" style="stroke:rgb(0,0,0);stroke-width:1" x1="114.02307891845703" x2="147.7264862060547" y1="489.9290771484375"/>
<line y2="467.6800537109375" style="stroke:rgb(0,0,0);stroke-width:1" x1="114.02307891845703" x2="146.25254821777344" y1="489.9290771484375"/>
<line y2="497.2164001464844" style="stroke:rgb(0,0,0);stroke-width:1" x1="146.25254821777344" x2="147.7264862060547" y1="467.6800537109375"/>
<line y2="495.0193176269531" style="stroke:rgb(0,0,0);stroke-width:1" x1="146.25254821777344" x2="178.37010192871094" y1="467.6800537109375"/>
<line y2="497.2164001464844" style="stroke:rgb(0,0,0);stroke-width:1" x1="178.37010192871094" x2="147.7264862060547" y1="495.0193176269531"/>
<line y2="522.206787109375" style="stroke:rgb(0,0,0);stroke-width:1" x1="178.37010192871094" x2="175.68508911132812" y1="495.0193176269531"/>
<line y2="522.3764038085938" style="stroke:rgb(0,0,0);stroke-width:1" x1="178.37010192871094" x2="201.1326141357422" y1="495.0193176269531"/>
<line y2="495.1822509765625" style="stroke:rgb(0,0,0);stroke-width:1" x1="178.37010192871094" x2="207.51548767089844" y1="495.0193176269531"/>
<line y2="522.3764038085938" style="stroke:rgb(0,0,0);stroke-width:1" x1="207.51548767089844" x2="201.1326141357422" y1="495.1822509765625"/>
<line y2="520.5877075195312" style="stroke:rgb(0,0,0);stroke-width:1" x1="207.51548767089844" x2="226.9122772216797" y1="495.1822509765625"/>
<line y2="468.5342102050781" style="stroke:rgb(0,0,0);stroke-width:1" x1="207.51548767089844" x2="253.1031036376953" y1="495.1822509765625"/>
<line y2="436.01800537109375" style="stroke:rgb(0,0,0);stroke-width:1" x1="207.51548767089844" x2="227.62071228027344" y1="495.1822509765625"/>
<line y2="468.5342102050781" style="stroke:rgb(0,0,0);stroke-width:1" x1="227.62071228027344" x2="253.1031036376953" y1="436.01800537109375"/>
<line y2="414.6399841308594" style="stroke:rgb(0,0,0);stroke-width:1" x1="227.62071228027344" x2="270.984130859375" y1="436.01800537109375"/>
<line y2="468.5342102050781" style="stroke:rgb(0,0,0);stroke-width:1" x1="270.984130859375" x2="253.1031036376953" y1="414.6399841308594"/>
<line y2="454.50665283203125" style="stroke:rgb(0,0,0);stroke-width:1" x1="270.984130859375" x2="292.359375" y1="414.6399841308594"/>
<line y2="416.9561767578125" style="stroke:rgb(0,0,0);stroke-width:1" x1="270.984130859375" x2="322.2901306152344" y1="414.6399841308594"/>
<line y2="454.50665283203125" style="stroke:rgb(0,0,0);stroke-width:1" x1="322.2901306152344" x2="292.359375" y1="416.9561767578125"/>
<line y2="466.2550048828125" style="stroke:rgb(0,0,0);stroke-width:1" x1="322.2901306152344" x2="358.558837890625" y1="416.9561767578125"/>
<line y2="454.50665283203125" style="stroke:rgb(0,0,0);stroke-width:1" x1="358.558837890625" x2="292.359375" y1="466.2550048828125"/>
<line y2="492.3754577636719" style="stroke:rgb(0,0,0);stroke-width:1" x1="358.558837890625" x2="348.93463134765625" y1="466.2550048828125"/>
<line y2="454.50665283203125" style="stroke:rgb(0,0,0);stroke-width:1" x1="348.93463134765625" x2="292.359375" y1="492.3754577636719"/>
<line y2="521.4586181640625" style="stroke:rgb(0,0,0);stroke-width:1" x1="348.93463134765625" x2="310.668701171875" y1="492.3754577636719"/>
<line y2="517.4522094726562" style="stroke:rgb(0,0,0);stroke-width:1" x1="348.93463134765625" x2="333.3390197753906" y1="492.3754577636719"/>
<line y2="521.4586181640625" style="stroke:rgb(0,0,0);stroke-width:1" x1="333.3390197753906" x2="310.668701171875" y1="517.4522094726562"/>
<line y2="520.3138427734375" style="stroke:rgb(0,0,0);stroke-width:1" x1="333.3390197753906" x2="362.1051025390625" y1="517.4522094726562"/>
<line y2="520.3138427734375" style="stroke:rgb(0,0,0);stroke-width:1" x1="348.93463134765625" x2="362.1051025390625" y1="492.3754577636719"/>
<line y2="488.2557678222656" style="stroke:rgb(0,0,0);stroke-width:1" x1="348.93463134765625" x2="387.2974548339844" y1="492.3754577636719"/>
<line y2="520.3138427734375" style="stroke:rgb(0,0,0);stroke-width:1" x1="387.2974548339844" x2="362.1051025390625" y1="488.2557678222656"/>
<line y2="488.2557678222656" style="stroke:rgb(0,0,0);stroke-width:1" x1="358.558837890625" x2="387.2974548339844" y1="466.2550048828125"/>
<line y2="415.75811767578125" style="stroke:rgb(0,0,0);stroke-width:1" x1="358.558837890625" x2="376.8153076171875" y1="466.2550048828125"/>
<line y2="488.2557678222656" style="stroke:rgb(0,0,0);stroke-width:1" x1="376.8153076171875" x2="387.2974548339844" y1="415.75811767578125"/>
<line y2="415.61492919921875" style="stroke:rgb(0,0,0);stroke-width:1" x1="376.8153076171875" x2="429.8992919921875" y1="415.75811767578125"/>
<line y2="488.2557678222656" style="stroke:rgb(0,0,0);stroke-width:1" x1="429.8992919921875" x2="387.2974548339844" y1="415.61492919921875"/>
<line y2="491.0509948730469" style="stroke:rgb(0,0,0);stroke-width:1" x1="429.8992919921875" x2="424.73992919921875" y1="415.61492919921875"/>
<line y2="482.6269836425781" style="stroke:rgb(0,0,0);stroke-width:1" x1="429.8992919921875" x2="462.346923828125" y1="415.61492919921875"/>
<line y2="491.0509948730469" style="stroke:rgb(0,0,0);stroke-width:1" x1="462.346923828125" x2="424.73992919921875" y1="482.6269836425781"/>
<line y2="518.2571411132812" style="stroke:rgb(0,0,0);stroke-width:1" x1="462.346923828125" x2="451.6490783691406" y1="482.6269836425781"/>
<line y2="514.738525390625" style="stroke:rgb(0,0,0);stroke-width:1" x1="462.346923828125" x2="488.0196838378906" y1="482.6269836425781"/>
<line y2="518.2571411132812" style="stroke:rgb(0,0,0);stroke-width:1" x1="488.0196838378906" x2="451.6490783691406" y1="514.738525390625"/>
<line y2="516.460693359375" style="stroke:rgb(0,0,0);stroke-width:1" x1="488.0196838378906" x2="526.5958862304688" y1="514.738525390625"/>
<line y2="473.0686950683594" style="stroke:rgb(0,0,0);stroke-width:1" x1="488.0196838378906" x2="497.41607666015625" y1="514.738525390625"/>
<line y2="516.460693359375" style="stroke:rgb(0,0,0);stroke-width:1" x1="497.41607666015625" x2="526.5958862304688" y1="473.0686950683594"/>
<line y2="480.83026123046875" style="stroke:rgb(0,0,0);stroke-width:1" x1="497.41607666015625" x2="538.0980834960938" y1="473.0686950683594"/>
<line y2="446.95599365234375" style="stroke:rgb(0,0,0);stroke-width:1" x1="497.41607666015625" x2="524.9850463867188" y1="473.0686950683594"/>
<line y2="480.83026123046875" style="stroke:rgb(0,0,0);stroke-width:1" x1="524.9850463867188" x2="538.0980834960938" y1="446.95599365234375"/>
<line y2="436.7395935058594" style="stroke:rgb(0,0,0);stroke-width:1" x1="524.9850463867188" x2="572.3369140625" y1="446.95599365234375"/>
<line y2="480.83026123046875" style="stroke:rgb(0,0,0);stroke-width:1" x1="572.3369140625" x2="538.0980834960938" y1="436.7395935058594"/>
<line y2="476.2458190917969" style="stroke:rgb(0,0,0);stroke-width:1" x1="572.3369140625" x2="573.5933227539062" y1="436.7395935058594"/>
<line y2="382.43072509765625" style="stroke:rgb(0,0,0);stroke-width:1" x1="572.3369140625" x2="574.0543212890625" y1="436.7395935058594"/>
<line y2="476.2458190917969" style="stroke:rgb(0,0,0);stroke-width:1" x1="574.0543212890625" x2="573.5933227539062" y1="382.43072509765625"/>
<line y2="300.4239807128906" style="stroke:rgb(0,0,0);stroke-width:1" x1="574.0543212890625" x2="577.9014282226562" y1="382.43072509765625"/>
<line y2="476.2458190917969" style="stroke:rgb(0,0,0);stroke-width:1" x1="577.9014282226562" x2="573.5933227539062" y1="300.4239807128906"/>
<line y2="258.55169677734375" style="stroke:rgb(0,0,0);stroke-width:1" x1="577.9014282226562" x2="579.5117797851562" y1="300.4239807128906"/>
<line y2="476.2458190917969" style="stroke:rgb(0,0,0);stroke-width:1" x1="579.5117797851562" x2="573.5933227539062" y1="258.55169677734375"/>
<line y2="304.81915283203125" style="stroke:rgb(0,0,0);stroke-width:1" x1="577.9014282226562" x2="529.7855834960938" y1="300.4239807128906"/>
<line y2="258.55169677734375" style="stroke:rgb(0,0,0);stroke-width:1" x1="529.7855834960938" x2="579.5117797851562" y1="304.81915283203125"/>
<line y2="252.64743041992188" style="stroke:rgb(0,0,0);stroke-width:1" x1="529.7855834960938" x2="513.1963500976562" y1="304.81915283203125"/>
<line y2="258.55169677734375" style="stroke:rgb(0,0,0);stroke-width:1" x1="513.1963500976562" x2="579.5117797851562" y1="252.64743041992188"/>
<line y2="223.7306671142578" style="stroke:rgb(0,0,0);stroke-width:1" x1="513.1963500976562" x2="573.2241821289062" y1="252.64743041992188"/>
<line y2="258.55169677734375" style="stroke:rgb(0,0,0);stroke-width:1" x1="573.2241821289062" x2="579.5117797851562" y1="223.7306671142578"/>
<line y2="190.70278930664062" style="stroke:rgb(0,0,0);stroke-width:1" x1="573.2241821289062" x2="576.3881225585938" y1="223.7306671142578"/>
<line y2="258.55169677734375" style="stroke:rgb(0,0,0);stroke-width:1" x1="576.3881225585938" x2="579.5117797851562" y1="190.70278930664062"/>
<line y2="67.22005462646484" style="stroke:rgb(0,0,0);stroke-width:1" x1="576.3881225585938" x2="576.9008178710938" y1="190.70278930664062"/>
<line y2="258.55169677734375" style="stroke:rgb(0,0,0);stroke-width:1" x1="576.9008178710938" x2="579.5117797851562" y1="67.22005462646484"/>
<line y2="26.44769859313965" style="stroke:rgb(0,0,0);stroke-width:1" x1="576.9008178710938" x2="577.01806640625" y1="67.22005462646484"/>
<line y2="258.55169677734375" style="stroke:rgb(0,0,0);stroke-width:1" x1="577.01806640625" x2="579.5117797851562" y1="26.44769859313965"/>
<line y2="59.480865478515625" style="stroke:rgb(0,0,0);stroke-width:1" x1="576.9008178710938" x2="546.35302734375" y1="67.22005462646484"/>
<line y2="26.44769859313965" style="stroke:rgb(0,0,0);stroke-width:1" x1="546.35302734375" x2="577.01806640625" y1="59.480865478515625"/>
<line y2="16.140201568603516" style="stroke:rgb(0,0,0);stroke-width:1" x1="546.35302734375" x2="550.1322631835938" y1="59.480865478515625"/>
<line y2="26.44769859313965" style="stroke:rgb(0,0,0);stroke-width:1" x1="550.1322631835938" x2="577.01806640625" y1="16.140201568603516"/>
<line y2="23.98196792602539" style="stroke:rgb(0,0,0);stroke-width:1" x1="546.35302734375" x2="522.032958984375" y1="59.480865478515625"/>
<line y2="16.140201568603516" style="stroke:rgb(0,0,0);stroke-width:1" x1="522.032958984375" x2="550.1322631835938" y1="23.98196792602539"/>
<line y2="12.364178657531738" style="stroke:rgb(0,0,0);stroke-width:1" x1="522.032958984375" x2="495.0501708984375" y1="23.98196792602539"/>
<line y2="16.140201568603516" style="stroke:rgb(0,0,0);stroke-width:1" x1="495.0501708984375" x2="550.1322631835938" y1="12.364178657531738"/>
<line y2="42.89128494262695" style="stroke:rgb(0,0,0);stroke-width:1" x1="522.032958984375" x2="489.5734558105469" y1="23.98196792602539"/>
<line y2="12.364178657531738" style="stroke:rgb(0,0,0);stroke-width:1" x1="489.5734558105469" x2="495.0501708984375" y1="42.89128494262695"/>
<line y2="14.888054847717285" style="stroke:rgb(0,0,0);stroke-width:1" x1="489.5734558105469" x2="464.41015625" y1="42.89128494262695"/>
<line y2="12.364178657531738" style="stroke:rgb(0,0,0);stroke-width:1" x1="464.41015625" x2="495.0501708984375" y1="14.888054847717285"/>
<line y2="14.580080032348633" style="stroke:rgb(0,0,0);stroke-width:1" x1="464.41015625" x2="433.403076171875" y1="14.888054847717285"/>
<line y2="12.364178657531738" style="stroke:rgb(0,0,0);stroke-width:1" x1="433.403076171875" x2="495.0501708984375" y1="14.580080032348633"/>
<line y2="13.717840194702148" style="stroke:rgb(0,0,0);stroke-width:1" x1="433.403076171875" x2="399.4521484375" y1="14.580080032348633"/>
<line y2="43.18724822998047" style="stroke:rgb(0,0,0);stroke-width:1" x1="433.403076171875" x2="422.02142333984375" y1="14.580080032348633"/>
<line y2="13.717840194702148" style="stroke:rgb(0,0,0);stroke-width:1" x1="422.02142333984375" x2="399.4521484375" y1="43.18724822998047"/>
<line y2="43.860530853271484" style="stroke:rgb(0,0,0);stroke-width:1" x1="422.02142333984375" x2="387.3932800292969" y1="43.18724822998047"/>
<line y2="13.717840194702148" style="stroke:rgb(0,0,0);stroke-width:1" x1="387.3932800292969" x2="399.4521484375" y1="43.860530853271484"/>
<line y2="21.244239807128906" style="stroke:rgb(0,0,0);stroke-width:1" x1="387.3932800292969" x2="366.0460510253906" y1="43.860530853271484"/>
<line y2="72.89376831054688" style="stroke:rgb(0,0,0);stroke-width:1" x1="387.3932800292969" x2="382.7529602050781" y1="43.860530853271484"/>
<line y2="21.244239807128906" style="stroke:rgb(0,0,0);stroke-width:1" x1="382.7529602050781" x2="366.0460510253906" y1="72.89376831054688"/>
<line y2="80.76799011230469" style="stroke:rgb(0,0,0);stroke-width:1" x1="382.7529602050781" x2="329.6020202636719" y1="72.89376831054688"/>
<line y2="122.38801574707031" style="stroke:rgb(0,0,0);stroke-width:1" x1="382.7529602050781" x2="370.28076171875" y1="72.89376831054688"/>
<line y2="80.76799011230469" style="stroke:rgb(0,0,0);stroke-width:1" x1="370.28076171875" x2="329.6020202636719" y1="122.38801574707031"/>
<line y2="122.68333435058594" style="stroke:rgb(0,0,0);stroke-width:1" x1="370.28076171875" x2="310.86029052734375" y1="122.38801574707031"/>
<line y2="80.76799011230469" style="stroke:rgb(0,0,0);stroke-width:1" x1="310.86029052734375" x2="329.6020202636719" y1="122.68333435058594"/>
<line y2="78.23844146728516" style="stroke:rgb(0,0,0);stroke-width:1" x1="310.86029052734375" x2="282.6738586425781" y1="122.68333435058594"/>
<line y2="80.76799011230469" style="stroke:rgb(0,0,0);stroke-width:1" x1="282.6738586425781" x2="329.6020202636719" y1="78.23844146728516"/>
<line y2="16.59467315673828" style="stroke:rgb(0,0,0);stroke-width:1" x1="282.6738586425781" x2="294.6726379394531" y1="78.23844146728516"/>
<line y2="18.105960845947266" style="stroke:rgb(0,0,0);stroke-width:1" x1="282.6738586425781" x2="252.0498046875" y1="78.23844146728516"/>
<line y2="51.53337097167969" style="stroke:rgb(0,0,0);stroke-width:1" x1="282.6738586425781" x2="221.7846221923828" y1="78.23844146728516"/>
<line y2="18.105960845947266" style="stroke:rgb(0,0,0);stroke-width:1" x1="221.7846221923828" x2="252.0498046875" y1="51.53337097167969"/>
<line y2="16.77435874938965" style="stroke:rgb(0,0,0);stroke-width:1" x1="221.7846221923828" x2="213.57528686523438" y1="51.53337097167969"/>
<line y2="22.760498046875" style="stroke:rgb(0,0,0);stroke-width:1" x1="221.7846221923828" x2="178.13331604003906" y1="51.53337097167969"/>
<line y2="16.77435874938965" style="stroke:rgb(0,0,0);stroke-width:1" x1="178.13331604003906" x2="213.57528686523438" y1="22.760498046875"/>
<line y2="14.969782829284668" style="stroke:rgb(0,0,0);stroke-width:1" x1="178.13331604003906" x2="106.75566864013672" y1="22.760498046875"/>
<line y2="22.61809730529785" style="stroke:rgb(0,0,0);stroke-width:1" x1="178.13331604003906" x2="140.82179260253906" y1="22.760498046875"/>
<line y2="14.969782829284668" style="stroke:rgb(0,0,0);stroke-width:1" x1="140.82179260253906" x2="106.75566864013672" y1="22.61809730529785"/>
<line y2="37.291900634765625" style="stroke:rgb(0,0,0);stroke-width:1" x1="140.82179260253906" x2="88.15179443359375" y1="22.61809730529785"/>
<line y2="74.59942626953125" style="stroke:rgb(0,0,0);stroke-width:1" x1="140.82179260253906" x2="136.1437225341797" y1="22.61809730529785"/>
<line y2="37.291900634765625" style="stroke:rgb(0,0,0);stroke-width:1" x1="136.1437225341797" x2="88.15179443359375" y1="74.59942626953125"/>
<line y2="94.70283508300781" style="stroke:rgb(0,0,0);stroke-width:1" x1="136.1437225341797" x2="92.81585693359375" y1="74.59942626953125"/>
<line y2="37.291900634765625" style="stroke:rgb(0,0,0);stroke-width:1" x1="92.81585693359375" x2="88.15179443359375" y1="94.70283508300781"/>
<line y2="79.64682006835938" style="stroke:rgb(0,0,0);stroke-width:1" x1="92.81585693359375" x2="54.221290588378906" y1="94.70283508300781"/>
<line y2="37.291900634765625" style="stroke:rgb(0,0,0);stroke-width:1" x1="54.221290588378906" x2="88.15179443359375" y1="79.64682006835938"/>
<line y2="45.03474426269531" style="stroke:rgb(0,0,0);stroke-width:1" x1="54.221290588378906" x2="50.78826904296875" y1="79.64682006835938"/>
<line y2="77.44236755371094" style="stroke:rgb(0,0,0);stroke-width:1" x1="54.221290588378906" x2="21.550437927246094" y1="79.64682006835938"/>
<line y2="45.03474426269531" style="stroke:rgb(0,0,0);stroke-width:1" x1="21.550437927246094" x2="50.78826904296875" y1="77.44236755371094"/>
<line y2="48.20737838745117" style="stroke:rgb(0,0,0);stroke-width:1" x1="21.550437927246094" x2="16.039522171020508" y1="77.44236755371094"/>
<line y2="114.22598266601562" style="stroke:rgb(0,0,0);stroke-width:1" x1="21.550437927246094" x2="19.0355167388916" y1="77.44236755371094"/>
<line y2="48.20737838745117" style="stroke:rgb(0,0,0);stroke-width:1" x1="19.0355167388916" x2="16.039522171020508" y1="114.22598266601562"/>
<line y2="142.10641479492188" style="stroke:rgb(0,0,0);stroke-width:1" x1="19.0355167388916" x2="14.077230453491211" y1="114.22598266601562"/>
<line y2="136.6170196533203" style="stroke:rgb(0,0,0);stroke-width:1" x1="19.0355167388916" x2="56.99583435058594" y1="114.22598266601562"/>
<line y2="142.10641479492188" style="stroke:rgb(0,0,0);stroke-width:1" x1="56.99583435058594" x2="14.077230453491211" y1="136.6170196533203"/>
<line y2="156.9452667236328" style="stroke:rgb(0,0,0);stroke-width:1" x1="56.99583435058594" x2="38.192344665527344" y1="136.6170196533203"/>
<line y2="142.10641479492188" style="stroke:rgb(0,0,0);stroke-width:1" x1="38.192344665527344" x2="14.077230453491211" y1="156.9452667236328"/>
<line y2="174.67588806152344" style="stroke:rgb(0,0,0);stroke-width:1" x1="38.192344665527344" x2="12.863478660583496" y1="156.9452667236328"/>
<line y2="188.73033142089844" style="stroke:rgb(0,0,0);stroke-width:1" x1="38.192344665527344" x2="38.55485916137695" y1="156.9452667236328"/>
<line y2="174.67588806152344" style="stroke:rgb(0,0,0);stroke-width:1" x1="38.55485916137695" x2="12.863478660583496" y1="188.73033142089844"/>
<line y2="207.08985900878906" style="stroke:rgb(0,0,0);stroke-width:1" x1="38.55485916137695" x2="14.050434112548828" y1="188.73033142089844"/>
<line y2="240.60313415527344" style="stroke:rgb(0,0,0);stroke-width:1" x1="38.55485916137695" x2="53.6022834777832" y1="188.73033142089844"/>
<line y2="172.37010192871094" style="stroke:rgb(0,0,0);stroke-width:1" x1="38.55485916137695" x2="63.34682846069336" y1="188.73033142089844"/>
<line y2="240.60313415527344" style="stroke:rgb(0,0,0);stroke-width:1" x1="63.34682846069336" x2="53.6022834777832" y1="172.37010192871094"/>
<line y2="236.71153259277344" style="stroke:rgb(0,0,0);stroke-width:1" x1="63.34682846069336" x2="91.82767486572266" y1="172.37010192871094"/>
<line y2="240.60313415527344" style="stroke:rgb(0,0,0);stroke-width:1" x1="91.82767486572266" x2="53.6022834777832" y1="236.71153259277344"/>
<line y2="283.78228759765625" style="stroke:rgb(0,0,0);stroke-width:1" x1="91.82767486572266" x2="76.2528305053711" y1="236.71153259277344"/>
<line y2="240.60313415527344" style="stroke:rgb(0,0,0);stroke-width:1" x1="76.2528305053711" x2="53.6022834777832" y1="283.78228759765625"/>
<line y2="270.25579833984375" style="stroke:rgb(0,0,0);stroke-width:1" x1="76.2528305053711" x2="11.774776458740234" y1="283.78228759765625"/>
<line y2="299.3998107910156" style="stroke:rgb(0,0,0);stroke-width:1" x1="76.2528305053711" x2="15.193367004394531" y1="283.78228759765625"/>
<line y2="270.25579833984375" style="stroke:rgb(0,0,0);stroke-width:1" x1="15.193367004394531" x2="11.774776458740234" y1="299.3998107910156"/>
<line y2="352.5273132324219" style="stroke:rgb(0,0,0);stroke-width:1" x1="15.193367004394531" x2="16.8865966796875" y1="299.3998107910156"/>
<line y2="270.25579833984375" style="stroke:rgb(0,0,0);stroke-width:1" x1="16.8865966796875" x2="11.774776458740234" y1="352.5273132324219"/>
<line y2="413.0959167480469" style="stroke:rgb(0,0,0);stroke-width:1" x1="16.8865966796875" x2="15.249407768249512" y1="352.5273132324219"/>
<line y2="383.4367370605469" style="stroke:rgb(0,0,0);stroke-width:1" x1="16.8865966796875" x2="18.504037857055664" y1="352.5273132324219"/>
<line y2="413.0959167480469" style="stroke:rgb(0,0,0);stroke-width:1" x1="18.504037857055664" x2="15.249407768249512" y1="383.4367370605469"/>
<line y2="401.1763916015625" style="stroke:rgb(0,0,0);stroke-width:1" x1="18.504037857055664" x2="55.91693878173828" y1="383.4367370605469"/>
<line y2="413.0959167480469" style="stroke:rgb(0,0,0);stroke-width:1" x1="55.91693878173828" x2="15.249407768249512" y1="401.1763916015625"/>
<line y2="428.4461669921875" style="stroke:rgb(0,0,0);stroke-width:1" x1="55.91693878173828" x2="43.62459182739258" y1="401.1763916015625"/>
<line y2="413.0959167480469" style="stroke:rgb(0,0,0);stroke-width:1" x1="43.62459182739258" x2="15.249407768249512" y1="428.4461669921875"/>
<line y2="447.8703918457031" style="stroke:rgb(0,0,0);stroke-width:1" x1="43.62459182739258" x2="15.808511734008789" y1="428.4461669921875"/>
<line y2="462.4298095703125" style="stroke:rgb(0,0,0);stroke-width:1" x1="43.62459182739258" x2="55.08238983154297" y1="428.4461669921875"/>
<line y2="435.2187194824219" style="stroke:rgb(0,0,0);stroke-width:1" x1="43.62459182739258" x2="73.5914077758789" y1="428.4461669921875"/>
<line y2="462.4298095703125" style="stroke:rgb(0,0,0);stroke-width:1" x1="73.5914077758789" x2="55.08238983154297" y1="435.2187194824219"/>
<line y2="459.5590515136719" style="stroke:rgb(0,0,0);stroke-width:1" x1="73.5914077758789" x2="103.2917251586914" y1="435.2187194824219"/>
<line y2="403.4131164550781" style="stroke:rgb(0,0,0);stroke-width:1" x1="73.5914077758789" x2="131.2071533203125" y1="435.2187194824219"/>
<line y2="459.5590515136719" style="stroke:rgb(0,0,0);stroke-width:1" x1="131.2071533203125" x2="103.2917251586914" y1="403.4131164550781"/>
<line y2="467.6800537109375" style="stroke:rgb(0,0,0);stroke-width:1" x1="131.2071533203125" x2="146.25254821777344" y1="403.4131164550781"/>
<line y2="459.5590515136719" style="stroke:rgb(0,0,0);stroke-width:1" x1="146.25254821777344" x2="103.2917251586914" y1="467.6800537109375"/>
<line y2="435.9679870605469" style="stroke:rgb(0,0,0);stroke-width:1" x1="131.2071533203125" x2="176.3144989013672" y1="403.4131164550781"/>
<line y2="467.6800537109375" style="stroke:rgb(0,0,0);stroke-width:1" x1="176.3144989013672" x2="146.25254821777344" y1="435.9679870605469"/>
<line y2="468.1551208496094" style="stroke:rgb(0,0,0);stroke-width:1" x1="176.3144989013672" x2="185.8260498046875" y1="435.9679870605469"/>
<line y2="467.6800537109375" style="stroke:rgb(0,0,0);stroke-width:1" x1="185.8260498046875" x2="146.25254821777344" y1="468.1551208496094"/>
<line y2="495.0193176269531" style="stroke:rgb(0,0,0);stroke-width:1" x1="185.8260498046875" x2="178.37010192871094" y1="468.1551208496094"/>
<line y2="495.1822509765625" style="stroke:rgb(0,0,0);stroke-width:1" x1="185.8260498046875" x2="207.51548767089844" y1="468.1551208496094"/>
<line y2="436.01800537109375" style="stroke:rgb(0,0,0);stroke-width:1" x1="185.8260498046875" x2="227.62071228027344" y1="468.1551208496094"/>
<line y2="436.01800537109375" style="stroke:rgb(0,0,0);stroke-width:1" x1="176.3144989013672" x2="227.62071228027344" y1="435.9679870605469"/>
<line y2="398.4972229003906" style="stroke:rgb(0,0,0);stroke-width:1" x1="176.3144989013672" x2="178.595703125" y1="435.9679870605469"/>
<line y2="436.01800537109375" style="stroke:rgb(0,0,0);stroke-width:1" x1="178.595703125" x2="227.62071228027344" y1="398.4972229003906"/>
<line y2="393.956298828125" style="stroke:rgb(0,0,0);stroke-width:1" x1="178.595703125" x2="230.91506958007812" y1="398.4972229003906"/>
<line y2="436.01800537109375" style="stroke:rgb(0,0,0);stroke-width:1" x1="230.91506958007812" x2="227.62071228027344" y1="393.956298828125"/>
<line y2="414.6399841308594" style="stroke:rgb(0,0,0);stroke-width:1" x1="230.91506958007812" x2="270.984130859375" y1="393.956298828125"/>
<line y2="366.8436584472656" style="stroke:rgb(0,0,0);stroke-width:1" x1="230.91506958007812" x2="252.93789672851562" y1="393.956298828125"/>
<line y2="414.6399841308594" style="stroke:rgb(0,0,0);stroke-width:1" x1="252.93789672851562" x2="270.984130859375" y1="366.8436584472656"/>
<line y2="375.26416015625" style="stroke:rgb(0,0,0);stroke-width:1" x1="252.93789672851562" x2="289.4890441894531" y1="366.8436584472656"/>
<line y2="414.6399841308594" style="stroke:rgb(0,0,0);stroke-width:1" x1="289.4890441894531" x2="270.984130859375" y1="375.26416015625"/>
<line y2="416.9561767578125" style="stroke:rgb(0,0,0);stroke-width:1" x1="289.4890441894531" x2="322.2901306152344" y1="375.26416015625"/>
<line y2="363.38311767578125" style="stroke:rgb(0,0,0);stroke-width:1" x1="289.4890441894531" x2="324.52398681640625" y1="375.26416015625"/>
<line y2="416.9561767578125" style="stroke:rgb(0,0,0);stroke-width:1" x1="324.52398681640625" x2="322.2901306152344" y1="363.38311767578125"/>
<line y2="376.93841552734375" style="stroke:rgb(0,0,0);stroke-width:1" x1="324.52398681640625" x2="355.20465087890625" y1="363.38311767578125"/>
<line y2="416.9561767578125" style="stroke:rgb(0,0,0);stroke-width:1" x1="355.20465087890625" x2="322.2901306152344" y1="376.93841552734375"/>
<line y2="415.75811767578125" style="stroke:rgb(0,0,0);stroke-width:1" x1="355.20465087890625" x2="376.8153076171875" y1="376.93841552734375"/>
<line y2="416.9561767578125" style="stroke:rgb(0,0,0);stroke-width:1" x1="376.8153076171875" x2="322.2901306152344" y1="415.75811767578125"/>
<line y2="377.0771179199219" style="stroke:rgb(0,0,0);stroke-width:1" x1="355.20465087890625" x2="392.44873046875" y1="376.93841552734375"/>
<line y2="415.75811767578125" style="stroke:rgb(0,0,0);stroke-width:1" x1="392.44873046875" x2="376.8153076171875" y1="377.0771179199219"/>
<line y2="415.61492919921875" style="stroke:rgb(0,0,0);stroke-width:1" x1="392.44873046875" x2="429.8992919921875" y1="377.0771179199219"/>
<line y2="368.1679992675781" style="stroke:rgb(0,0,0);stroke-width:1" x1="392.44873046875" x2="426.09564208984375" y1="377.0771179199219"/>
<line y2="415.61492919921875" style="stroke:rgb(0,0,0);stroke-width:1" x1="426.09564208984375" x2="429.8992919921875" y1="368.1679992675781"/>
<line y2="366.948486328125" style="stroke:rgb(0,0,0);stroke-width:1" x1="426.09564208984375" x2="468.03009033203125" y1="368.1679992675781"/>
<line y2="415.61492919921875" style="stroke:rgb(0,0,0);stroke-width:1" x1="468.03009033203125" x2="429.8992919921875" y1="366.948486328125"/>
<line y2="385.1391296386719" style="stroke:rgb(0,0,0);stroke-width:1" x1="468.03009033203125" x2="491.4792175292969" y1="366.948486328125"/>
<line y2="415.61492919921875" style="stroke:rgb(0,0,0);stroke-width:1" x1="491.4792175292969" x2="429.8992919921875" y1="385.1391296386719"/>
<line y2="417.559814453125" style="stroke:rgb(0,0,0);stroke-width:1" x1="491.4792175292969" x2="505.61651611328125" y1="385.1391296386719"/>
<line y2="415.61492919921875" style="stroke:rgb(0,0,0);stroke-width:1" x1="505.61651611328125" x2="429.8992919921875" y1="417.559814453125"/>
<line y2="482.6269836425781" style="stroke:rgb(0,0,0);stroke-width:1" x1="505.61651611328125" x2="462.346923828125" y1="417.559814453125"/>
<line y2="473.0686950683594" style="stroke:rgb(0,0,0);stroke-width:1" x1="505.61651611328125" x2="497.41607666015625" y1="417.559814453125"/>
<line y2="482.6269836425781" style="stroke:rgb(0,0,0);stroke-width:1" x1="497.41607666015625" x2="462.346923828125" y1="473.0686950683594"/>
<line y2="446.95599365234375" style="stroke:rgb(0,0,0);stroke-width:1" x1="505.61651611328125" x2="524.9850463867188" y1="417.559814453125"/>
<line y2="414.10052490234375" style="stroke:rgb(0,0,0);stroke-width:1" x1="505.61651611328125" x2="547.1041259765625" y1="417.559814453125"/>
<line y2="446.95599365234375" style="stroke:rgb(0,0,0);stroke-width:1" x1="547.1041259765625" x2="524.9850463867188" y1="414.10052490234375"/>
<line y2="436.7395935058594" style="stroke:rgb(0,0,0);stroke-width:1" x1="547.1041259765625" x2="572.3369140625" y1="414.10052490234375"/>
<line y2="382.43072509765625" style="stroke:rgb(0,0,0);stroke-width:1" x1="547.1041259765625" x2="574.0543212890625" y1="414.10052490234375"/>
<line y2="385.6559143066406" style="stroke:rgb(0,0,0);stroke-width:1" x1="547.1041259765625" x2="528.6751708984375" y1="414.10052490234375"/>
<line y2="382.43072509765625" style="stroke:rgb(0,0,0);stroke-width:1" x1="528.6751708984375" x2="574.0543212890625" y1="385.6559143066406"/>
<line y2="350.49432373046875" style="stroke:rgb(0,0,0);stroke-width:1" x1="528.6751708984375" x2="545.6035766601562" y1="385.6559143066406"/>
<line y2="382.43072509765625" style="stroke:rgb(0,0,0);stroke-width:1" x1="545.6035766601562" x2="574.0543212890625" y1="350.49432373046875"/>
<line y2="334.7723083496094" style="stroke:rgb(0,0,0);stroke-width:1" x1="545.6035766601562" x2="572.9513549804688" y1="350.49432373046875"/>
<line y2="382.43072509765625" style="stroke:rgb(0,0,0);stroke-width:1" x1="572.9513549804688" x2="574.0543212890625" y1="334.7723083496094"/>
<line y2="300.4239807128906" style="stroke:rgb(0,0,0);stroke-width:1" x1="572.9513549804688" x2="577.9014282226562" y1="334.7723083496094"/>
<line y2="304.81915283203125" style="stroke:rgb(0,0,0);stroke-width:1" x1="572.9513549804688" x2="529.7855834960938" y1="334.7723083496094"/>
<line y2="304.81915283203125" style="stroke:rgb(0,0,0);stroke-width:1" x1="545.6035766601562" x2="529.7855834960938" y1="350.49432373046875"/>
<line y2="358.697998046875" style="stroke:rgb(0,0,0);stroke-width:1" x1="545.6035766601562" x2="510.9364929199219" y1="350.49432373046875"/>
<line y2="304.81915283203125" style="stroke:rgb(0,0,0);stroke-width:1" x1="510.9364929199219" x2="529.7855834960938" y1="358.697998046875"/>
<line y2="330.98876953125" style="stroke:rgb(0,0,0);stroke-width:1" x1="510.9364929199219" x2="480.3763122558594" y1="358.697998046875"/>
<line y2="304.81915283203125" style="stroke:rgb(0,0,0);stroke-width:1" x1="480.3763122558594" x2="529.7855834960938" y1="330.98876953125"/>
<line y2="291.0341796875" style="stroke:rgb(0,0,0);stroke-width:1" x1="480.3763122558594" x2="492.9226379394531" y1="330.98876953125"/>
<line y2="304.81915283203125" style="stroke:rgb(0,0,0);stroke-width:1" x1="492.9226379394531" x2="529.7855834960938" y1="291.0341796875"/>
<line y2="252.64743041992188" style="stroke:rgb(0,0,0);stroke-width:1" x1="492.9226379394531" x2="513.1963500976562" y1="291.0341796875"/>
<line y2="241.7071990966797" style="stroke:rgb(0,0,0);stroke-width:1" x1="492.9226379394531" x2="469.3826599121094" y1="291.0341796875"/>
<line y2="252.64743041992188" style="stroke:rgb(0,0,0);stroke-width:1" x1="469.3826599121094" x2="513.1963500976562" y1="241.7071990966797"/>
<line y2="189.04286193847656" style="stroke:rgb(0,0,0);stroke-width:1" x1="469.3826599121094" x2="509.2701416015625" y1="241.7071990966797"/>
<line y2="252.64743041992188" style="stroke:rgb(0,0,0);stroke-width:1" x1="509.2701416015625" x2="513.1963500976562" y1="189.04286193847656"/>
<line y2="199.0767822265625" style="stroke:rgb(0,0,0);stroke-width:1" x1="509.2701416015625" x2="544.59033203125" y1="189.04286193847656"/>
<line y2="252.64743041992188" style="stroke:rgb(0,0,0);stroke-width:1" x1="544.59033203125" x2="513.1963500976562" y1="199.0767822265625"/>
<line y2="223.7306671142578" style="stroke:rgb(0,0,0);stroke-width:1" x1="544.59033203125" x2="573.2241821289062" y1="199.0767822265625"/>
<line y2="190.70278930664062" style="stroke:rgb(0,0,0);stroke-width:1" x1="544.59033203125" x2="576.3881225585938" y1="199.0767822265625"/>
<line y2="161.83453369140625" style="stroke:rgb(0,0,0);stroke-width:1" x1="544.59033203125" x2="567.890380859375" y1="199.0767822265625"/>
<line y2="190.70278930664062" style="stroke:rgb(0,0,0);stroke-width:1" x1="567.890380859375" x2="576.3881225585938" y1="161.83453369140625"/>
<line y2="131.9395751953125" style="stroke:rgb(0,0,0);stroke-width:1" x1="567.890380859375" x2="573.7682495117188" y1="161.83453369140625"/>
<line y2="190.70278930664062" style="stroke:rgb(0,0,0);stroke-width:1" x1="573.7682495117188" x2="576.3881225585938" y1="131.9395751953125"/>
<line y2="67.22005462646484" style="stroke:rgb(0,0,0);stroke-width:1" x1="573.7682495117188" x2="576.9008178710938" y1="131.9395751953125"/>
<line y2="100.740478515625" style="stroke:rgb(0,0,0);stroke-width:1" x1="573.7682495117188" x2="566.06787109375" y1="131.9395751953125"/>
<line y2="67.22005462646484" style="stroke:rgb(0,0,0);stroke-width:1" x1="566.06787109375" x2="576.9008178710938" y1="100.740478515625"/>
<line y2="59.480865478515625" style="stroke:rgb(0,0,0);stroke-width:1" x1="566.06787109375" x2="546.35302734375" y1="100.740478515625"/>
<line y2="100.85540771484375" style="stroke:rgb(0,0,0);stroke-width:1" x1="566.06787109375" x2="524.7156982421875" y1="100.740478515625"/>
<line y2="59.480865478515625" style="stroke:rgb(0,0,0);stroke-width:1" x1="524.7156982421875" x2="546.35302734375" y1="100.85540771484375"/>
<line y2="67.68975067138672" style="stroke:rgb(0,0,0);stroke-width:1" x1="524.7156982421875" x2="514.0797729492188" y1="100.85540771484375"/>
<line y2="59.480865478515625" style="stroke:rgb(0,0,0);stroke-width:1" x1="514.0797729492188" x2="546.35302734375" y1="67.68975067138672"/>
<line y2="23.98196792602539" style="stroke:rgb(0,0,0);stroke-width:1" x1="514.0797729492188" x2="522.032958984375" y1="67.68975067138672"/>
<line y2="42.89128494262695" style="stroke:rgb(0,0,0);stroke-width:1" x1="514.0797729492188" x2="489.5734558105469" y1="67.68975067138672"/>
<line y2="74.05768585205078" style="stroke:rgb(0,0,0);stroke-width:1" x1="514.0797729492188" x2="480.7407531738281" y1="67.68975067138672"/>
<line y2="42.89128494262695" style="stroke:rgb(0,0,0);stroke-width:1" x1="480.7407531738281" x2="489.5734558105469" y1="74.05768585205078"/>
<line y2="45.26834487915039" style="stroke:rgb(0,0,0);stroke-width:1" x1="480.7407531738281" x2="456.1925048828125" y1="74.05768585205078"/>
<line y2="42.89128494262695" style="stroke:rgb(0,0,0);stroke-width:1" x1="456.1925048828125" x2="489.5734558105469" y1="45.26834487915039"/>
<line y2="14.888054847717285" style="stroke:rgb(0,0,0);stroke-width:1" x1="456.1925048828125" x2="464.41015625" y1="45.26834487915039"/>
<line y2="14.580080032348633" style="stroke:rgb(0,0,0);stroke-width:1" x1="456.1925048828125" x2="433.403076171875" y1="45.26834487915039"/>
<line y2="43.18724822998047" style="stroke:rgb(0,0,0);stroke-width:1" x1="456.1925048828125" x2="422.02142333984375" y1="45.26834487915039"/>
<line y2="69.72409057617188" style="stroke:rgb(0,0,0);stroke-width:1" x1="456.1925048828125" x2="442.18853759765625" y1="45.26834487915039"/>
<line y2="43.18724822998047" style="stroke:rgb(0,0,0);stroke-width:1" x1="442.18853759765625" x2="422.02142333984375" y1="69.72409057617188"/>
<line y2="71.434814453125" style="stroke:rgb(0,0,0);stroke-width:1" x1="442.18853759765625" x2="409.40167236328125" y1="69.72409057617188"/>
<line y2="43.18724822998047" style="stroke:rgb(0,0,0);stroke-width:1" x1="409.40167236328125" x2="422.02142333984375" y1="71.434814453125"/>
<line y2="43.860530853271484" style="stroke:rgb(0,0,0);stroke-width:1" x1="409.40167236328125" x2="387.3932800292969" y1="71.434814453125"/>
<line y2="72.89376831054688" style="stroke:rgb(0,0,0);stroke-width:1" x1="409.40167236328125" x2="382.7529602050781" y1="71.434814453125"/>
<line y2="122.38801574707031" style="stroke:rgb(0,0,0);stroke-width:1" x1="409.40167236328125" x2="370.28076171875" y1="71.434814453125"/>
<line y2="132.46231079101562" style="stroke:rgb(0,0,0);stroke-width:1" x1="409.40167236328125" x2="423.54559326171875" y1="71.434814453125"/>
<line y2="122.38801574707031" style="stroke:rgb(0,0,0);stroke-width:1" x1="423.54559326171875" x2="370.28076171875" y1="132.46231079101562"/>
<line y2="169.1426239013672" style="stroke:rgb(0,0,0);stroke-width:1" x1="423.54559326171875" x2="396.31451416015625" y1="132.46231079101562"/>
<line y2="122.38801574707031" style="stroke:rgb(0,0,0);stroke-width:1" x1="396.31451416015625" x2="370.28076171875" y1="169.1426239013672"/>
<line y2="158.6864776611328" style="stroke:rgb(0,0,0);stroke-width:1" x1="396.31451416015625" x2="356.81524658203125" y1="169.1426239013672"/>
<line y2="122.38801574707031" style="stroke:rgb(0,0,0);stroke-width:1" x1="356.81524658203125" x2="370.28076171875" y1="158.6864776611328"/>
<line y2="122.68333435058594" style="stroke:rgb(0,0,0);stroke-width:1" x1="356.81524658203125" x2="310.86029052734375" y1="158.6864776611328"/>
<line y2="163.2997589111328" style="stroke:rgb(0,0,0);stroke-width:1" x1="356.81524658203125" x2="317.8361511230469" y1="158.6864776611328"/>
<line y2="122.68333435058594" style="stroke:rgb(0,0,0);stroke-width:1" x1="317.8361511230469" x2="310.86029052734375" y1="163.2997589111328"/>
<line y2="155.12086486816406" style="stroke:rgb(0,0,0);stroke-width:1" x1="317.8361511230469" x2="276.66510009765625" y1="163.2997589111328"/>
<line y2="122.68333435058594" style="stroke:rgb(0,0,0);stroke-width:1" x1="276.66510009765625" x2="310.86029052734375" y1="155.12086486816406"/>
<line y2="118.56687927246094" style="stroke:rgb(0,0,0);stroke-width:1" x1="276.66510009765625" x2="252.5508270263672" y1="155.12086486816406"/>
<line y2="122.68333435058594" style="stroke:rgb(0,0,0);stroke-width:1" x1="252.5508270263672" x2="310.86029052734375" y1="118.56687927246094"/>
<line y2="78.23844146728516" style="stroke:rgb(0,0,0);stroke-width:1" x1="252.5508270263672" x2="282.6738586425781" y1="118.56687927246094"/>
<line y2="51.53337097167969" style="stroke:rgb(0,0,0);stroke-width:1" x1="252.5508270263672" x2="221.7846221923828" y1="118.56687927246094"/>
<line y2="102.43960571289062" style="stroke:rgb(0,0,0);stroke-width:1" x1="252.5508270263672" x2="187.31736755371094" y1="118.56687927246094"/>
<line y2="51.53337097167969" style="stroke:rgb(0,0,0);stroke-width:1" x1="187.31736755371094" x2="221.7846221923828" y1="102.43960571289062"/>
<line y2="22.760498046875" style="stroke:rgb(0,0,0);stroke-width:1" x1="187.31736755371094" x2="178.13331604003906" y1="102.43960571289062"/>
<line y2="74.59942626953125" style="stroke:rgb(0,0,0);stroke-width:1" x1="187.31736755371094" x2="136.1437225341797" y1="102.43960571289062"/>
<line y2="22.760498046875" style="stroke:rgb(0,0,0);stroke-width:1" x1="136.1437225341797" x2="178.13331604003906" y1="74.59942626953125"/>
<line y2="137.01226806640625" style="stroke:rgb(0,0,0);stroke-width:1" x1="187.31736755371094" x2="155.396728515625" y1="102.43960571289062"/>
<line y2="74.59942626953125" style="stroke:rgb(0,0,0);stroke-width:1" x1="155.396728515625" x2="136.1437225341797" y1="137.01226806640625"/>
<line y2="94.70283508300781" style="stroke:rgb(0,0,0);stroke-width:1" x1="155.396728515625" x2="92.81585693359375" y1="137.01226806640625"/>
<line y2="126.74494171142578" style="stroke:rgb(0,0,0);stroke-width:1" x1="155.396728515625" x2="87.3341293334961" y1="137.01226806640625"/>
<line y2="94.70283508300781" style="stroke:rgb(0,0,0);stroke-width:1" x1="87.3341293334961" x2="92.81585693359375" y1="126.74494171142578"/>
<line y2="107.15267944335938" style="stroke:rgb(0,0,0);stroke-width:1" x1="87.3341293334961" x2="53.95519256591797" y1="126.74494171142578"/>
<line y2="94.70283508300781" style="stroke:rgb(0,0,0);stroke-width:1" x1="53.95519256591797" x2="92.81585693359375" y1="107.15267944335938"/>
<line y2="79.64682006835938" style="stroke:rgb(0,0,0);stroke-width:1" x1="53.95519256591797" x2="54.221290588378906" y1="107.15267944335938"/>
<line y2="77.44236755371094" style="stroke:rgb(0,0,0);stroke-width:1" x1="53.95519256591797" x2="21.550437927246094" y1="107.15267944335938"/>
<line y2="114.22598266601562" style="stroke:rgb(0,0,0);stroke-width:1" x1="53.95519256591797" x2="19.0355167388916" y1="107.15267944335938"/>
<line y2="136.6170196533203" style="stroke:rgb(0,0,0);stroke-width:1" x1="53.95519256591797" x2="56.99583435058594" y1="107.15267944335938"/>
<line y2="136.6170196533203" style="stroke:rgb(0,0,0);stroke-width:1" x1="87.3341293334961" x2="56.99583435058594" y1="126.74494171142578"/>
<line y2="161.16119384765625" style="stroke:rgb(0,0,0);stroke-width:1" x1="87.3341293334961" x2="87.72346496582031" y1="126.74494171142578"/>
<line y2="136.6170196533203" style="stroke:rgb(0,0,0);stroke-width:1" x1="87.72346496582031" x2="56.99583435058594" y1="161.16119384765625"/>
<line y2="172.37010192871094" style="stroke:rgb(0,0,0);stroke-width:1" x1="87.72346496582031" x2="63.34682846069336" y1="161.16119384765625"/>
<line y2="136.6170196533203" style="stroke:rgb(0,0,0);stroke-width:1" x1="63.34682846069336" x2="56.99583435058594" y1="172.37010192871094"/>
<line y2="156.9452667236328" style="stroke:rgb(0,0,0);stroke-width:1" x1="63.34682846069336" x2="38.192344665527344" y1="172.37010192871094"/>
<line y2="236.71153259277344" style="stroke:rgb(0,0,0);stroke-width:1" x1="87.72346496582031" x2="91.82767486572266" y1="161.16119384765625"/>
<line y2="189.06350708007812" style="stroke:rgb(0,0,0);stroke-width:1" x1="87.72346496582031" x2="132.23629760742188" y1="161.16119384765625"/>
<line y2="236.71153259277344" style="stroke:rgb(0,0,0);stroke-width:1" x1="132.23629760742188" x2="91.82767486572266" y1="189.06350708007812"/>
<line y2="233.76046752929688" style="stroke:rgb(0,0,0);stroke-width:1" x1="132.23629760742188" x2="130.28118896484375" y1="189.06350708007812"/>
<line y2="236.71153259277344" style="stroke:rgb(0,0,0);stroke-width:1" x1="130.28118896484375" x2="91.82767486572266" y1="233.76046752929688"/>
<line y2="274.4792175292969" style="stroke:rgb(0,0,0);stroke-width:1" x1="130.28118896484375" x2="128.364990234375" y1="233.76046752929688"/>
<line y2="236.71153259277344" style="stroke:rgb(0,0,0);stroke-width:1" x1="128.364990234375" x2="91.82767486572266" y1="274.4792175292969"/>
<line y2="283.78228759765625" style="stroke:rgb(0,0,0);stroke-width:1" x1="128.364990234375" x2="76.2528305053711" y1="274.4792175292969"/>
<line y2="320.3641357421875" style="stroke:rgb(0,0,0);stroke-width:1" x1="128.364990234375" x2="104.72019958496094" y1="274.4792175292969"/>
<line y2="283.78228759765625" style="stroke:rgb(0,0,0);stroke-width:1" x1="104.72019958496094" x2="76.2528305053711" y1="320.3641357421875"/>
<line y2="342.7549743652344" style="stroke:rgb(0,0,0);stroke-width:1" x1="104.72019958496094" x2="56.08725357055664" y1="320.3641357421875"/>
<line y2="283.78228759765625" style="stroke:rgb(0,0,0);stroke-width:1" x1="56.08725357055664" x2="76.2528305053711" y1="342.7549743652344"/>
<line y2="324.7715148925781" style="stroke:rgb(0,0,0);stroke-width:1" x1="56.08725357055664" x2="23.131315231323242" y1="342.7549743652344"/>
<line y2="283.78228759765625" style="stroke:rgb(0,0,0);stroke-width:1" x1="23.131315231323242" x2="76.2528305053711" y1="324.7715148925781"/>
<line y2="299.3998107910156" style="stroke:rgb(0,0,0);stroke-width:1" x1="23.131315231323242" x2="15.193367004394531" y1="324.7715148925781"/>
<line y2="352.5273132324219" style="stroke:rgb(0,0,0);stroke-width:1" x1="23.131315231323242" x2="16.8865966796875" y1="324.7715148925781"/>
<line y2="352.5273132324219" style="stroke:rgb(0,0,0);stroke-width:1" x1="56.08725357055664" x2="16.8865966796875" y1="342.7549743652344"/>
<line y2="371.17694091796875" style="stroke:rgb(0,0,0);stroke-width:1" x1="56.08725357055664" x2="52.56212615966797" y1="342.7549743652344"/>
<line y2="352.5273132324219" style="stroke:rgb(0,0,0);stroke-width:1" x1="52.56212615966797" x2="16.8865966796875" y1="371.17694091796875"/>
<line y2="383.4367370605469" style="stroke:rgb(0,0,0);stroke-width:1" x1="52.56212615966797" x2="18.504037857055664" y1="371.17694091796875"/>
<line y2="401.1763916015625" style="stroke:rgb(0,0,0);stroke-width:1" x1="52.56212615966797" x2="55.91693878173828" y1="371.17694091796875"/>
<line y2="373.28729248046875" style="stroke:rgb(0,0,0);stroke-width:1" x1="52.56212615966797" x2="98.77395629882812" y1="371.17694091796875"/>
<line y2="401.1763916015625" style="stroke:rgb(0,0,0);stroke-width:1" x1="98.77395629882812" x2="55.91693878173828" y1="373.28729248046875"/>
<line y2="435.2187194824219" style="stroke:rgb(0,0,0);stroke-width:1" x1="98.77395629882812" x2="73.5914077758789" y1="373.28729248046875"/>
<line y2="401.1763916015625" style="stroke:rgb(0,0,0);stroke-width:1" x1="73.5914077758789" x2="55.91693878173828" y1="435.2187194824219"/>
<line y2="403.4131164550781" style="stroke:rgb(0,0,0);stroke-width:1" x1="98.77395629882812" x2="131.2071533203125" y1="373.28729248046875"/>
<line y2="354.70440673828125" style="stroke:rgb(0,0,0);stroke-width:1" x1="98.77395629882812" x2="133.49786376953125" y1="373.28729248046875"/>
<line y2="403.4131164550781" style="stroke:rgb(0,0,0);stroke-width:1" x1="133.49786376953125" x2="131.2071533203125" y1="354.70440673828125"/>
<line y2="398.4972229003906" style="stroke:rgb(0,0,0);stroke-width:1" x1="133.49786376953125" x2="178.595703125" y1="354.70440673828125"/>
<line y2="403.4131164550781" style="stroke:rgb(0,0,0);stroke-width:1" x1="178.595703125" x2="131.2071533203125" y1="398.4972229003906"/>
<line y2="360.7946472167969" style="stroke:rgb(0,0,0);stroke-width:1" x1="133.49786376953125" x2="179.62490844726562" y1="354.70440673828125"/>
<line y2="398.4972229003906" style="stroke:rgb(0,0,0);stroke-width:1" x1="179.62490844726562" x2="178.595703125" y1="360.7946472167969"/>
<line y2="393.956298828125" style="stroke:rgb(0,0,0);stroke-width:1" x1="179.62490844726562" x2="230.91506958007812" y1="360.7946472167969"/>
<line y2="340.4606628417969" style="stroke:rgb(0,0,0);stroke-width:1" x1="179.62490844726562" x2="223.8220672607422" y1="360.7946472167969"/>
<line y2="393.956298828125" style="stroke:rgb(0,0,0);stroke-width:1" x1="223.8220672607422" x2="230.91506958007812" y1="340.4606628417969"/>
<line y2="366.8436584472656" style="stroke:rgb(0,0,0);stroke-width:1" x1="223.8220672607422" x2="252.93789672851562" y1="340.4606628417969"/>
<line y2="332.33856201171875" style="stroke:rgb(0,0,0);stroke-width:1" x1="223.8220672607422" x2="268.11676025390625" y1="340.4606628417969"/>
<line y2="366.8436584472656" style="stroke:rgb(0,0,0);stroke-width:1" x1="268.11676025390625" x2="252.93789672851562" y1="332.33856201171875"/>
<line y2="375.26416015625" style="stroke:rgb(0,0,0);stroke-width:1" x1="268.11676025390625" x2="289.4890441894531" y1="332.33856201171875"/>
<line y2="330.8553771972656" style="stroke:rgb(0,0,0);stroke-width:1" x1="268.11676025390625" x2="308.38189697265625" y1="332.33856201171875"/>
<line y2="375.26416015625" style="stroke:rgb(0,0,0);stroke-width:1" x1="308.38189697265625" x2="289.4890441894531" y1="330.8553771972656"/>
<line y2="363.38311767578125" style="stroke:rgb(0,0,0);stroke-width:1" x1="308.38189697265625" x2="324.52398681640625" y1="330.8553771972656"/>
<line y2="331.8103942871094" style="stroke:rgb(0,0,0);stroke-width:1" x1="308.38189697265625" x2="349.70489501953125" y1="330.8553771972656"/>
<line y2="363.38311767578125" style="stroke:rgb(0,0,0);stroke-width:1" x1="349.70489501953125" x2="324.52398681640625" y1="331.8103942871094"/>
<line y2="376.93841552734375" style="stroke:rgb(0,0,0);stroke-width:1" x1="349.70489501953125" x2="355.20465087890625" y1="331.8103942871094"/>
<line y2="335.5131530761719" style="stroke:rgb(0,0,0);stroke-width:1" x1="349.70489501953125" x2="387.6565246582031" y1="331.8103942871094"/>
<line y2="376.93841552734375" style="stroke:rgb(0,0,0);stroke-width:1" x1="387.6565246582031" x2="355.20465087890625" y1="335.5131530761719"/>
<line y2="377.0771179199219" style="stroke:rgb(0,0,0);stroke-width:1" x1="387.6565246582031" x2="392.44873046875" y1="335.5131530761719"/>
<line y2="368.1679992675781" style="stroke:rgb(0,0,0);stroke-width:1" x1="387.6565246582031" x2="426.09564208984375" y1="335.5131530761719"/>
<line y2="330.22747802734375" style="stroke:rgb(0,0,0);stroke-width:1" x1="387.6565246582031" x2="431.7293701171875" y1="335.5131530761719"/>
<line y2="368.1679992675781" style="stroke:rgb(0,0,0);stroke-width:1" x1="431.7293701171875" x2="426.09564208984375" y1="330.22747802734375"/>
<line y2="366.948486328125" style="stroke:rgb(0,0,0);stroke-width:1" x1="431.7293701171875" x2="468.03009033203125" y1="330.22747802734375"/>
<line y2="330.98876953125" style="stroke:rgb(0,0,0);stroke-width:1" x1="431.7293701171875" x2="480.3763122558594" y1="330.22747802734375"/>
<line y2="366.948486328125" style="stroke:rgb(0,0,0);stroke-width:1" x1="480.3763122558594" x2="468.03009033203125" y1="330.98876953125"/>
<line y2="366.948486328125" style="stroke:rgb(0,0,0);stroke-width:1" x1="510.9364929199219" x2="468.03009033203125" y1="358.697998046875"/>
<line y2="385.1391296386719" style="stroke:rgb(0,0,0);stroke-width:1" x1="510.9364929199219" x2="491.4792175292969" y1="358.697998046875"/>
<line y2="385.6559143066406" style="stroke:rgb(0,0,0);stroke-width:1" x1="510.9364929199219" x2="528.6751708984375" y1="358.697998046875"/>
<line y2="385.1391296386719" style="stroke:rgb(0,0,0);stroke-width:1" x1="528.6751708984375" x2="491.4792175292969" y1="385.6559143066406"/>
<line y2="417.559814453125" style="stroke:rgb(0,0,0);stroke-width:1" x1="528.6751708984375" x2="505.61651611328125" y1="385.6559143066406"/>
<line y2="290.5173034667969" style="stroke:rgb(0,0,0);stroke-width:1" x1="431.7293701171875" x2="460.2714538574219" y1="330.22747802734375"/>
<line y2="330.98876953125" style="stroke:rgb(0,0,0);stroke-width:1" x1="460.2714538574219" x2="480.3763122558594" y1="290.5173034667969"/>
<line y2="291.0341796875" style="stroke:rgb(0,0,0);stroke-width:1" x1="460.2714538574219" x2="492.9226379394531" y1="290.5173034667969"/>
<line y2="241.7071990966797" style="stroke:rgb(0,0,0);stroke-width:1" x1="460.2714538574219" x2="469.3826599121094" y1="290.5173034667969"/>
<line y2="251.14248657226562" style="stroke:rgb(0,0,0);stroke-width:1" x1="460.2714538574219" x2="430.95001220703125" y1="290.5173034667969"/>
<line y2="241.7071990966797" style="stroke:rgb(0,0,0);stroke-width:1" x1="430.95001220703125" x2="469.3826599121094" y1="251.14248657226562"/>
<line y2="212.03085327148438" style="stroke:rgb(0,0,0);stroke-width:1" x1="430.95001220703125" x2="415.57354736328125" y1="251.14248657226562"/>
<line y2="241.7071990966797" style="stroke:rgb(0,0,0);stroke-width:1" x1="415.57354736328125" x2="469.3826599121094" y1="212.03085327148438"/>
<line y2="180.31298828125" style="stroke:rgb(0,0,0);stroke-width:1" x1="415.57354736328125" x2="446.497314453125" y1="212.03085327148438"/>
<line y2="241.7071990966797" style="stroke:rgb(0,0,0);stroke-width:1" x1="446.497314453125" x2="469.3826599121094" y1="180.31298828125"/>
<line y2="189.04286193847656" style="stroke:rgb(0,0,0);stroke-width:1" x1="446.497314453125" x2="509.2701416015625" y1="180.31298828125"/>
<line y2="142.13955688476562" style="stroke:rgb(0,0,0);stroke-width:1" x1="446.497314453125" x2="473.7329406738281" y1="180.31298828125"/>
<line y2="189.04286193847656" style="stroke:rgb(0,0,0);stroke-width:1" x1="473.7329406738281" x2="509.2701416015625" y1="142.13955688476562"/>
<line y2="165.20074462890625" style="stroke:rgb(0,0,0);stroke-width:1" x1="473.7329406738281" x2="529.6558837890625" y1="142.13955688476562"/>
<line y2="189.04286193847656" style="stroke:rgb(0,0,0);stroke-width:1" x1="529.6558837890625" x2="509.2701416015625" y1="165.20074462890625"/>
<line y2="199.0767822265625" style="stroke:rgb(0,0,0);stroke-width:1" x1="529.6558837890625" x2="544.59033203125" y1="165.20074462890625"/>
<line y2="161.83453369140625" style="stroke:rgb(0,0,0);stroke-width:1" x1="529.6558837890625" x2="567.890380859375" y1="165.20074462890625"/>
<line y2="134.1332550048828" style="stroke:rgb(0,0,0);stroke-width:1" x1="529.6558837890625" x2="534.350830078125" y1="165.20074462890625"/>
<line y2="161.83453369140625" style="stroke:rgb(0,0,0);stroke-width:1" x1="534.350830078125" x2="567.890380859375" y1="134.1332550048828"/>
<line y2="131.9395751953125" style="stroke:rgb(0,0,0);stroke-width:1" x1="534.350830078125" x2="573.7682495117188" y1="134.1332550048828"/>
<line y2="100.740478515625" style="stroke:rgb(0,0,0);stroke-width:1" x1="534.350830078125" x2="566.06787109375" y1="134.1332550048828"/>
<line y2="100.85540771484375" style="stroke:rgb(0,0,0);stroke-width:1" x1="534.350830078125" x2="524.7156982421875" y1="134.1332550048828"/>
<line y2="142.13955688476562" style="stroke:rgb(0,0,0);stroke-width:1" x1="534.350830078125" x2="473.7329406738281" y1="134.1332550048828"/>
<line y2="100.85540771484375" style="stroke:rgb(0,0,0);stroke-width:1" x1="473.7329406738281" x2="524.7156982421875" y1="142.13955688476562"/>
<line y2="74.05768585205078" style="stroke:rgb(0,0,0);stroke-width:1" x1="473.7329406738281" x2="480.7407531738281" y1="142.13955688476562"/>
<line y2="100.85540771484375" style="stroke:rgb(0,0,0);stroke-width:1" x1="480.7407531738281" x2="524.7156982421875" y1="74.05768585205078"/>
<line y2="69.72409057617188" style="stroke:rgb(0,0,0);stroke-width:1" x1="473.7329406738281" x2="442.18853759765625" y1="142.13955688476562"/>
<line y2="74.05768585205078" style="stroke:rgb(0,0,0);stroke-width:1" x1="442.18853759765625" x2="480.7407531738281" y1="69.72409057617188"/>
<line y2="132.46231079101562" style="stroke:rgb(0,0,0);stroke-width:1" x1="473.7329406738281" x2="423.54559326171875" y1="142.13955688476562"/>
<line y2="69.72409057617188" style="stroke:rgb(0,0,0);stroke-width:1" x1="423.54559326171875" x2="442.18853759765625" y1="132.46231079101562"/>
<line y2="132.46231079101562" style="stroke:rgb(0,0,0);stroke-width:1" x1="446.497314453125" x2="423.54559326171875" y1="180.31298828125"/>
<line y2="169.1426239013672" style="stroke:rgb(0,0,0);stroke-width:1" x1="446.497314453125" x2="396.31451416015625" y1="180.31298828125"/>
<line y2="169.1426239013672" style="stroke:rgb(0,0,0);stroke-width:1" x1="415.57354736328125" x2="396.31451416015625" y1="212.03085327148438"/>
<line y2="208.1405792236328" style="stroke:rgb(0,0,0);stroke-width:1" x1="415.57354736328125" x2="369.0438232421875" y1="212.03085327148438"/>
<line y2="169.1426239013672" style="stroke:rgb(0,0,0);stroke-width:1" x1="369.0438232421875" x2="396.31451416015625" y1="208.1405792236328"/>
<line y2="158.6864776611328" style="stroke:rgb(0,0,0);stroke-width:1" x1="369.0438232421875" x2="356.81524658203125" y1="208.1405792236328"/>
<line y2="199.25047302246094" style="stroke:rgb(0,0,0);stroke-width:1" x1="369.0438232421875" x2="334.76385498046875" y1="208.1405792236328"/>
<line y2="158.6864776611328" style="stroke:rgb(0,0,0);stroke-width:1" x1="334.76385498046875" x2="356.81524658203125" y1="199.25047302246094"/>
<line y2="163.2997589111328" style="stroke:rgb(0,0,0);stroke-width:1" x1="334.76385498046875" x2="317.8361511230469" y1="199.25047302246094"/>
<line y2="193.34519958496094" style="stroke:rgb(0,0,0);stroke-width:1" x1="334.76385498046875" x2="286.9767761230469" y1="199.25047302246094"/>
<line y2="163.2997589111328" style="stroke:rgb(0,0,0);stroke-width:1" x1="286.9767761230469" x2="317.8361511230469" y1="193.34519958496094"/>
<line y2="155.12086486816406" style="stroke:rgb(0,0,0);stroke-width:1" x1="286.9767761230469" x2="276.66510009765625" y1="193.34519958496094"/>
<line y2="178.75885009765625" style="stroke:rgb(0,0,0);stroke-width:1" x1="286.9767761230469" x2="240.27606201171875" y1="193.34519958496094"/>
<line y2="155.12086486816406" style="stroke:rgb(0,0,0);stroke-width:1" x1="240.27606201171875" x2="276.66510009765625" y1="178.75885009765625"/>
<line y2="118.56687927246094" style="stroke:rgb(0,0,0);stroke-width:1" x1="240.27606201171875" x2="252.5508270263672" y1="178.75885009765625"/>
<line y2="138.8252716064453" style="stroke:rgb(0,0,0);stroke-width:1" x1="240.27606201171875" x2="212.24293518066406" y1="178.75885009765625"/>
<line y2="118.56687927246094" style="stroke:rgb(0,0,0);stroke-width:1" x1="212.24293518066406" x2="252.5508270263672" y1="138.8252716064453"/>
<line y2="102.43960571289062" style="stroke:rgb(0,0,0);stroke-width:1" x1="212.24293518066406" x2="187.31736755371094" y1="138.8252716064453"/>
<line y2="137.01226806640625" style="stroke:rgb(0,0,0);stroke-width:1" x1="212.24293518066406" x2="155.396728515625" y1="138.8252716064453"/>
<line y2="176.7102508544922" style="stroke:rgb(0,0,0);stroke-width:1" x1="212.24293518066406" x2="187.59228515625" y1="138.8252716064453"/>
<line y2="137.01226806640625" style="stroke:rgb(0,0,0);stroke-width:1" x1="187.59228515625" x2="155.396728515625" y1="176.7102508544922"/>
<line y2="189.06350708007812" style="stroke:rgb(0,0,0);stroke-width:1" x1="187.59228515625" x2="132.23629760742188" y1="176.7102508544922"/>
<line y2="137.01226806640625" style="stroke:rgb(0,0,0);stroke-width:1" x1="132.23629760742188" x2="155.396728515625" y1="189.06350708007812"/>
<line y2="137.01226806640625" style="stroke:rgb(0,0,0);stroke-width:1" x1="87.72346496582031" x2="155.396728515625" y1="161.16119384765625"/>
<line y2="214.8218994140625" style="stroke:rgb(0,0,0);stroke-width:1" x1="187.59228515625" x2="161.71347045898438" y1="176.7102508544922"/>
<line y2="189.06350708007812" style="stroke:rgb(0,0,0);stroke-width:1" x1="161.71347045898438" x2="132.23629760742188" y1="214.8218994140625"/>
<line y2="233.76046752929688" style="stroke:rgb(0,0,0);stroke-width:1" x1="161.71347045898438" x2="130.28118896484375" y1="214.8218994140625"/>
<line y2="241.3950653076172" style="stroke:rgb(0,0,0);stroke-width:1" x1="161.71347045898438" x2="185.7239227294922" y1="214.8218994140625"/>
<line y2="233.76046752929688" style="stroke:rgb(0,0,0);stroke-width:1" x1="185.7239227294922" x2="130.28118896484375" y1="241.3950653076172"/>
<line y2="275.5845642089844" style="stroke:rgb(0,0,0);stroke-width:1" x1="185.7239227294922" x2="172.9108123779297" y1="241.3950653076172"/>
<line y2="233.76046752929688" style="stroke:rgb(0,0,0);stroke-width:1" x1="172.9108123779297" x2="130.28118896484375" y1="275.5845642089844"/>
<line y2="274.4792175292969" style="stroke:rgb(0,0,0);stroke-width:1" x1="172.9108123779297" x2="128.364990234375" y1="275.5845642089844"/>
<line y2="318.7572326660156" style="stroke:rgb(0,0,0);stroke-width:1" x1="172.9108123779297" x2="150.0954132080078" y1="275.5845642089844"/>
<line y2="274.4792175292969" style="stroke:rgb(0,0,0);stroke-width:1" x1="150.0954132080078" x2="128.364990234375" y1="318.7572326660156"/>
<line y2="320.3641357421875" style="stroke:rgb(0,0,0);stroke-width:1" x1="150.0954132080078" x2="104.72019958496094" y1="318.7572326660156"/>
<line y2="354.70440673828125" style="stroke:rgb(0,0,0);stroke-width:1" x1="150.0954132080078" x2="133.49786376953125" y1="318.7572326660156"/>
<line y2="320.3641357421875" style="stroke:rgb(0,0,0);stroke-width:1" x1="133.49786376953125" x2="104.72019958496094" y1="354.70440673828125"/>
<line y2="320.3641357421875" style="stroke:rgb(0,0,0);stroke-width:1" x1="98.77395629882812" x2="104.72019958496094" y1="373.28729248046875"/>
<line y2="342.7549743652344" style="stroke:rgb(0,0,0);stroke-width:1" x1="98.77395629882812" x2="56.08725357055664" y1="373.28729248046875"/>
<line y2="360.7946472167969" style="stroke:rgb(0,0,0);stroke-width:1" x1="150.0954132080078" x2="179.62490844726562" y1="318.7572326660156"/>
<line y2="320.44732666015625" style="stroke:rgb(0,0,0);stroke-width:1" x1="150.0954132080078" x2="187.5233917236328" y1="318.7572326660156"/>
<line y2="360.7946472167969" style="stroke:rgb(0,0,0);stroke-width:1" x1="187.5233917236328" x2="179.62490844726562" y1="320.44732666015625"/>
<line y2="340.4606628417969" style="stroke:rgb(0,0,0);stroke-width:1" x1="187.5233917236328" x2="223.8220672607422" y1="320.44732666015625"/>
<line y2="296.7238464355469" style="stroke:rgb(0,0,0);stroke-width:1" x1="187.5233917236328" x2="215.50634765625" y1="320.44732666015625"/>
<line y2="340.4606628417969" style="stroke:rgb(0,0,0);stroke-width:1" x1="215.50634765625" x2="223.8220672607422" y1="296.7238464355469"/>
<line y2="294.14923095703125" style="stroke:rgb(0,0,0);stroke-width:1" x1="215.50634765625" x2="252.0078125" y1="296.7238464355469"/>
<line y2="340.4606628417969" style="stroke:rgb(0,0,0);stroke-width:1" x1="252.0078125" x2="223.8220672607422" y1="294.14923095703125"/>
<line y2="332.33856201171875" style="stroke:rgb(0,0,0);stroke-width:1" x1="252.0078125" x2="268.11676025390625" y1="294.14923095703125"/>
<line y2="289.3534851074219" style="stroke:rgb(0,0,0);stroke-width:1" x1="252.0078125" x2="291.32916259765625" y1="294.14923095703125"/>
<line y2="332.33856201171875" style="stroke:rgb(0,0,0);stroke-width:1" x1="291.32916259765625" x2="268.11676025390625" y1="289.3534851074219"/>
<line y2="330.8553771972656" style="stroke:rgb(0,0,0);stroke-width:1" x1="291.32916259765625" x2="308.38189697265625" y1="289.3534851074219"/>
<line y2="291.5499572753906" style="stroke:rgb(0,0,0);stroke-width:1" x1="291.32916259765625" x2="331.38702392578125" y1="289.3534851074219"/>
<line y2="330.8553771972656" style="stroke:rgb(0,0,0);stroke-width:1" x1="331.38702392578125" x2="308.38189697265625" y1="291.5499572753906"/>
<line y2="331.8103942871094" style="stroke:rgb(0,0,0);stroke-width:1" x1="331.38702392578125" x2="349.70489501953125" y1="291.5499572753906"/>
<line y2="296.64959716796875" style="stroke:rgb(0,0,0);stroke-width:1" x1="331.38702392578125" x2="369.978271484375" y1="291.5499572753906"/>
<line y2="331.8103942871094" style="stroke:rgb(0,0,0);stroke-width:1" x1="369.978271484375" x2="349.70489501953125" y1="296.64959716796875"/>
<line y2="335.5131530761719" style="stroke:rgb(0,0,0);stroke-width:1" x1="369.978271484375" x2="387.6565246582031" y1="296.64959716796875"/>
<line y2="287.37750244140625" style="stroke:rgb(0,0,0);stroke-width:1" x1="369.978271484375" x2="400.9382019042969" y1="296.64959716796875"/>
<line y2="335.5131530761719" style="stroke:rgb(0,0,0);stroke-width:1" x1="400.9382019042969" x2="387.6565246582031" y1="287.37750244140625"/>
<line y2="330.22747802734375" style="stroke:rgb(0,0,0);stroke-width:1" x1="400.9382019042969" x2="431.7293701171875" y1="287.37750244140625"/>
<line y2="294.287109375" style="stroke:rgb(0,0,0);stroke-width:1" x1="400.9382019042969" x2="429.4298095703125" y1="287.37750244140625"/>
<line y2="330.22747802734375" style="stroke:rgb(0,0,0);stroke-width:1" x1="429.4298095703125" x2="431.7293701171875" y1="294.287109375"/>
<line y2="290.5173034667969" style="stroke:rgb(0,0,0);stroke-width:1" x1="429.4298095703125" x2="460.2714538574219" y1="294.287109375"/>
<line y2="251.14248657226562" style="stroke:rgb(0,0,0);stroke-width:1" x1="429.4298095703125" x2="430.95001220703125" y1="294.287109375"/>
<line y2="251.14248657226562" style="stroke:rgb(0,0,0);stroke-width:1" x1="400.9382019042969" x2="430.95001220703125" y1="287.37750244140625"/>
<line y2="253.14744567871094" style="stroke:rgb(0,0,0);stroke-width:1" x1="400.9382019042969" x2="386.69171142578125" y1="287.37750244140625"/>
<line y2="251.14248657226562" style="stroke:rgb(0,0,0);stroke-width:1" x1="386.69171142578125" x2="430.95001220703125" y1="253.14744567871094"/>
<line y2="212.03085327148438" style="stroke:rgb(0,0,0);stroke-width:1" x1="386.69171142578125" x2="415.57354736328125" y1="253.14744567871094"/>
<line y2="208.1405792236328" style="stroke:rgb(0,0,0);stroke-width:1" x1="386.69171142578125" x2="369.0438232421875" y1="253.14744567871094"/>
<line y2="251.56700134277344" style="stroke:rgb(0,0,0);stroke-width:1" x1="386.69171142578125" x2="348.1087951660156" y1="253.14744567871094"/>
<line y2="208.1405792236328" style="stroke:rgb(0,0,0);stroke-width:1" x1="348.1087951660156" x2="369.0438232421875" y1="251.56700134277344"/>
<line y2="199.25047302246094" style="stroke:rgb(0,0,0);stroke-width:1" x1="348.1087951660156" x2="334.76385498046875" y1="251.56700134277344"/>
<line y2="242.8920440673828" style="stroke:rgb(0,0,0);stroke-width:1" x1="348.1087951660156" x2="304.44384765625" y1="251.56700134277344"/>
<line y2="199.25047302246094" style="stroke:rgb(0,0,0);stroke-width:1" x1="304.44384765625" x2="334.76385498046875" y1="242.8920440673828"/>
<line y2="193.34519958496094" style="stroke:rgb(0,0,0);stroke-width:1" x1="304.44384765625" x2="286.9767761230469" y1="242.8920440673828"/>
<line y2="233.31007385253906" style="stroke:rgb(0,0,0);stroke-width:1" x1="304.44384765625" x2="259.729248046875" y1="242.8920440673828"/>
<line y2="193.34519958496094" style="stroke:rgb(0,0,0);stroke-width:1" x1="259.729248046875" x2="286.9767761230469" y1="233.31007385253906"/>
<line y2="178.75885009765625" style="stroke:rgb(0,0,0);stroke-width:1" x1="259.729248046875" x2="240.27606201171875" y1="233.31007385253906"/>
<line y2="210.56619262695312" style="stroke:rgb(0,0,0);stroke-width:1" x1="259.729248046875" x2="213.46182250976562" y1="233.31007385253906"/>
<line y2="178.75885009765625" style="stroke:rgb(0,0,0);stroke-width:1" x1="213.46182250976562" x2="240.27606201171875" y1="210.56619262695312"/>
<line y2="176.7102508544922" style="stroke:rgb(0,0,0);stroke-width:1" x1="213.46182250976562" x2="187.59228515625" y1="210.56619262695312"/>
<line y2="178.75885009765625" style="stroke:rgb(0,0,0);stroke-width:1" x1="187.59228515625" x2="240.27606201171875" y1="176.7102508544922"/>
<line y2="214.8218994140625" style="stroke:rgb(0,0,0);stroke-width:1" x1="213.46182250976562" x2="161.71347045898438" y1="210.56619262695312"/>
<line y2="241.3950653076172" style="stroke:rgb(0,0,0);stroke-width:1" x1="213.46182250976562" x2="185.7239227294922" y1="210.56619262695312"/>
<line y2="256.3448791503906" style="stroke:rgb(0,0,0);stroke-width:1" x1="213.46182250976562" x2="226.26766967773438" y1="210.56619262695312"/>
<line y2="241.3950653076172" style="stroke:rgb(0,0,0);stroke-width:1" x1="226.26766967773438" x2="185.7239227294922" y1="256.3448791503906"/>
<line y2="275.5845642089844" style="stroke:rgb(0,0,0);stroke-width:1" x1="226.26766967773438" x2="172.9108123779297" y1="256.3448791503906"/>
<line y2="296.7238464355469" style="stroke:rgb(0,0,0);stroke-width:1" x1="226.26766967773438" x2="215.50634765625" y1="256.3448791503906"/>
<line y2="275.5845642089844" style="stroke:rgb(0,0,0);stroke-width:1" x1="215.50634765625" x2="172.9108123779297" y1="296.7238464355469"/>
<line y2="275.5845642089844" style="stroke:rgb(0,0,0);stroke-width:1" x1="187.5233917236328" x2="172.9108123779297" y1="320.44732666015625"/>
<line y2="294.14923095703125" style="stroke:rgb(0,0,0);stroke-width:1" x1="226.26766967773438" x2="252.0078125" y1="256.3448791503906"/>
<line y2="233.31007385253906" style="stroke:rgb(0,0,0);stroke-width:1" x1="226.26766967773438" x2="259.729248046875" y1="256.3448791503906"/>
<line y2="294.14923095703125" style="stroke:rgb(0,0,0);stroke-width:1" x1="259.729248046875" x2="252.0078125" y1="233.31007385253906"/>
<line y2="289.3534851074219" style="stroke:rgb(0,0,0);stroke-width:1" x1="259.729248046875" x2="291.32916259765625" y1="233.31007385253906"/>
<line y2="289.3534851074219" style="stroke:rgb(0,0,0);stroke-width:1" x1="304.44384765625" x2="291.32916259765625" y1="242.8920440673828"/>
<line y2="291.5499572753906" style="stroke:rgb(0,0,0);stroke-width:1" x1="304.44384765625" x2="331.38702392578125" y1="242.8920440673828"/>
<line y2="291.5499572753906" style="stroke:rgb(0,0,0);stroke-width:1" x1="348.1087951660156" x2="331.38702392578125" y1="251.56700134277344"/>
<line y2="296.64959716796875" style="stroke:rgb(0,0,0);stroke-width:1" x1="348.1087951660156" x2="369.978271484375" y1="251.56700134277344"/>
<line y2="296.64959716796875" style="stroke:rgb(0,0,0);stroke-width:1" x1="386.69171142578125" x2="369.978271484375" y1="253.14744567871094"/>
</svg>
