<?xml version="1.0" encoding="UTF-8"?><svg xmlns="http://www.w3.org/2000/svg" xmlns:xlink="http://www.w3.org/1999/xlink" contentScriptType="text/ecmascript" width="2296.0" zoomAndPan="magnify" contentStyleType="text/css" height="2189.0" preserveAspectRatio="xMidYMid meet" version="1.0">
<line y2="452.1539817263391" style="stroke:rgb(0,0,0);stroke-width:1" x1="-557.4099712371826" x2="-557.4099712371826" y1="401.81793921684454"/>
<line y2="460.683103789503" style="stroke:rgb(0,0,0);stroke-width:1" x1="-557.4099712371826" x2="-301.7224096731509" y1="452.1539817263391"/>
<line y2="449.6471076479635" style="stroke:rgb(0,0,0);stroke-width:1" x1="-301.7224096731509" x2="20.273735597178547" y1="460.683103789503"/>
<line y2="424.3538869195137" style="stroke:rgb(0,0,0);stroke-width:1" x1="20.273735597178547" x2="36.95479310294361" y1="449.6471076479635"/>
<line y2="412.58212477346103" style="stroke:rgb(0,0,0);stroke-width:1" x1="36.95479310294361" x2="31.987755385202405" y1="424.3538869195137"/>
<line y2="389.3001219036554" style="stroke:rgb(0,0,0);stroke-width:1" x1="31.987755385202405" x2="-251.23517300858492" y1="412.58212477346103"/>
<line y2="401.81793921684454" style="stroke:rgb(0,0,0);stroke-width:1" x1="-251.23517300858492" x2="-557.4099712371826" y1="389.3001219036554"/>
<line y2="431.6961011671656" style="stroke:rgb(0,0,0);stroke-width:1" x1="36.95479310294361" x2="56.16670875301285" y1="424.3538869195137"/>
<line y2="416.23270313659725" style="stroke:rgb(0,0,0);stroke-width:1" x1="56.16670875301285" x2="85.31263781122576" y1="431.6961011671656"/>
<line y2="397.79482888115" style="stroke:rgb(0,0,0);stroke-width:1" x1="85.31263781122576" x2="86.05971798174753" y1="416.23270313659725"/>
<line y2="392.7102307559629" style="stroke:rgb(0,0,0);stroke-width:1" x1="86.05971798174753" x2="81.43606524984521" y1="397.79482888115"/>
<line y2="396.80078881733385" style="stroke:rgb(0,0,0);stroke-width:1" x1="81.43606524984521" x2="39.25759074795941" y1="392.7102307559629"/>
<line y2="412.58212477346103" style="stroke:rgb(0,0,0);stroke-width:1" x1="39.25759074795941" x2="31.987755385202405" y1="396.80078881733385"/>
<line y2="401.81793921684454" style="stroke:rgb(0,0,0);stroke-width:1" x1="-557.4099712371826" x2="-557.4099712371826" y1="287.03489527425074"/>
<line y2="373.40731408388194" style="stroke:rgb(0,0,0);stroke-width:1" x1="-251.23517300858492" x2="-99.83446870515746" y1="389.3001219036554"/>
<line y2="342.2376925199801" style="stroke:rgb(0,0,0);stroke-width:1" x1="-99.83446870515746" x2="24.071379102316484" y1="373.40731408388194"/>
<line y2="314.30777629385886" style="stroke:rgb(0,0,0);stroke-width:1" x1="24.071379102316484" x2="24.046281373762234" y1="342.2376925199801"/>
<line y2="294.051834216459" style="stroke:rgb(0,0,0);stroke-width:1" x1="24.046281373762234" x2="-104.6612029678649" y1="314.30777629385886"/>
<line y2="287.03489527425074" style="stroke:rgb(0,0,0);stroke-width:1" x1="-104.6612029678649" x2="-557.4099712371826" y1="294.051834216459"/>
<line y2="298.50501025980935" style="stroke:rgb(0,0,0);stroke-width:1" x1="24.046281373762234" x2="47.79124403628795" y1="314.30777629385886"/>
<line y2="275.9984017893244" style="stroke:rgb(0,0,0);stroke-width:1" x1="47.79124403628795" x2="46.31454294336459" y1="298.50501025980935"/>
<line y2="294.051834216459" style="stroke:rgb(0,0,0);stroke-width:1" x1="46.31454294336459" x2="-104.6612029678649" y1="275.9984017893244"/>
<line y2="287.03489527425074" style="stroke:rgb(0,0,0);stroke-width:1" x1="-557.4099712371826" x2="-557.4099712371826" y1="226.3484153318337"/>
<line y2="275.153301495997" style="stroke:rgb(0,0,0);stroke-width:1" x1="46.31454294336459" x2="46.684674186009616" y1="275.9984017893244"/>
<line y2="245.30087529942824" style="stroke:rgb(0,0,0);stroke-width:1" x1="46.684674186009616" x2="35.23036461692699" y1="275.153301495997"/>
<line y2="226.3484153318337" style="stroke:rgb(0,0,0);stroke-width:1" x1="35.23036461692699" x2="-557.4099712371826" y1="245.30087529942824"/>
<line y2="1094.2270498275757" style="stroke:rgb(0,0,0);stroke-width:1" x1="-557.4099712371826" x2="-557.4099712371826" y1="452.1539817263391"/>
<line y2="1094.2270498275757" style="stroke:rgb(0,0,0);stroke-width:1" x1="-557.4099712371826" x2="-6.383918375969529" y1="1094.2270498275757"/>
<line y2="726.1023246519924" style="stroke:rgb(0,0,0);stroke-width:1" x1="-6.383918375969529" x2="23.244117600944847" y1="1094.2270498275757"/>
<line y2="493.83268463045937" style="stroke:rgb(0,0,0);stroke-width:1" x1="23.244117600944847" x2="26.259561790557708" y1="726.1023246519924"/>
<line y2="460.683103789503" style="stroke:rgb(0,0,0);stroke-width:1" x1="26.259561790557708" x2="-301.7224096731509" y1="493.83268463045937"/>
<line y2="319.1498319850829" style="stroke:rgb(0,0,0);stroke-width:1" x1="47.79124403628795" x2="65.56208264307116" y1="298.50501025980935"/>
<line y2="324.97921797318884" style="stroke:rgb(0,0,0);stroke-width:1" x1="65.56208264307116" x2="82.71499804252213" y1="319.1498319850829"/>
<line y2="301.7919824736608" style="stroke:rgb(0,0,0);stroke-width:1" x1="82.71499804252213" x2="108.83855445105304" y1="324.97921797318884"/>
<line y2="294.97602374402254" style="stroke:rgb(0,0,0);stroke-width:1" x1="108.83855445105304" x2="109.52573029455242" y1="301.7919824736608"/>
<line y2="263.88936685828594" style="stroke:rgb(0,0,0);stroke-width:1" x1="109.52573029455242" x2="84.73136184525917" y1="294.97602374402254"/>
<line y2="275.153301495997" style="stroke:rgb(0,0,0);stroke-width:1" x1="84.73136184525917" x2="46.684674186009616" y1="263.88936685828594"/>
<line y2="226.3484153318337" style="stroke:rgb(0,0,0);stroke-width:1" x1="-557.4099712371826" x2="-557.4099712371826" y1="164.94690057141702"/>
<line y2="214.34527067811558" style="stroke:rgb(0,0,0);stroke-width:1" x1="35.23036461692699" x2="45.403741810799914" y1="245.30087529942824"/>
<line y2="183.96990131045143" style="stroke:rgb(0,0,0);stroke-width:1" x1="45.403741810799914" x2="-143.71058171092272" y1="214.34527067811558"/>
<line y2="164.94690057141702" style="stroke:rgb(0,0,0);stroke-width:1" x1="-143.71058171092272" x2="-557.4099712371826" y1="183.96990131045143"/>
<line y2="86.85529343768509" style="stroke:rgb(0,0,0);stroke-width:1" x1="-557.4099712371826" x2="-557.4099712371826" y1="-558.3338308334351"/>
<line y2="77.00657369400622" style="stroke:rgb(0,0,0);stroke-width:1" x1="-557.4099712371826" x2="-196.1407873044075" y1="86.85529343768509"/>
<line y2="45.461502131975536" style="stroke:rgb(0,0,0);stroke-width:1" x1="-196.1407873044075" x2="30.541178614658605" y1="77.00657369400622"/>
<line y2="28.783657094888927" style="stroke:rgb(0,0,0);stroke-width:1" x1="30.541178614658605" x2="40.36021519649537" y1="45.461502131975536"/>
<line y2="-558.3338308334351" style="stroke:rgb(0,0,0);stroke-width:1" x1="40.36021519649537" x2="-85.86576874424631" y1="28.783657094888927"/>
<line y2="-558.3338308334351" style="stroke:rgb(0,0,0);stroke-width:1" x1="-85.86576874424631" x2="-557.4099712371826" y1="-558.3338308334351"/>
<line y2="-558.3338308334351" style="stroke:rgb(0,0,0);stroke-width:1" x1="88.54500651019848" x2="-85.86576874424631" y1="-558.3338308334351"/>
<line y2="34.89586158648498" style="stroke:rgb(0,0,0);stroke-width:1" x1="40.36021519649537" x2="73.40653411244756" y1="28.783657094888927"/>
<line y2="-21.311191797890714" style="stroke:rgb(0,0,0);stroke-width:1" x1="73.40653411244756" x2="91.64554437547011" y1="34.89586158648498"/>
<line y2="-558.3338308334351" style="stroke:rgb(0,0,0);stroke-width:1" x1="91.64554437547011" x2="88.54500651019848" y1="-21.311191797890714"/>
<line y2="377.76226516400686" style="stroke:rgb(0,0,0);stroke-width:1" x1="39.25759074795941" x2="31.011300663283027" y1="396.80078881733385"/>
<line y2="373.40731408388194" style="stroke:rgb(0,0,0);stroke-width:1" x1="31.011300663283027" x2="-99.83446870515746" y1="377.76226516400686"/>
<line y2="164.94690057141702" style="stroke:rgb(0,0,0);stroke-width:1" x1="-557.4099712371826" x2="-557.4099712371826" y1="121.4222413363774"/>
<line y2="174.17133152130856" style="stroke:rgb(0,0,0);stroke-width:1" x1="-143.71058171092272" x2="27.90743467422309" y1="183.96990131045143"/>
<line y2="157.2782968461305" style="stroke:rgb(0,0,0);stroke-width:1" x1="27.90743467422309" x2="38.61038783887093" y1="174.17133152130856"/>
<line y2="137.09040123625658" style="stroke:rgb(0,0,0);stroke-width:1" x1="38.61038783887093" x2="27.174285494928455" y1="157.2782968461305"/>
<line y2="121.4222413363774" style="stroke:rgb(0,0,0);stroke-width:1" x1="27.174285494928455" x2="-557.4099712371826" y1="137.09040123625658"/>
<line y2="360.0705001233437" style="stroke:rgb(0,0,0);stroke-width:1" x1="31.011300663283027" x2="41.11911348257786" y1="377.76226516400686"/>
<line y2="350.4093322610583" style="stroke:rgb(0,0,0);stroke-width:1" x1="41.11911348257786" x2="38.31949509815076" y1="360.0705001233437"/>
<line y2="342.2376925199801" style="stroke:rgb(0,0,0);stroke-width:1" x1="38.31949509815076" x2="24.071379102316484" y1="350.4093322610583"/>
<line y2="212.09095257406275" style="stroke:rgb(0,0,0);stroke-width:1" x1="45.403741810799914" x2="47.84402889755014" y1="214.34527067811558"/>
<line y2="174.17133152130856" style="stroke:rgb(0,0,0);stroke-width:1" x1="47.84402889755014" x2="27.90743467422309" y1="212.09095257406275"/>
<line y2="488.8421433488961" style="stroke:rgb(0,0,0);stroke-width:1" x1="26.259561790557708" x2="35.46755257636168" y1="493.83268463045937"/>
<line y2="469.0683775356253" style="stroke:rgb(0,0,0);stroke-width:1" x1="35.46755257636168" x2="39.43770426647147" y1="488.8421433488961"/>
<line y2="449.6471076479635" style="stroke:rgb(0,0,0);stroke-width:1" x1="39.43770426647147" x2="20.273735597178547" y1="469.0683775356253"/>
<line y2="500.88639250280954" style="stroke:rgb(0,0,0);stroke-width:1" x1="23.244117600944847" x2="56.27207401193133" y1="726.1023246519924"/>
<line y2="488.8421433488961" style="stroke:rgb(0,0,0);stroke-width:1" x1="56.27207401193133" x2="35.46755257636168" y1="500.88639250280954"/>
<line y2="157.53543147184465" style="stroke:rgb(0,0,0);stroke-width:1" x1="38.61038783887093" x2="60.19438055381963" y1="157.2782968461305"/>
<line y2="145.925658932771" style="stroke:rgb(0,0,0);stroke-width:1" x1="60.19438055381963" x2="69.33924214811577" y1="157.53543147184465"/>
<line y2="117.1175679404536" style="stroke:rgb(0,0,0);stroke-width:1" x1="69.33924214811577" x2="62.413555737312606" y1="145.925658932771"/>
<line y2="116.03923676397795" style="stroke:rgb(0,0,0);stroke-width:1" x1="62.413555737312606" x2="40.6950730110314" y1="117.1175679404536"/>
<line y2="137.09040123625658" style="stroke:rgb(0,0,0);stroke-width:1" x1="40.6950730110314" x2="27.174285494928455" y1="116.03923676397795"/>
<line y2="121.4222413363774" style="stroke:rgb(0,0,0);stroke-width:1" x1="-557.4099712371826" x2="-557.4099712371826" y1="86.85529343768509"/>
<line y2="93.72255587642846" style="stroke:rgb(0,0,0);stroke-width:1" x1="40.6950730110314" x2="26.38049765820487" y1="116.03923676397795"/>
<line y2="77.00657369400622" style="stroke:rgb(0,0,0);stroke-width:1" x1="26.38049765820487" x2="-196.1407873044075" y1="93.72255587642846"/>
<line y2="459.1463065670732" style="stroke:rgb(0,0,0);stroke-width:1" x1="39.43770426647147" x2="58.17818813923756" y1="469.0683775356253"/>
<line y2="431.6961011671656" style="stroke:rgb(0,0,0);stroke-width:1" x1="58.17818813923756" x2="56.16670875301285" y1="459.1463065670732"/>
<line y2="248.54972809041908" style="stroke:rgb(0,0,0);stroke-width:1" x1="84.73136184525917" x2="91.51088643274542" y1="263.88936685828594"/>
<line y2="205.79444596539298" style="stroke:rgb(0,0,0);stroke-width:1" x1="91.51088643274542" x2="74.49802975660677" y1="248.54972809041908"/>
<line y2="212.09095257406275" style="stroke:rgb(0,0,0);stroke-width:1" x1="74.49802975660677" x2="47.84402889755014" y1="205.79444596539298"/>
<line y2="369.2243159096886" style="stroke:rgb(0,0,0);stroke-width:1" x1="81.43606524984521" x2="76.29337354383603" y1="392.7102307559629"/>
<line y2="360.0705001233437" style="stroke:rgb(0,0,0);stroke-width:1" x1="76.29337354383603" x2="41.11911348257786" y1="369.2243159096886"/>
<line y2="319.1498319850829" style="stroke:rgb(0,0,0);stroke-width:1" x1="38.31949509815076" x2="65.56208264307116" y1="350.4093322610583"/>
<line y2="201.31198154935115" style="stroke:rgb(0,0,0);stroke-width:1" x1="74.49802975660677" x2="78.24111302985293" y1="205.79444596539298"/>
<line y2="157.53543147184465" style="stroke:rgb(0,0,0);stroke-width:1" x1="78.24111302985293" x2="60.19438055381963" y1="201.31198154935115"/>
<line y2="111.08268002961918" style="stroke:rgb(0,0,0);stroke-width:1" x1="62.413555737312606" x2="68.8779989628498" y1="117.1175679404536"/>
<line y2="74.06890392805911" style="stroke:rgb(0,0,0);stroke-width:1" x1="68.8779989628498" x2="71.87333348900623" y1="111.08268002961918"/>
<line y2="71.55903175726085" style="stroke:rgb(0,0,0);stroke-width:1" x1="71.87333348900623" x2="45.38162641397354" y1="74.06890392805911"/>
<line y2="93.72255587642846" style="stroke:rgb(0,0,0);stroke-width:1" x1="45.38162641397354" x2="26.38049765820487" y1="71.55903175726085"/>
<line y2="45.461502131975536" style="stroke:rgb(0,0,0);stroke-width:1" x1="45.38162641397354" x2="30.541178614658605" y1="71.55903175726085"/>
<line y2="343.5988893810394" style="stroke:rgb(0,0,0);stroke-width:1" x1="76.29337354383603" x2="88.23269650321312" y1="369.2243159096886"/>
<line y2="324.97921797318884" style="stroke:rgb(0,0,0);stroke-width:1" x1="88.23269650321312" x2="82.71499804252213" y1="343.5988893810394"/>
<line y2="1094.2270498275757" style="stroke:rgb(0,0,0);stroke-width:1" x1="-6.383918375969529" x2="38.0778301897696" y1="1094.2270498275757"/>
<line y2="509.84791354808607" style="stroke:rgb(0,0,0);stroke-width:1" x1="38.0778301897696" x2="86.52869358580868" y1="1094.2270498275757"/>
<line y2="497.65190184649117" style="stroke:rgb(0,0,0);stroke-width:1" x1="86.52869358580868" x2="71.26549720976391" y1="509.84791354808607"/>
<line y2="500.88639250280954" style="stroke:rgb(0,0,0);stroke-width:1" x1="71.26549720976391" x2="56.27207401193133" y1="497.65190184649117"/>
<line y2="467.1558727857259" style="stroke:rgb(0,0,0);stroke-width:1" x1="71.26549720976391" x2="81.11511181497058" y1="497.65190184649117"/>
<line y2="459.1463065670732" style="stroke:rgb(0,0,0);stroke-width:1" x1="81.11511181497058" x2="58.17818813923756" y1="467.1558727857259"/>
<line y2="147.77679677134788" style="stroke:rgb(0,0,0);stroke-width:1" x1="69.33924214811577" x2="113.4351341650304" y1="145.925658932771"/>
<line y2="118.81188459166918" style="stroke:rgb(0,0,0);stroke-width:1" x1="113.4351341650304" x2="115.36735992046727" y1="147.77679677134788"/>
<line y2="111.08268002961918" style="stroke:rgb(0,0,0);stroke-width:1" x1="115.36735992046727" x2="68.8779989628498" y1="118.81188459166918"/>
<line y2="66.40659957543386" style="stroke:rgb(0,0,0);stroke-width:1" x1="71.87333348900623" x2="83.31344426016567" y1="74.06890392805911"/>
<line y2="56.19500523951883" style="stroke:rgb(0,0,0);stroke-width:1" x1="83.31344426016567" x2="86.68609743353434" y1="66.40659957543386"/>
<line y2="34.89586158648498" style="stroke:rgb(0,0,0);stroke-width:1" x1="86.68609743353434" x2="73.40653411244756" y1="56.19500523951883"/>
<line y2="195.7663069785916" style="stroke:rgb(0,0,0);stroke-width:1" x1="78.24111302985293" x2="91.91147589068277" y1="201.31198154935115"/>
<line y2="152.071227471732" style="stroke:rgb(0,0,0);stroke-width:1" x1="91.91147589068277" x2="115.44270045426417" y1="195.7663069785916"/>
<line y2="147.77679677134788" style="stroke:rgb(0,0,0);stroke-width:1" x1="115.44270045426417" x2="113.4351341650304" y1="152.071227471732"/>
<line y2="389.4770209143526" style="stroke:rgb(0,0,0);stroke-width:1" x1="86.05971798174753" x2="114.78685445886471" y1="397.79482888115"/>
<line y2="359.3184810700278" style="stroke:rgb(0,0,0);stroke-width:1" x1="114.78685445886471" x2="132.51239635939402" y1="389.4770209143526"/>
<line y2="358.1227831877495" style="stroke:rgb(0,0,0);stroke-width:1" x1="132.51239635939402" x2="131.843172962139" y1="359.3184810700278"/>
<line y2="343.5988893810394" style="stroke:rgb(0,0,0);stroke-width:1" x1="131.843172962139" x2="88.23269650321312" y1="358.1227831877495"/>
<line y2="466.2004645749979" style="stroke:rgb(0,0,0);stroke-width:1" x1="81.11511181497058" x2="83.48886324983914" y1="467.1558727857259"/>
<line y2="436.0021542739166" style="stroke:rgb(0,0,0);stroke-width:1" x1="83.48886324983914" x2="98.98917670409912" y1="466.2004645749979"/>
<line y2="416.23270313659725" style="stroke:rgb(0,0,0);stroke-width:1" x1="98.98917670409912" x2="85.31263781122576" y1="436.0021542739166"/>
<line y2="-558.3338308334351" style="stroke:rgb(0,0,0);stroke-width:1" x1="173.48835238365814" x2="105.23191009108591" y1="-558.3338308334351"/>
<line y2="19.672712585964423" style="stroke:rgb(0,0,0);stroke-width:1" x1="105.23191009108591" x2="138.22160073143718" y1="-558.3338308334351"/>
<line y2="32.18585571599067" style="stroke:rgb(0,0,0);stroke-width:1" x1="138.22160073143718" x2="163.7793647543631" y1="19.672712585964423"/>
<line y2="28.34848393257281" style="stroke:rgb(0,0,0);stroke-width:1" x1="163.7793647543631" x2="166.8267008582115" y1="32.18585571599067"/>
<line y2="-480.0896505130338" style="stroke:rgb(0,0,0);stroke-width:1" x1="166.8267008582115" x2="174.36106367267638" y1="28.34848393257281"/>
<line y2="-558.3338308334351" style="stroke:rgb(0,0,0);stroke-width:1" x1="174.36106367267638" x2="173.48835238365814" y1="-480.0896505130338"/>
<line y2="242.89966354910035" style="stroke:rgb(0,0,0);stroke-width:1" x1="91.51088643274542" x2="125.00651548272513" y1="248.54972809041908"/>
<line y2="222.78877125782867" style="stroke:rgb(0,0,0);stroke-width:1" x1="125.00651548272513" x2="132.23330751296243" y1="242.89966354910035"/>
<line y2="209.9675992523995" style="stroke:rgb(0,0,0);stroke-width:1" x1="132.23330751296243" x2="124.91505821797111" y1="222.78877125782867"/>
<line y2="195.7663069785916" style="stroke:rgb(0,0,0);stroke-width:1" x1="124.91505821797111" x2="91.91147589068277" y1="209.9675992523995"/>
<line y2="1094.2270498275757" style="stroke:rgb(0,0,0);stroke-width:1" x1="38.0778301897696" x2="77.14587398762393" y1="1094.2270498275757"/>
<line y2="513.4707775789069" style="stroke:rgb(0,0,0);stroke-width:1" x1="77.14587398762393" x2="120.89609565107402" y1="1094.2270498275757"/>
<line y2="501.64668966538375" style="stroke:rgb(0,0,0);stroke-width:1" x1="120.89609565107402" x2="107.4737624909354" y1="513.4707775789069"/>
<line y2="509.84791354808607" style="stroke:rgb(0,0,0);stroke-width:1" x1="107.4737624909354" x2="86.52869358580868" y1="501.64668966538375"/>
<line y2="482.6598127078026" style="stroke:rgb(0,0,0);stroke-width:1" x1="107.4737624909354" x2="110.12565858052403" y1="501.64668966538375"/>
<line y2="466.2004645749979" style="stroke:rgb(0,0,0);stroke-width:1" x1="110.12565858052403" x2="83.48886324983914" y1="482.6598127078026"/>
<line y2="441.6692914612471" style="stroke:rgb(0,0,0);stroke-width:1" x1="98.98917670409912" x2="134.72719602268728" y1="436.0021542739166"/>
<line y2="437.2987034038009" style="stroke:rgb(0,0,0);stroke-width:1" x1="134.72719602268728" x2="142.4303629785592" y1="441.6692914612471"/>
<line y2="423.5550539855513" style="stroke:rgb(0,0,0);stroke-width:1" x1="142.4303629785592" x2="149.67920765232455" y1="437.2987034038009"/>
<line y2="389.4770209143526" style="stroke:rgb(0,0,0);stroke-width:1" x1="149.67920765232455" x2="114.78685445886471" y1="423.5550539855513"/>
<line y2="322.90642628899343" style="stroke:rgb(0,0,0);stroke-width:1" x1="131.843172962139" x2="137.04177895694204" y1="358.1227831877495"/>
<line y2="301.7919824736608" style="stroke:rgb(0,0,0);stroke-width:1" x1="137.04177895694204" x2="108.83855445105304" y1="322.90642628899343"/>
<line y2="104.33068948310235" style="stroke:rgb(0,0,0);stroke-width:1" x1="115.36735992046727" x2="124.35125115878881" y1="118.81188459166918"/>
<line y2="104.24021440890289" style="stroke:rgb(0,0,0);stroke-width:1" x1="124.35125115878881" x2="124.3424900330106" y1="104.33068948310235"/>
<line y2="66.40659957543386" style="stroke:rgb(0,0,0);stroke-width:1" x1="124.3424900330106" x2="83.31344426016567" y1="104.24021440890289"/>
<line y2="163.52012844446108" style="stroke:rgb(0,0,0);stroke-width:1" x1="115.44270045426417" x2="143.76867635673693" y1="152.071227471732"/>
<line y2="146.43619038130996" style="stroke:rgb(0,0,0);stroke-width:1" x1="143.76867635673693" x2="165.99656290741433" y1="163.52012844446108"/>
<line y2="117.29066867287713" style="stroke:rgb(0,0,0);stroke-width:1" x1="165.99656290741433" x2="167.43729496770857" y1="146.43619038130996"/>
<line y2="104.33068948310235" style="stroke:rgb(0,0,0);stroke-width:1" x1="167.43729496770857" x2="124.35125115878881" y1="117.29066867287713"/>
<line y2="269.51170029758487" style="stroke:rgb(0,0,0);stroke-width:1" x1="109.52573029455242" x2="142.7671230944122" y1="294.97602374402254"/>
<line y2="242.89966354910035" style="stroke:rgb(0,0,0);stroke-width:1" x1="142.7671230944122" x2="125.00651548272513" y1="269.51170029758487"/>
<line y2="41.83916810743666" style="stroke:rgb(0,0,0);stroke-width:1" x1="86.68609743353434" x2="115.94245880182075" y1="56.19500523951883"/>
<line y2="41.178902437496745" style="stroke:rgb(0,0,0);stroke-width:1" x1="115.94245880182075" x2="116.09218046758477" y1="41.83916810743666"/>
<line y2="-21.311191797890714" style="stroke:rgb(0,0,0);stroke-width:1" x1="116.09218046758477" x2="91.64554437547011" y1="41.178902437496745"/>
<line y2="473.1217834927398" style="stroke:rgb(0,0,0);stroke-width:1" x1="110.12565858052403" x2="127.01880439548896" y1="482.6598127078026"/>
<line y2="441.6692914612471" style="stroke:rgb(0,0,0);stroke-width:1" x1="127.01880439548896" x2="134.72719602268728" y1="473.1217834927398"/>
<line y2="-558.3338308334351" style="stroke:rgb(0,0,0);stroke-width:1" x1="105.23191009108591" x2="88.54500651019848" y1="-558.3338308334351"/>
<line y2="19.672712585964423" style="stroke:rgb(0,0,0);stroke-width:1" x1="116.09218046758477" x2="138.22160073143718" y1="41.178902437496745"/>
<line y2="65.68162529773245" style="stroke:rgb(0,0,0);stroke-width:1" x1="124.3424900330106" x2="144.62456448749313" y1="104.24021440890289"/>
<line y2="41.83916810743666" style="stroke:rgb(0,0,0);stroke-width:1" x1="144.62456448749313" x2="115.94245880182075" y1="65.68162529773245"/>
<line y2="1094.2270498275757" style="stroke:rgb(0,0,0);stroke-width:1" x1="77.14587398762393" x2="190.64014010064776" y1="1094.2270498275757"/>
<line y2="540.0877210148801" style="stroke:rgb(0,0,0);stroke-width:1" x1="190.64014010064776" x2="161.91796366677687" y1="1094.2270498275757"/>
<line y2="505.57673546685197" style="stroke:rgb(0,0,0);stroke-width:1" x1="161.91796366677687" x2="142.57429287746837" y1="540.0877210148801"/>
<line y2="513.4707775789069" style="stroke:rgb(0,0,0);stroke-width:1" x1="142.57429287746837" x2="120.89609565107402" y1="505.57673546685197"/>
<line y2="177.14643306976654" style="stroke:rgb(0,0,0);stroke-width:1" x1="124.91505821797111" x2="148.48117847473617" y1="209.9675992523995"/>
<line y2="163.52012844446108" style="stroke:rgb(0,0,0);stroke-width:1" x1="148.48117847473617" x2="143.76867635673693" y1="177.14643306976654"/>
<line y2="493.6260314727661" style="stroke:rgb(0,0,0);stroke-width:1" x1="142.57429287746837" x2="147.97115065964027" y1="505.57673546685197"/>
<line y2="473.1217834927398" style="stroke:rgb(0,0,0);stroke-width:1" x1="147.97115065964027" x2="127.01880439548896" y1="493.6260314727661"/>
<line y2="311.97808404766613" style="stroke:rgb(0,0,0);stroke-width:1" x1="137.04177895694204" x2="164.2023686166687" y1="322.90642628899343"/>
<line y2="304.7459653489273" style="stroke:rgb(0,0,0);stroke-width:1" x1="164.2023686166687" x2="167.01403627173573" y1="311.97808404766613"/>
<line y2="269.8319829282584" style="stroke:rgb(0,0,0);stroke-width:1" x1="167.01403627173573" x2="144.674163242349" y1="304.7459653489273"/>
<line y2="269.51170029758487" style="stroke:rgb(0,0,0);stroke-width:1" x1="144.674163242349" x2="142.7671230944122" y1="269.8319829282584"/>
<line y2="221.29209058078416" style="stroke:rgb(0,0,0);stroke-width:1" x1="132.23330751296243" x2="161.8542648066413" y1="222.78877125782867"/>
<line y2="190.1299546958293" style="stroke:rgb(0,0,0);stroke-width:1" x1="161.8542648066413" x2="165.52742400455435" y1="221.29209058078416"/>
<line y2="177.14643306976654" style="stroke:rgb(0,0,0);stroke-width:1" x1="165.52742400455435" x2="148.48117847473617" y1="190.1299546958293"/>
<line y2="419.5403963957219" style="stroke:rgb(0,0,0);stroke-width:1" x1="149.67920765232455" x2="155.68187517676066" y1="423.5550539855513"/>
<line y2="399.7561756181915" style="stroke:rgb(0,0,0);stroke-width:1" x1="155.68187517676066" x2="163.84321914967367" y1="419.5403963957219"/>
<line y2="361.94323758004305" style="stroke:rgb(0,0,0);stroke-width:1" x1="163.84321914967367" x2="140.6147997889198" y1="399.7561756181915"/>
<line y2="359.3184810700278" style="stroke:rgb(0,0,0);stroke-width:1" x1="140.6147997889198" x2="132.51239635939402" y1="361.94323758004305"/>
<line y2="60.3775568678591" style="stroke:rgb(0,0,0);stroke-width:1" x1="144.62456448749313" x2="163.3435597486581" y1="65.68162529773245"/>
<line y2="32.18585571599067" style="stroke:rgb(0,0,0);stroke-width:1" x1="163.3435597486581" x2="163.7793647543631" y1="60.3775568678591"/>
<line y2="488.52257119675886" style="stroke:rgb(0,0,0);stroke-width:1" x1="147.97115065964027" x2="163.92034685025962" y1="493.6260314727661"/>
<line y2="465.4461196100251" style="stroke:rgb(0,0,0);stroke-width:1" x1="163.92034685025962" x2="168.707985308469" y1="488.52257119675886"/>
<line y2="437.2987034038009" style="stroke:rgb(0,0,0);stroke-width:1" x1="168.707985308469" x2="142.4303629785592" y1="465.4461196100251"/>
<line y2="351.04544901040265" style="stroke:rgb(0,0,0);stroke-width:1" x1="140.6147997889198" x2="177.4343183507889" y1="361.94323758004305"/>
<line y2="342.58739810221897" style="stroke:rgb(0,0,0);stroke-width:1" x1="177.4343183507889" x2="181.42349318554028" y1="351.04544901040265"/>
<line y2="311.97808404766613" style="stroke:rgb(0,0,0);stroke-width:1" x1="181.42349318554028" x2="164.2023686166687" y1="342.58739810221897"/>
<line y2="500.6038760903954" style="stroke:rgb(0,0,0);stroke-width:1" x1="161.91796366677687" x2="180.11848583780878" y1="540.0877210148801"/>
<line y2="488.52257119675886" style="stroke:rgb(0,0,0);stroke-width:1" x1="180.11848583780878" x2="163.92034685025962" y1="500.6038760903954"/>
<line y2="254.59015696390014" style="stroke:rgb(0,0,0);stroke-width:1" x1="144.674163242349" x2="168.44603383673697" y1="269.8319829282584"/>
<line y2="228.5457630253239" style="stroke:rgb(0,0,0);stroke-width:1" x1="168.44603383673697" x2="169.99661851884258" y1="254.59015696390014"/>
<line y2="221.29209058078416" style="stroke:rgb(0,0,0);stroke-width:1" x1="169.99661851884258" x2="161.8542648066413" y1="228.5457630253239"/>
<line y2="457.7166250973224" style="stroke:rgb(0,0,0);stroke-width:1" x1="168.707985308469" x2="203.53251124016904" y1="465.4461196100251"/>
<line y2="435.86456247337105" style="stroke:rgb(0,0,0);stroke-width:1" x1="203.53251124016904" x2="206.9131719532251" y1="457.7166250973224"/>
<line y2="419.5403963957219" style="stroke:rgb(0,0,0);stroke-width:1" x1="206.9131719532251" x2="155.68187517676066" y1="435.86456247337105"/>
<line y2="114.43614609249423" style="stroke:rgb(0,0,0);stroke-width:1" x1="167.43729496770857" x2="171.74899791472606" y1="117.29066867287713"/>
<line y2="71.21761494382393" style="stroke:rgb(0,0,0);stroke-width:1" x1="171.74899791472606" x2="185.09998762758173" y1="114.43614609249423"/>
<line y2="70.88046507280185" style="stroke:rgb(0,0,0);stroke-width:1" x1="185.09998762758173" x2="184.95301022720662" y1="71.21761494382393"/>
<line y2="60.3775568678591" style="stroke:rgb(0,0,0);stroke-width:1" x1="184.95301022720662" x2="163.3435597486581" y1="70.88046507280185"/>
<line y2="184.51097493156743" style="stroke:rgb(0,0,0);stroke-width:1" x1="165.52742400455435" x2="195.64229565090878" y1="190.1299546958293"/>
<line y2="158.47498305856706" style="stroke:rgb(0,0,0);stroke-width:1" x1="195.64229565090878" x2="193.9982347403182" y1="184.51097493156743"/>
<line y2="146.43619038130996" style="stroke:rgb(0,0,0);stroke-width:1" x1="193.9982347403182" x2="165.99656290741433" y1="158.47498305856706"/>
<line y2="293.6330128584587" style="stroke:rgb(0,0,0);stroke-width:1" x1="167.01403627173573" x2="191.9272866949339" y1="304.7459653489273"/>
<line y2="268.35451571188304" style="stroke:rgb(0,0,0);stroke-width:1" x1="191.9272866949339" x2="197.74833593751447" y1="293.6330128584587"/>
<line y2="254.59015696390014" style="stroke:rgb(0,0,0);stroke-width:1" x1="197.74833593751447" x2="168.44603383673697" y1="268.35451571188304"/>
<line y2="-558.3338308334351" style="stroke:rgb(0,0,0);stroke-width:1" x1="270.3538679132054" x2="204.45206805574088" y1="-558.3338308334351"/>
<line y2="-150.8531303447378" style="stroke:rgb(0,0,0);stroke-width:1" x1="204.45206805574088" x2="223.2117208533398" y1="-558.3338308334351"/>
<line y2="18.750288900007106" style="stroke:rgb(0,0,0);stroke-width:1" x1="223.2117208533398" x2="244.3362772022281" y1="-150.8531303447378"/>
<line y2="22.72838346879547" style="stroke:rgb(0,0,0);stroke-width:1" x1="244.3362772022281" x2="268.15938177655374" y1="18.750288900007106"/>
<line y2="-558.3338308334351" style="stroke:rgb(0,0,0);stroke-width:1" x1="268.15938177655374" x2="270.3538679132054" y1="22.72838346879547"/>
<line y2="383.85088162941565" style="stroke:rgb(0,0,0);stroke-width:1" x1="163.84321914967367" x2="190.29398189586328" y1="399.7561756181915"/>
<line y2="351.04544901040265" style="stroke:rgb(0,0,0);stroke-width:1" x1="190.29398189586328" x2="177.4343183507889" y1="383.85088162941565"/>
<line y2="222.09892321296294" style="stroke:rgb(0,0,0);stroke-width:1" x1="169.99661851884258" x2="196.68583438953664" y1="228.5457630253239"/>
<line y2="185.11906009289345" style="stroke:rgb(0,0,0);stroke-width:1" x1="196.68583438953664" x2="196.3167133239687" y1="222.09892321296294"/>
<line y2="184.51097493156743" style="stroke:rgb(0,0,0);stroke-width:1" x1="196.3167133239687" x2="195.64229565090878" y1="185.11906009289345"/>
<line y2="335.96805666042167" style="stroke:rgb(0,0,0);stroke-width:1" x1="181.42349318554028" x2="209.66285391659056" y1="342.58739810221897"/>
<line y2="318.849571787141" style="stroke:rgb(0,0,0);stroke-width:1" x1="209.66285391659056" x2="218.71859901728132" y1="335.96805666042167"/>
<line y2="314.3762465861276" style="stroke:rgb(0,0,0);stroke-width:1" x1="218.71859901728132" x2="217.85360895778607" y1="318.849571787141"/>
<line y2="293.6330128584587" style="stroke:rgb(0,0,0);stroke-width:1" x1="217.85360895778607" x2="191.9272866949339" y1="314.3762465861276"/>
<line y2="53.41492987601086" style="stroke:rgb(0,0,0);stroke-width:1" x1="184.95301022720662" x2="199.6988906194267" y1="70.88046507280185"/>
<line y2="28.368995900576245" style="stroke:rgb(0,0,0);stroke-width:1" x1="199.6988906194267" x2="199.4872718475046" y1="53.41492987601086"/>
<line y2="23.00311563004699" style="stroke:rgb(0,0,0);stroke-width:1" x1="199.4872718475046" x2="193.06936395553066" y1="28.368995900576245"/>
<line y2="28.34848393257281" style="stroke:rgb(0,0,0);stroke-width:1" x1="193.06936395553066" x2="166.8267008582115" y1="23.00311563004699"/>
<line y2="142.99947231336884" style="stroke:rgb(0,0,0);stroke-width:1" x1="193.9982347403182" x2="210.73506886002036" y1="158.47498305856706"/>
<line y2="123.06927299692974" style="stroke:rgb(0,0,0);stroke-width:1" x1="210.73506886002036" x2="205.96710494659223" y1="142.99947231336884"/>
<line y2="114.43614609249423" style="stroke:rgb(0,0,0);stroke-width:1" x1="205.96710494659223" x2="171.74899791472606" y1="123.06927299692974"/>
<line y2="1094.2270498275757" style="stroke:rgb(0,0,0);stroke-width:1" x1="190.64014010064776" x2="200.9960800834332" y1="1094.2270498275757"/>
<line y2="514.2404968428644" style="stroke:rgb(0,0,0);stroke-width:1" x1="200.9960800834332" x2="201.090054535763" y1="1094.2270498275757"/>
<line y2="500.51656074700173" style="stroke:rgb(0,0,0);stroke-width:1" x1="201.090054535763" x2="185.7719806291882" y1="514.2404968428644"/>
<line y2="500.6038760903954" style="stroke:rgb(0,0,0);stroke-width:1" x1="185.7719806291882" x2="180.11848583780878" y1="500.51656074700173"/>
<line y2="429.88100530698784" style="stroke:rgb(0,0,0);stroke-width:1" x1="206.9131719532251" x2="212.946737798101" y1="435.86456247337105"/>
<line y2="390.25155869658244" style="stroke:rgb(0,0,0);stroke-width:1" x1="212.946737798101" x2="215.97442239774648" y1="429.88100530698784"/>
<line y2="383.85088162941565" style="stroke:rgb(0,0,0);stroke-width:1" x1="215.97442239774648" x2="190.29398189586328" y1="390.25155869658244"/>
<line y2="264.34338609897014" style="stroke:rgb(0,0,0);stroke-width:1" x1="197.74833593751447" x2="204.2352273470096" y1="268.35451571188304"/>
<line y2="230.19237622839347" style="stroke:rgb(0,0,0);stroke-width:1" x1="204.2352273470096" x2="209.07693973671525" y1="264.34338609897014"/>
<line y2="222.09892321296294" style="stroke:rgb(0,0,0);stroke-width:1" x1="209.07693973671525" x2="196.68583438953664" y1="230.19237622839347"/>
<line y2="470.19349199198587" style="stroke:rgb(0,0,0);stroke-width:1" x1="185.7719806291882" x2="209.95386186062962" y1="500.51656074700173"/>
<line y2="457.7166250973224" style="stroke:rgb(0,0,0);stroke-width:1" x1="209.95386186062962" x2="203.53251124016904" y1="470.19349199198587"/>
<line y2="387.2331187316809" style="stroke:rgb(0,0,0);stroke-width:1" x1="215.97442239774648" x2="220.1302811552996" y1="390.25155869658244"/>
<line y2="367.316926695017" style="stroke:rgb(0,0,0);stroke-width:1" x1="220.1302811552996" x2="226.72207652597152" y1="387.2331187316809"/>
<line y2="335.96805666042167" style="stroke:rgb(0,0,0);stroke-width:1" x1="226.72207652597152" x2="209.66285391659056" y1="367.316926695017"/>
<line y2="-558.3338308334351" style="stroke:rgb(0,0,0);stroke-width:1" x1="204.45206805574088" x2="173.48835238365814" y1="-558.3338308334351"/>
<line y2="23.00311563004699" style="stroke:rgb(0,0,0);stroke-width:1" x1="174.36106367267638" x2="193.06936395553066" y1="-480.0896505130338"/>
<line y2="21.679624355762762" style="stroke:rgb(0,0,0);stroke-width:1" x1="199.4872718475046" x2="217.98861897696557" y1="28.368995900576245"/>
<line y2="-150.8531303447378" style="stroke:rgb(0,0,0);stroke-width:1" x1="217.98861897696557" x2="223.2117208533398" y1="21.679624355762762"/>
<line y2="187.61439048542903" style="stroke:rgb(0,0,0);stroke-width:1" x1="196.3167133239687" x2="228.19979316937176" y1="185.11906009289345"/>
<line y2="180.84215128538725" style="stroke:rgb(0,0,0);stroke-width:1" x1="228.19979316937176" x2="235.12276958461777" y1="187.61439048542903"/>
<line y2="150.8344756727698" style="stroke:rgb(0,0,0);stroke-width:1" x1="235.12276958461777" x2="237.25151908436396" y1="180.84215128538725"/>
<line y2="142.99947231336884" style="stroke:rgb(0,0,0);stroke-width:1" x1="237.25151908436396" x2="210.73506886002036" y1="150.8344756727698"/>
<line y2="50.54267170494706" style="stroke:rgb(0,0,0);stroke-width:1" x1="199.6988906194267" x2="220.76741320405947" y1="53.41492987601086"/>
<line y2="30.538801772840774" style="stroke:rgb(0,0,0);stroke-width:1" x1="220.76741320405947" x2="230.64356632743784" y1="50.54267170494706"/>
<line y2="21.679624355762762" style="stroke:rgb(0,0,0);stroke-width:1" x1="230.64356632743784" x2="217.98861897696557" y1="30.538801772840774"/>
<line y2="1094.2270498275757" style="stroke:rgb(0,0,0);stroke-width:1" x1="200.9960800834332" x2="208.40234899115677" y1="1094.2270498275757"/>
<line y2="499.9741159435225" style="stroke:rgb(0,0,0);stroke-width:1" x1="208.40234899115677" x2="233.22653074646624" y1="1094.2270498275757"/>
<line y2="514.2404968428644" style="stroke:rgb(0,0,0);stroke-width:1" x1="233.22653074646624" x2="201.090054535763" y1="499.9741159435225"/>
<line y2="1094.2270498275757" style="stroke:rgb(0,0,0);stroke-width:1" x1="208.40234899115677" x2="223.8667207384634" y1="1094.2270498275757"/>
<line y2="493.6009288416184" style="stroke:rgb(0,0,0);stroke-width:1" x1="223.8667207384634" x2="270.00128934981575" y1="1094.2270498275757"/>
<line y2="485.5586787875958" style="stroke:rgb(0,0,0);stroke-width:1" x1="270.00128934981575" x2="254.56072219272684" y1="493.6009288416184"/>
<line y2="488.6629387867274" style="stroke:rgb(0,0,0);stroke-width:1" x1="254.56072219272684" x2="240.28491646133378" y1="485.5586787875958"/>
<line y2="499.9741159435225" style="stroke:rgb(0,0,0);stroke-width:1" x1="240.28491646133378" x2="233.22653074646624" y1="488.6629387867274"/>
<line y2="488.6629387867274" style="stroke:rgb(0,0,0);stroke-width:1" x1="209.95386186062962" x2="240.28491646133378" y1="470.19349199198587"/>
<line y2="438.55665811803823" style="stroke:rgb(0,0,0);stroke-width:1" x1="254.56072219272684" x2="258.03418024490446" y1="485.5586787875958"/>
<line y2="429.88100530698784" style="stroke:rgb(0,0,0);stroke-width:1" x1="258.03418024490446" x2="212.946737798101" y1="438.55665811803823"/>
<line y2="95.3512796839604" style="stroke:rgb(0,0,0);stroke-width:1" x1="205.96710494659223" x2="225.56399955938434" y1="123.06927299692974"/>
<line y2="71.21761494382393" style="stroke:rgb(0,0,0);stroke-width:1" x1="225.56399955938434" x2="185.09998762758173" y1="95.3512796839604"/>
<line y2="286.3628279638981" style="stroke:rgb(0,0,0);stroke-width:1" x1="217.85360895778607" x2="238.77067724364016" y1="314.3762465861276"/>
<line y2="270.94409862930667" style="stroke:rgb(0,0,0);stroke-width:1" x1="238.77067724364016" x2="233.90174588401288" y1="286.3628279638981"/>
<line y2="264.34338609897014" style="stroke:rgb(0,0,0);stroke-width:1" x1="233.90174588401288" x2="204.2352273470096" y1="270.94409862930667"/>
<line y2="223.09532135902833" style="stroke:rgb(0,0,0);stroke-width:1" x1="209.07693973671525" x2="234.40926173740473" y1="230.19237622839347"/>
<line y2="187.61439048542903" style="stroke:rgb(0,0,0);stroke-width:1" x1="234.40926173740473" x2="228.19979316937176" y1="223.09532135902833"/>
<line y2="93.50339332625913" style="stroke:rgb(0,0,0);stroke-width:1" x1="225.56399955938434" x2="236.90227118998354" y1="95.3512796839604"/>
<line y2="74.56937737421906" style="stroke:rgb(0,0,0);stroke-width:1" x1="236.90227118998354" x2="246.01514106634383" y1="93.50339332625913"/>
<line y2="50.54267170494706" style="stroke:rgb(0,0,0);stroke-width:1" x1="246.01514106634383" x2="220.76741320405947" y1="74.56937737421906"/>
<line y2="430.80274299237163" style="stroke:rgb(0,0,0);stroke-width:1" x1="258.03418024490446" x2="266.4804992491229" y1="438.55665811803823"/>
<line y2="400.72137957123556" style="stroke:rgb(0,0,0);stroke-width:1" x1="266.4804992491229" x2="263.290653518913" y1="430.80274299237163"/>
<line y2="387.2331187316809" style="stroke:rgb(0,0,0);stroke-width:1" x1="263.290653518913" x2="220.1302811552996" y1="400.72137957123556"/>
<line y2="352.5416473698833" style="stroke:rgb(0,0,0);stroke-width:1" x1="226.72207652597152" x2="256.2267456805565" y1="367.316926695017"/>
<line y2="328.6263609143232" style="stroke:rgb(0,0,0);stroke-width:1" x1="256.2267456805565" x2="251.8565448824295" y1="352.5416473698833"/>
<line y2="318.849571787141" style="stroke:rgb(0,0,0);stroke-width:1" x1="251.8565448824295" x2="218.71859901728132" y1="328.6263609143232"/>
<line y2="253.51291234200585" style="stroke:rgb(0,0,0);stroke-width:1" x1="233.90174588401288" x2="247.47851372113107" y1="270.94409862930667"/>
<line y2="223.80919520214798" style="stroke:rgb(0,0,0);stroke-width:1" x1="247.47851372113107" x2="235.84446929970272" y1="253.51291234200585"/>
<line y2="223.09532135902833" style="stroke:rgb(0,0,0);stroke-width:1" x1="235.84446929970272" x2="234.40926173740473" y1="223.80919520214798"/>
<line y2="146.09412854596576" style="stroke:rgb(0,0,0);stroke-width:1" x1="237.25151908436396" x2="244.67141079009477" y1="150.8344756727698"/>
<line y2="112.74654710532403" style="stroke:rgb(0,0,0);stroke-width:1" x1="244.67141079009477" x2="253.0394709651252" y1="146.09412854596576"/>
<line y2="93.50339332625913" style="stroke:rgb(0,0,0);stroke-width:1" x1="253.0394709651252" x2="236.90227118998354" y1="112.74654710532403"/>
<line y2="59.79687116535457" style="stroke:rgb(0,0,0);stroke-width:1" x1="246.01514106634383" x2="264.2845579559776" y1="74.56937737421906"/>
<line y2="29.962771897613234" style="stroke:rgb(0,0,0);stroke-width:1" x1="264.2845579559776" x2="235.0455988220237" y1="59.79687116535457"/>
<line y2="30.538801772840774" style="stroke:rgb(0,0,0);stroke-width:1" x1="235.0455988220237" x2="230.64356632743784" y1="29.962771897613234"/>
<line y2="211.16238270023888" style="stroke:rgb(0,0,0);stroke-width:1" x1="235.84446929970272" x2="272.4696649126637" y1="223.80919520214798"/>
<line y2="189.06128235437805" style="stroke:rgb(0,0,0);stroke-width:1" x1="272.4696649126637" x2="270.74313409160754" y1="211.16238270023888"/>
<line y2="180.84215128538725" style="stroke:rgb(0,0,0);stroke-width:1" x1="270.74313409160754" x2="235.12276958461777" y1="189.06128235437805"/>
<line y2="307.32415546626635" style="stroke:rgb(0,0,0);stroke-width:1" x1="251.8565448824295" x2="271.3072162549829" y1="328.6263609143232"/>
<line y2="298.57398472564637" style="stroke:rgb(0,0,0);stroke-width:1" x1="271.3072162549829" x2="269.04109264376143" y1="307.32415546626635"/>
<line y2="286.3628279638981" style="stroke:rgb(0,0,0);stroke-width:1" x1="269.04109264376143" x2="238.77067724364016" y1="298.57398472564637"/>
<line y2="267.0532284701315" style="stroke:rgb(0,0,0);stroke-width:1" x1="269.04109264376143" x2="286.4717418170916" y1="298.57398472564637"/>
<line y2="255.6146716601854" style="stroke:rgb(0,0,0);stroke-width:1" x1="286.4717418170916" x2="277.76221776742625" y1="267.0532284701315"/>
<line y2="253.51291234200585" style="stroke:rgb(0,0,0);stroke-width:1" x1="277.76221776742625" x2="247.47851372113107" y1="255.6146716601854"/>
<line y2="18.750288900007106" style="stroke:rgb(0,0,0);stroke-width:1" x1="235.0455988220237" x2="244.3362772022281" y1="29.962771897613234"/>
<line y2="490.53505318079937" style="stroke:rgb(0,0,0);stroke-width:1" x1="270.00128934981575" x2="299.35483564941364" y1="493.6009288416184"/>
<line y2="485.6536978934543" style="stroke:rgb(0,0,0);stroke-width:1" x1="299.35483564941364" x2="306.96414216211167" y1="490.53505318079937"/>
<line y2="464.1283523459223" style="stroke:rgb(0,0,0);stroke-width:1" x1="306.96414216211167" x2="320.42189195084336" y1="485.6536978934543"/>
<line y2="436.5230688751627" style="stroke:rgb(0,0,0);stroke-width:1" x1="320.42189195084336" x2="303.401339750661" y1="464.1283523459223"/>
<line y2="430.80274299237163" style="stroke:rgb(0,0,0);stroke-width:1" x1="303.401339750661" x2="266.4804992491229" y1="436.5230688751627"/>
<line y2="113.85177884475898" style="stroke:rgb(0,0,0);stroke-width:1" x1="253.0394709651252" x2="281.5617890859532" y1="112.74654710532403"/>
<line y2="90.96922267608592" style="stroke:rgb(0,0,0);stroke-width:1" x1="281.5617890859532" x2="297.4360375649662" y1="113.85177884475898"/>
<line y2="55.030077595274356" style="stroke:rgb(0,0,0);stroke-width:1" x1="297.4360375649662" x2="280.03094490927526" y1="90.96922267608592"/>
<line y2="59.79687116535457" style="stroke:rgb(0,0,0);stroke-width:1" x1="280.03094490927526" x2="264.2845579559776" y1="55.030077595274356"/>
<line y2="47.06412044457475" style="stroke:rgb(0,0,0);stroke-width:1" x1="280.03094490927526" x2="285.0586095538013" y1="55.030077595274356"/>
<line y2="45.17915898277555" style="stroke:rgb(0,0,0);stroke-width:1" x1="285.0586095538013" x2="284.63543481042825" y1="47.06412044457475"/>
<line y2="22.72838346879547" style="stroke:rgb(0,0,0);stroke-width:1" x1="284.63543481042825" x2="268.15938177655374" y1="45.17915898277555"/>
<line y2="384.57046501108823" style="stroke:rgb(0,0,0);stroke-width:1" x1="263.290653518913" x2="277.5811718756321" y1="400.72137957123556"/>
<line y2="360.207870226548" style="stroke:rgb(0,0,0);stroke-width:1" x1="277.5811718756321" x2="271.85630794135415" y1="384.57046501108823"/>
<line y2="352.5416473698833" style="stroke:rgb(0,0,0);stroke-width:1" x1="271.85630794135415" x2="256.2267456805565" y1="360.207870226548"/>
<line y2="177.9187403137469" style="stroke:rgb(0,0,0);stroke-width:1" x1="270.74313409160754" x2="278.6496546384989" y1="189.06128235437805"/>
<line y2="158.3660122570818" style="stroke:rgb(0,0,0);stroke-width:1" x1="278.6496546384989" x2="276.6199786822557" y1="177.9187403137469"/>
<line y2="146.09412854596576" style="stroke:rgb(0,0,0);stroke-width:1" x1="276.6199786822557" x2="244.67141079009477" y1="158.3660122570818"/>
<line y2="342.5815659195174" style="stroke:rgb(0,0,0);stroke-width:1" x1="271.85630794135415" x2="294.89627131123757" y1="360.207870226548"/>
<line y2="319.42986115827966" style="stroke:rgb(0,0,0);stroke-width:1" x1="294.89627131123757" x2="292.2005560650518" y1="342.5815659195174"/>
<line y2="307.32415546626635" style="stroke:rgb(0,0,0);stroke-width:1" x1="292.2005560650518" x2="271.3072162549829" y1="319.42986115827966"/>
<line y2="1094.2270498275757" style="stroke:rgb(0,0,0);stroke-width:1" x1="223.8667207384634" x2="351.81113424089335" y1="1094.2270498275757"/>
<line y2="708.8483927414659" style="stroke:rgb(0,0,0);stroke-width:1" x1="351.81113424089335" x2="333.41957613119536" y1="1094.2270498275757"/>
<line y2="490.53505318079937" style="stroke:rgb(0,0,0);stroke-width:1" x1="333.41957613119536" x2="299.35483564941364" y1="708.8483927414659"/>
<line y2="139.1546771566068" style="stroke:rgb(0,0,0);stroke-width:1" x1="276.6199786822557" x2="294.77966261626227" y1="158.3660122570818"/>
<line y2="113.85177884475898" style="stroke:rgb(0,0,0);stroke-width:1" x1="294.77966261626227" x2="281.5617890859532" y1="139.1546771566068"/>
<line y2="221.1493692835103" style="stroke:rgb(0,0,0);stroke-width:1" x1="277.76221776742625" x2="283.77523476187685" y1="255.6146716601854"/>
<line y2="211.16238270023888" style="stroke:rgb(0,0,0);stroke-width:1" x1="283.77523476187685" x2="272.4696649126637" y1="221.1493692835103"/>
<line y2="216.1178358304867" style="stroke:rgb(0,0,0);stroke-width:1" x1="283.77523476187685" x2="316.3919538320287" y1="221.1493692835103"/>
<line y2="184.61972209244695" style="stroke:rgb(0,0,0);stroke-width:1" x1="316.3919538320287" x2="320.28177322109866" y1="216.1178358304867"/>
<line y2="177.9187403137469" style="stroke:rgb(0,0,0);stroke-width:1" x1="320.28177322109866" x2="278.6496546384989" y1="184.61972209244695"/>
<line y2="301.9512982385363" style="stroke:rgb(0,0,0);stroke-width:1" x1="292.2005560650518" x2="323.8608919222261" y1="319.42986115827966"/>
<line y2="293.7007335420288" style="stroke:rgb(0,0,0);stroke-width:1" x1="323.8608919222261" x2="324.97056152027346" y1="301.9512982385363"/>
<line y2="268.85833247119086" style="stroke:rgb(0,0,0);stroke-width:1" x1="324.97056152027346" x2="304.20703753015636" y1="293.7007335420288"/>
<line y2="267.0532284701315" style="stroke:rgb(0,0,0);stroke-width:1" x1="304.20703753015636" x2="286.4717418170916" y1="268.85833247119086"/>
<line y2="232.86678916831653" style="stroke:rgb(0,0,0);stroke-width:1" x1="304.20703753015636" x2="331.96581159186917" y1="268.85833247119086"/>
<line y2="216.1178358304867" style="stroke:rgb(0,0,0);stroke-width:1" x1="331.96581159186917" x2="316.3919538320287" y1="232.86678916831653"/>
<line y2="179.79588114930203" style="stroke:rgb(0,0,0);stroke-width:1" x1="320.28177322109866" x2="324.44051485353793" y1="184.61972209244695"/>
<line y2="141.41481269914453" style="stroke:rgb(0,0,0);stroke-width:1" x1="324.44051485353793" x2="308.44092425795907" y1="179.79588114930203"/>
<line y2="139.1546771566068" style="stroke:rgb(0,0,0);stroke-width:1" x1="308.44092425795907" x2="294.77966261626227" y1="141.41481269914453"/>
<line y2="-558.3338308334351" style="stroke:rgb(0,0,0);stroke-width:1" x1="332.37212326190036" x2="270.3538679132054" y1="-558.3338308334351"/>
<line y2="-50.52791454705458" style="stroke:rgb(0,0,0);stroke-width:1" x1="284.63543481042825" x2="313.91099328605554" y1="45.17915898277555"/>
<line y2="-558.3338308334351" style="stroke:rgb(0,0,0);stroke-width:1" x1="313.91099328605554" x2="332.37212326190036" y1="-50.52791454705458"/>
<line y2="399.1084858711409" style="stroke:rgb(0,0,0);stroke-width:1" x1="303.401339750661" x2="317.9136217130852" y1="436.5230688751627"/>
<line y2="391.53296288199033" style="stroke:rgb(0,0,0);stroke-width:1" x1="317.9136217130852" x2="313.135352011673" y1="399.1084858711409"/>
<line y2="384.57046501108823" style="stroke:rgb(0,0,0);stroke-width:1" x1="313.135352011673" x2="277.5811718756321" y1="391.53296288199033"/>
<line y2="355.77423757346173" style="stroke:rgb(0,0,0);stroke-width:1" x1="313.135352011673" x2="322.17283057897225" y1="391.53296288199033"/>
<line y2="342.5815659195174" style="stroke:rgb(0,0,0);stroke-width:1" x1="322.17283057897225" x2="294.89627131123757" y1="355.77423757346173"/>
<line y2="41.66797134461755" style="stroke:rgb(0,0,0);stroke-width:1" x1="285.0586095538013" x2="329.7121230393077" y1="47.06412044457475"/>
<line y2="-50.52791454705458" style="stroke:rgb(0,0,0);stroke-width:1" x1="329.7121230393077" x2="313.91099328605554" y1="41.66797134461755"/>
<line y2="464.01185476219644" style="stroke:rgb(0,0,0);stroke-width:1" x1="320.42189195084336" x2="321.2452534636556" y1="464.1283523459223"/>
<line y2="432.7245461693458" style="stroke:rgb(0,0,0);stroke-width:1" x1="321.2452534636556" x2="368.6772209552374" y1="464.01185476219644"/>
<line y2="403.3742008956749" style="stroke:rgb(0,0,0);stroke-width:1" x1="368.6772209552374" x2="350.2045564070022" y1="432.7245461693458"/>
<line y2="399.1084858711409" style="stroke:rgb(0,0,0);stroke-width:1" x1="350.2045564070022" x2="317.9136217130852" y1="403.3742008956749"/>
<line y2="517.5707230022696" style="stroke:rgb(0,0,0);stroke-width:1" x1="333.41957613119536" x2="341.27423371041397" y1="708.8483927414659"/>
<line y2="485.6536978934543" style="stroke:rgb(0,0,0);stroke-width:1" x1="341.27423371041397" x2="306.96414216211167" y1="517.5707230022696"/>
<line y2="124.11747266136182" style="stroke:rgb(0,0,0);stroke-width:1" x1="308.44092425795907" x2="333.4494147518975" y1="141.41481269914453"/>
<line y2="96.05468396548814" style="stroke:rgb(0,0,0);stroke-width:1" x1="333.4494147518975" x2="333.5213959528935" y1="124.11747266136182"/>
<line y2="90.96922267608592" style="stroke:rgb(0,0,0);stroke-width:1" x1="333.5213959528935" x2="297.4360375649662" y1="96.05468396548814"/>
<line y2="367.57027338517497" style="stroke:rgb(0,0,0);stroke-width:1" x1="350.2045564070022" x2="369.44083440777086" y1="403.3742008956749"/>
<line y2="366.76321486700715" style="stroke:rgb(0,0,0);stroke-width:1" x1="369.44083440777086" x2="368.8012563686729" y1="367.57027338517497"/>
<line y2="354.5853423618029" style="stroke:rgb(0,0,0);stroke-width:1" x1="368.8012563686729" x2="324.43358928951346" y1="366.76321486700715"/>
<line y2="355.77423757346173" style="stroke:rgb(0,0,0);stroke-width:1" x1="324.43358928951346" x2="322.17283057897225" y1="354.5853423618029"/>
<line y2="321.5433322407401" style="stroke:rgb(0,0,0);stroke-width:1" x1="324.43358928951346" x2="337.53794515945395" y1="354.5853423618029"/>
<line y2="301.9512982385363" style="stroke:rgb(0,0,0);stroke-width:1" x1="337.53794515945395" x2="323.8608919222261" y1="321.5433322407401"/>
<line y2="234.9323368152787" style="stroke:rgb(0,0,0);stroke-width:1" x1="331.96581159186917" x2="343.427013210164" y1="232.86678916831653"/>
<line y2="218.41171433756708" style="stroke:rgb(0,0,0);stroke-width:1" x1="343.427013210164" x2="368.73190915504335" y1="234.9323368152787"/>
<line y2="189.92261739140048" style="stroke:rgb(0,0,0);stroke-width:1" x1="368.73190915504335" x2="366.4881970776463" y1="218.41171433756708"/>
<line y2="175.5770482991984" style="stroke:rgb(0,0,0);stroke-width:1" x1="366.4881970776463" x2="343.99709833555306" y1="189.92261739140048"/>
<line y2="179.79588114930203" style="stroke:rgb(0,0,0);stroke-width:1" x1="343.99709833555306" x2="324.44051485353793" y1="175.5770482991984"/>
<line y2="274.30319341230154" style="stroke:rgb(0,0,0);stroke-width:1" x1="324.97056152027346" x2="359.1442551079005" y1="293.7007335420288"/>
<line y2="234.9323368152787" style="stroke:rgb(0,0,0);stroke-width:1" x1="359.1442551079005" x2="343.427013210164" y1="274.30319341230154"/>
<line y2="77.67463287128379" style="stroke:rgb(0,0,0);stroke-width:1" x1="333.5213959528935" x2="352.22702772820855" y1="96.05468396548814"/>
<line y2="48.88765768585591" style="stroke:rgb(0,0,0);stroke-width:1" x1="352.22702772820855" x2="343.9844277830532" y1="77.67463287128379"/>
<line y2="41.66797134461755" style="stroke:rgb(0,0,0);stroke-width:1" x1="343.9844277830532" x2="329.7121230393077" y1="48.88765768585591"/>
<line y2="-558.3338308334351" style="stroke:rgb(0,0,0);stroke-width:1" x1="409.16666801128605" x2="332.37212326190036" y1="-558.3338308334351"/>
<line y2="42.448041265911414" style="stroke:rgb(0,0,0);stroke-width:1" x1="343.9844277830532" x2="350.48699709748905" y1="48.88765768585591"/>
<line y2="-76.92555023975156" style="stroke:rgb(0,0,0);stroke-width:1" x1="350.48699709748905" x2="380.1349381476021" y1="42.448041265911414"/>
<line y2="-558.3338308334351" style="stroke:rgb(0,0,0);stroke-width:1" x1="380.1349381476021" x2="409.16666801128605" y1="-76.92555023975156"/>
<line y2="141.20798284193285" style="stroke:rgb(0,0,0);stroke-width:1" x1="343.99709833555306" x2="355.0078800888907" y1="175.5770482991984"/>
<line y2="124.11747266136182" style="stroke:rgb(0,0,0);stroke-width:1" x1="355.0078800888907" x2="333.4494147518975" y1="141.20798284193285"/>
<line y2="324.5264731516151" style="stroke:rgb(0,0,0);stroke-width:1" x1="337.53794515945395" x2="365.79967409778686" y1="321.5433322407401"/>
<line y2="312.7231550234454" style="stroke:rgb(0,0,0);stroke-width:1" x1="365.79967409778686" x2="379.56723634340955" y1="324.5264731516151"/>
<line y2="276.97586512896805" style="stroke:rgb(0,0,0);stroke-width:1" x1="379.56723634340955" x2="366.47989643730847" y1="312.7231550234454"/>
<line y2="274.30319341230154" style="stroke:rgb(0,0,0);stroke-width:1" x1="366.47989643730847" x2="359.1442551079005" y1="276.97586512896805"/>
<line y2="1094.2270498275757" style="stroke:rgb(0,0,0);stroke-width:1" x1="351.81113424089335" x2="396.56827944617504" y1="1094.2270498275757"/>
<line y2="511.7021349973346" style="stroke:rgb(0,0,0);stroke-width:1" x1="396.56827944617504" x2="378.6921124672849" y1="1094.2270498275757"/>
<line y2="501.86371334110754" style="stroke:rgb(0,0,0);stroke-width:1" x1="378.6921124672849" x2="363.04048477402796" y1="511.7021349973346"/>
<line y2="517.5707230022696" style="stroke:rgb(0,0,0);stroke-width:1" x1="363.04048477402796" x2="341.27423371041397" y1="501.86371334110754"/>
<line y2="324.5264731516151" style="stroke:rgb(0,0,0);stroke-width:1" x1="368.8012563686729" x2="365.79967409778686" y1="366.76321486700715"/>
<line y2="136.4660124102349" style="stroke:rgb(0,0,0);stroke-width:1" x1="355.0078800888907" x2="381.69237203546976" y1="141.20798284193285"/>
<line y2="112.14148911393427" style="stroke:rgb(0,0,0);stroke-width:1" x1="381.69237203546976" x2="393.5206415410451" y1="136.4660124102349"/>
<line y2="80.88581075942989" style="stroke:rgb(0,0,0);stroke-width:1" x1="393.5206415410451" x2="362.35748355479836" y1="112.14148911393427"/>
<line y2="77.67463287128379" style="stroke:rgb(0,0,0);stroke-width:1" x1="362.35748355479836" x2="352.22702772820855" y1="80.88581075942989"/>
<line y2="488.19525377729695" style="stroke:rgb(0,0,0);stroke-width:1" x1="363.04048477402796" x2="360.9582927510562" y1="501.86371334110754"/>
<line y2="464.01185476219644" style="stroke:rgb(0,0,0);stroke-width:1" x1="360.9582927510562" x2="321.2452534636556" y1="488.19525377729695"/>
<line y2="-558.3338308334351" style="stroke:rgb(0,0,0);stroke-width:1" x1="1147.568175315857" x2="1147.568175315857" y1="-192.08434681305457"/>
<line y2="-558.3338308334351" style="stroke:rgb(0,0,0);stroke-width:1" x1="1147.568175315857" x2="518.7805855785408" y1="-558.3338308334351"/>
<line y2="25.70732253419112" style="stroke:rgb(0,0,0);stroke-width:1" x1="518.7805855785408" x2="543.9670093365605" y1="-558.3338308334351"/>
<line y2="34.121761078009335" style="stroke:rgb(0,0,0);stroke-width:1" x1="543.9670093365605" x2="557.6118860300132" y1="25.70732253419112"/>
<line y2="-192.08434681305457" style="stroke:rgb(0,0,0);stroke-width:1" x1="557.6118860300132" x2="1147.568175315857" y1="34.121761078009335"/>
<line y2="261.1995114834393" style="stroke:rgb(0,0,0);stroke-width:1" x1="366.47989643730847" x2="396.5407828400824" y1="276.97586512896805"/>
<line y2="229.30357164068724" style="stroke:rgb(0,0,0);stroke-width:1" x1="396.5407828400824" x2="397.05563731580645" y1="261.1995114834393"/>
<line y2="218.41171433756708" style="stroke:rgb(0,0,0);stroke-width:1" x1="397.05563731580645" x2="368.73190915504335" y1="229.30357164068724"/>
<line y2="457.5850362462338" style="stroke:rgb(0,0,0);stroke-width:1" x1="360.9582927510562" x2="396.19269808664114" y1="488.19525377729695"/>
<line y2="449.70702482327044" style="stroke:rgb(0,0,0);stroke-width:1" x1="396.19269808664114" x2="399.5844983192645" y1="457.5850362462338"/>
<line y2="438.13921041000697" style="stroke:rgb(0,0,0);stroke-width:1" x1="399.5844983192645" x2="390.31354339559374" y1="449.70702482327044"/>
<line y2="432.7245461693458" style="stroke:rgb(0,0,0);stroke-width:1" x1="390.31354339559374" x2="368.6772209552374" y1="438.13921041000697"/>
<line y2="391.910676038589" style="stroke:rgb(0,0,0);stroke-width:1" x1="390.31354339559374" x2="407.7151504693356" y1="438.13921041000697"/>
<line y2="370.39952120562543" style="stroke:rgb(0,0,0);stroke-width:1" x1="407.7151504693356" x2="392.2830890732991" y1="391.910676038589"/>
<line y2="367.57027338517497" style="stroke:rgb(0,0,0);stroke-width:1" x1="392.2830890732991" x2="369.44083440777086" y1="370.39952120562543"/>
<line y2="168.81394217664797" style="stroke:rgb(0,0,0);stroke-width:1" x1="366.4881970776463" x2="397.9961462932384" y1="189.92261739140048"/>
<line y2="136.4660124102349" style="stroke:rgb(0,0,0);stroke-width:1" x1="397.9961462932384" x2="381.69237203546976" y1="168.81394217664797"/>
<line y2="58.52670686972593" style="stroke:rgb(0,0,0);stroke-width:1" x1="362.35748355479836" x2="398.59139168936866" y1="80.88581075942989"/>
<line y2="36.658478223749356" style="stroke:rgb(0,0,0);stroke-width:1" x1="398.59139168936866" x2="397.9017873013879" y1="58.52670686972593"/>
<line y2="30.78328333459679" style="stroke:rgb(0,0,0);stroke-width:1" x1="397.9017873013879" x2="390.15560783036267" y1="36.658478223749356"/>
<line y2="42.448041265911414" style="stroke:rgb(0,0,0);stroke-width:1" x1="390.15560783036267" x2="350.48699709748905" y1="30.78328333459679"/>
<line y2="337.73519764784464" style="stroke:rgb(0,0,0);stroke-width:1" x1="392.2830890732991" x2="414.4673542930551" y1="370.39952120562543"/>
<line y2="315.9402875931615" style="stroke:rgb(0,0,0);stroke-width:1" x1="414.4673542930551" x2="400.37605167394656" y1="337.73519764784464"/>
<line y2="312.7231550234454" style="stroke:rgb(0,0,0);stroke-width:1" x1="400.37605167394656" x2="379.56723634340955" y1="315.9402875931615"/>
<line y2="1094.2270498275757" style="stroke:rgb(0,0,0);stroke-width:1" x1="460.64683634634576" x2="520.4907387173696" y1="1094.2270498275757"/>
<line y2="520.1625082721142" style="stroke:rgb(0,0,0);stroke-width:1" x1="520.4907387173696" x2="552.6208905896868" y1="1094.2270498275757"/>
<line y2="504.7808172688691" style="stroke:rgb(0,0,0);stroke-width:1" x1="552.6208905896868" x2="533.2224428441527" y1="520.1625082721142"/>
<line y2="514.4374985051094" style="stroke:rgb(0,0,0);stroke-width:1" x1="533.2224428441527" x2="515.8310689226289" y1="504.7808172688691"/>
<line y2="857.6036309623398" style="stroke:rgb(0,0,0);stroke-width:1" x1="515.8310689226289" x2="476.4885377544564" y1="514.4374985051094"/>
<line y2="1094.2270498275757" style="stroke:rgb(0,0,0);stroke-width:1" x1="476.4885377544564" x2="460.64683634634576" y1="857.6036309623398"/>
<line y2="501.8827616311775" style="stroke:rgb(0,0,0);stroke-width:1" x1="378.6921124672849" x2="397.0958561242605" y1="511.7021349973346"/>
<line y2="457.5850362462338" style="stroke:rgb(0,0,0);stroke-width:1" x1="397.0958561242605" x2="396.19269808664114" y1="501.8827616311775"/>
<line y2="1094.2270498275757" style="stroke:rgb(0,0,0);stroke-width:1" x1="396.56827944617504" x2="446.8195185546687" y1="1094.2270498275757"/>
<line y2="510.4793359535281" style="stroke:rgb(0,0,0);stroke-width:1" x1="446.8195185546687" x2="413.336907747983" y1="1094.2270498275757"/>
<line y2="501.8827616311775" style="stroke:rgb(0,0,0);stroke-width:1" x1="413.336907747983" x2="397.0958561242605" y1="510.4793359535281"/>
<line y2="173.27302985335115" style="stroke:rgb(0,0,0);stroke-width:1" x1="397.9961462932384" x2="411.25613106898356" y1="168.81394217664797"/>
<line y2="156.22266768146682" style="stroke:rgb(0,0,0);stroke-width:1" x1="411.25613106898356" x2="438.22936387091465" y1="173.27302985335115"/>
<line y2="108.16233960748187" style="stroke:rgb(0,0,0);stroke-width:1" x1="438.22936387091465" x2="439.7267377035738" y1="156.22266768146682"/>
<line y2="104.26537710725844" style="stroke:rgb(0,0,0);stroke-width:1" x1="439.7267377035738" x2="430.17993468041846" y1="108.16233960748187"/>
<line y2="112.14148911393427" style="stroke:rgb(0,0,0);stroke-width:1" x1="430.17993468041846" x2="393.5206415410451" y1="104.26537710725844"/>
<line y2="-558.3338308334351" style="stroke:rgb(0,0,0);stroke-width:1" x1="463.76824513424907" x2="409.16666801128605" y1="-558.3338308334351"/>
<line y2="30.78328333459679" style="stroke:rgb(0,0,0);stroke-width:1" x1="380.1349381476021" x2="390.15560783036267" y1="-76.92555023975156"/>
<line y2="28.848323409350606" style="stroke:rgb(0,0,0);stroke-width:1" x1="397.9017873013879" x2="424.80886647638647" y1="36.658478223749356"/>
<line y2="-325.3648847095047" style="stroke:rgb(0,0,0);stroke-width:1" x1="424.80886647638647" x2="458.8983079365032" y1="28.848323409350606"/>
<line y2="-439.0792776413511" style="stroke:rgb(0,0,0);stroke-width:1" x1="458.8983079365032" x2="463.79911832213037" y1="-325.3648847095047"/>
<line y2="-558.3338308334351" style="stroke:rgb(0,0,0);stroke-width:1" x1="463.79911832213037" x2="463.76824513424907" y1="-439.0792776413511"/>
<line y2="215.3776486201513" style="stroke:rgb(0,0,0);stroke-width:1" x1="397.05563731580645" x2="421.4815365812774" y1="229.30357164068724"/>
<line y2="173.27302985335115" style="stroke:rgb(0,0,0);stroke-width:1" x1="421.4815365812774" x2="411.25613106898356" y1="215.3776486201513"/>
<line y2="280.86106690933065" style="stroke:rgb(0,0,0);stroke-width:1" x1="400.37605167394656" x2="424.41139358564294" y1="315.9402875931615"/>
<line y2="261.1995114834393" style="stroke:rgb(0,0,0);stroke-width:1" x1="424.41139358564294" x2="396.5407828400824" y1="280.86106690933065"/>
<line y2="498.84217375520296" style="stroke:rgb(0,0,0);stroke-width:1" x1="413.336907747983" x2="431.80556897785925" y1="510.4793359535281"/>
<line y2="454.4528423431237" style="stroke:rgb(0,0,0);stroke-width:1" x1="431.80556897785925" x2="426.78945346787447" y1="498.84217375520296"/>
<line y2="449.70702482327044" style="stroke:rgb(0,0,0);stroke-width:1" x1="426.78945346787447" x2="399.5844983192645" y1="454.4528423431237"/>
<line y2="389.14950205512196" style="stroke:rgb(0,0,0);stroke-width:1" x1="407.7151504693356" x2="447.8418029095533" y1="391.910676038589"/>
<line y2="341.8604394830579" style="stroke:rgb(0,0,0);stroke-width:1" x1="447.8418029095533" x2="449.37617150286155" y1="389.14950205512196"/>
<line y2="337.73519764784464" style="stroke:rgb(0,0,0);stroke-width:1" x1="449.37617150286155" x2="414.4673542930551" y1="341.8604394830579"/>
<line y2="72.41990750300492" style="stroke:rgb(0,0,0);stroke-width:1" x1="430.17993468041846" x2="420.41947485298675" y1="104.26537710725844"/>
<line y2="58.52670686972593" style="stroke:rgb(0,0,0);stroke-width:1" x1="420.41947485298675" x2="398.59139168936866" y1="72.41990750300492"/>
<line y2="446.02653059752765" style="stroke:rgb(0,0,0);stroke-width:1" x1="426.78945346787447" x2="453.6447762517181" y1="454.4528423431237"/>
<line y2="423.1830566396447" style="stroke:rgb(0,0,0);stroke-width:1" x1="453.6447762517181" x2="467.7142456423364" y1="446.02653059752765"/>
<line y2="402.9272065337014" style="stroke:rgb(0,0,0);stroke-width:1" x1="467.7142456423364" x2="461.5363349759044" y1="423.1830566396447"/>
<line y2="389.14950205512196" style="stroke:rgb(0,0,0);stroke-width:1" x1="461.5363349759044" x2="447.8418029095533" y1="402.9272065337014"/>
<line y2="280.324625305949" style="stroke:rgb(0,0,0);stroke-width:1" x1="424.41139358564294" x2="428.5163309389249" y1="280.86106690933065"/>
<line y2="262.16996920937527" style="stroke:rgb(0,0,0);stroke-width:1" x1="428.5163309389249" x2="445.9637995289845" y1="280.324625305949"/>
<line y2="220.8123995296987" style="stroke:rgb(0,0,0);stroke-width:1" x1="445.9637995289845" x2="438.9156598530594" y1="262.16996920937527"/>
<line y2="215.3776486201513" style="stroke:rgb(0,0,0);stroke-width:1" x1="438.9156598530594" x2="421.4815365812774" y1="220.8123995296987"/>
<line y2="1094.2270498275757" style="stroke:rgb(0,0,0);stroke-width:1" x1="446.8195185546687" x2="458.37513078003553" y1="1094.2270498275757"/>
<line y2="507.28995932127077" style="stroke:rgb(0,0,0);stroke-width:1" x1="458.37513078003553" x2="447.756555548558" y1="1094.2270498275757"/>
<line y2="498.84217375520296" style="stroke:rgb(0,0,0);stroke-width:1" x1="447.756555548558" x2="431.80556897785925" y1="507.28995932127077"/>
<line y2="-558.3338308334351" style="stroke:rgb(0,0,0);stroke-width:1" x1="518.7805855785408" x2="463.76824513424907" y1="-558.3338308334351"/>
<line y2="30.576233017803922" style="stroke:rgb(0,0,0);stroke-width:1" x1="463.79911832213037" x2="502.57509519616735" y1="-439.0792776413511"/>
<line y2="38.07486895308608" style="stroke:rgb(0,0,0);stroke-width:1" x1="502.57509519616735" x2="524.9262283011415" y1="30.576233017803922"/>
<line y2="25.70732253419112" style="stroke:rgb(0,0,0);stroke-width:1" x1="524.9262283011415" x2="543.9670093365605" y1="38.07486895308608"/>
<line y2="41.887932848143514" style="stroke:rgb(0,0,0);stroke-width:1" x1="420.41947485298675" x2="438.01075100479096" y1="72.41990750300492"/>
<line y2="28.848323409350606" style="stroke:rgb(0,0,0);stroke-width:1" x1="438.01075100479096" x2="424.80886647638647" y1="41.887932848143514"/>
<line y2="335.66312555896025" style="stroke:rgb(0,0,0);stroke-width:1" x1="449.37617150286155" x2="456.8897893127026" y1="341.8604394830579"/>
<line y2="316.5097942598537" style="stroke:rgb(0,0,0);stroke-width:1" x1="456.8897893127026" x2="458.3284125426781" y1="335.66312555896025"/>
<line y2="280.324625305949" style="stroke:rgb(0,0,0);stroke-width:1" x1="458.3284125426781" x2="428.5163309389249" y1="316.5097942598537"/>
<line y2="204.5823157085565" style="stroke:rgb(0,0,0);stroke-width:1" x1="438.9156598530594" x2="473.8660686939032" y1="220.8123995296987"/>
<line y2="177.9590881934928" style="stroke:rgb(0,0,0);stroke-width:1" x1="473.8660686939032" x2="475.0827085380377" y1="204.5823157085565"/>
<line y2="156.22266768146682" style="stroke:rgb(0,0,0);stroke-width:1" x1="475.0827085380377" x2="438.22936387091465" y1="177.9590881934928"/>
<line y2="498.1403336019604" style="stroke:rgb(0,0,0);stroke-width:1" x1="447.756555548558" x2="465.4633862697207" y1="507.28995932127077"/>
<line y2="460.2975145309127" style="stroke:rgb(0,0,0);stroke-width:1" x1="465.4633862697207" x2="463.09567088045986" y1="498.1403336019604"/>
<line y2="446.02653059752765" style="stroke:rgb(0,0,0);stroke-width:1" x1="463.09567088045986" x2="453.6447762517181" y1="460.2975145309127"/>
<line y2="43.138740166820305" style="stroke:rgb(0,0,0);stroke-width:1" x1="438.01075100479096" x2="459.08216921658595" y1="41.887932848143514"/>
<line y2="39.89517426162697" style="stroke:rgb(0,0,0);stroke-width:1" x1="459.08216921658595" x2="463.717688600896" y1="43.138740166820305"/>
<line y2="-325.3648847095047" style="stroke:rgb(0,0,0);stroke-width:1" x1="463.717688600896" x2="458.8983079365032" y1="39.89517426162697"/>
<line y2="102.12859524247088" style="stroke:rgb(0,0,0);stroke-width:1" x1="439.7267377035738" x2="459.8019278275654" y1="108.16233960748187"/>
<line y2="43.138740166820305" style="stroke:rgb(0,0,0);stroke-width:1" x1="459.8019278275654" x2="459.08216921658595" y1="102.12859524247088"/>
<line y2="370.04923267371174" style="stroke:rgb(0,0,0);stroke-width:1" x1="461.5363349759044" x2="498.0434792520337" y1="402.9272065337014"/>
<line y2="345.83288297531084" style="stroke:rgb(0,0,0);stroke-width:1" x1="498.0434792520337" x2="495.18914866821825" y1="370.04923267371174"/>
<line y2="335.66312555896025" style="stroke:rgb(0,0,0);stroke-width:1" x1="495.18914866821825" x2="456.8897893127026" y1="345.83288297531084"/>
<line y2="1094.2270498275757" style="stroke:rgb(0,0,0);stroke-width:1" x1="458.37513078003553" x2="460.64683634634576" y1="1094.2270498275757"/>
<line y2="505.53962867755024" style="stroke:rgb(0,0,0);stroke-width:1" x1="476.4885377544564" x2="481.10393779887784" y1="857.6036309623398"/>
<line y2="498.1403336019604" style="stroke:rgb(0,0,0);stroke-width:1" x1="481.10393779887784" x2="465.4633862697207" y1="505.53962867755024"/>
<line y2="266.649192170331" style="stroke:rgb(0,0,0);stroke-width:1" x1="445.9637995289845" x2="481.49205790368273" y1="262.16996920937527"/>
<line y2="227.9801860281076" style="stroke:rgb(0,0,0);stroke-width:1" x1="481.49205790368273" x2="501.5429791429566" y1="266.649192170331"/>
<line y2="204.5823157085565" style="stroke:rgb(0,0,0);stroke-width:1" x1="501.5429791429566" x2="473.8660686939032" y1="227.9801860281076"/>
<line y2="286.69571766646885" style="stroke:rgb(0,0,0);stroke-width:1" x1="458.3284125426781" x2="489.9192033339748" y1="316.5097942598537"/>
<line y2="266.649192170331" style="stroke:rgb(0,0,0);stroke-width:1" x1="489.9192033339748" x2="481.49205790368273" y1="286.69571766646885"/>
<line y2="163.2314348128239" style="stroke:rgb(0,0,0);stroke-width:1" x1="475.0827085380377" x2="491.2677149139352" y1="177.9590881934928"/>
<line y2="142.87533496898925" style="stroke:rgb(0,0,0);stroke-width:1" x1="491.2677149139352" x2="498.0112892279853" y1="163.2314348128239"/>
<line y2="119.8517770249516" style="stroke:rgb(0,0,0);stroke-width:1" x1="498.0112892279853" x2="491.8550688006409" y1="142.87533496898925"/>
<line y2="103.77014323961917" style="stroke:rgb(0,0,0);stroke-width:1" x1="491.8550688006409" x2="472.7091882269905" y1="119.8517770249516"/>
<line y2="102.12859524247088" style="stroke:rgb(0,0,0);stroke-width:1" x1="472.7091882269905" x2="459.8019278275654" y1="103.77014323961917"/>
<line y2="42.82561931858313" style="stroke:rgb(0,0,0);stroke-width:1" x1="463.717688600896" x2="487.24438721040497" y1="39.89517426162697"/>
<line y2="30.576233017803922" style="stroke:rgb(0,0,0);stroke-width:1" x1="487.24438721040497" x2="502.57509519616735" y1="42.82561931858313"/>
<line y2="476.49310653393786" style="stroke:rgb(0,0,0);stroke-width:1" x1="463.09567088045986" x2="500.0083828501814" y1="460.2975145309127"/>
<line y2="446.51368641621514" style="stroke:rgb(0,0,0);stroke-width:1" x1="500.0083828501814" x2="510.50623287259594" y1="476.49310653393786"/>
<line y2="423.38466039356183" style="stroke:rgb(0,0,0);stroke-width:1" x1="510.50623287259594" x2="470.29559541173234" y1="446.51368641621514"/>
<line y2="423.1830566396447" style="stroke:rgb(0,0,0);stroke-width:1" x1="470.29559541173234" x2="467.7142456423364" y1="423.38466039356183"/>
<line y2="331.9981983585362" style="stroke:rgb(0,0,0);stroke-width:1" x1="495.18914866821825" x2="514.6019425378514" y1="345.83288297531084"/>
<line y2="301.5312687422203" style="stroke:rgb(0,0,0);stroke-width:1" x1="514.6019425378514" x2="522.9273083309546" y1="331.9981983585362"/>
<line y2="286.69571766646885" style="stroke:rgb(0,0,0);stroke-width:1" x1="522.9273083309546" x2="489.9192033339748" y1="301.5312687422203"/>
<line y2="498.2795527543305" style="stroke:rgb(0,0,0);stroke-width:1" x1="515.8310689226289" x2="496.8336085612292" y1="514.4374985051094"/>
<line y2="505.53962867755024" style="stroke:rgb(0,0,0);stroke-width:1" x1="496.8336085612292" x2="481.10393779887784" y1="498.2795527543305"/>
<line y2="227.5146529702248" style="stroke:rgb(0,0,0);stroke-width:1" x1="501.5429791429566" x2="518.5501219627823" y1="227.9801860281076"/>
<line y2="182.87751383542366" style="stroke:rgb(0,0,0);stroke-width:1" x1="518.5501219627823" x2="529.4864673199797" y1="227.5146529702248"/>
<line y2="163.2314348128239" style="stroke:rgb(0,0,0);stroke-width:1" x1="529.4864673199797" x2="491.2677149139352" y1="182.87751383542366"/>
<line y2="293.76078204161166" style="stroke:rgb(0,0,0);stroke-width:1" x1="522.9273083309546" x2="538.1834199050745" y1="301.5312687422203"/>
<line y2="277.1128378961115" style="stroke:rgb(0,0,0);stroke-width:1" x1="538.1834199050745" x2="547.305173600636" y1="293.76078204161166"/>
<line y2="244.34569637817535" style="stroke:rgb(0,0,0);stroke-width:1" x1="547.305173600636" x2="542.8838419201348" y1="277.1128378961115"/>
<line y2="236.92157024965678" style="stroke:rgb(0,0,0);stroke-width:1" x1="542.8838419201348" x2="537.4413221255746" y1="244.34569637817535"/>
<line y2="227.5146529702248" style="stroke:rgb(0,0,0);stroke-width:1" x1="537.4413221255746" x2="518.5501219627823" y1="236.92157024965678"/>
<line y2="72.40387784270935" style="stroke:rgb(0,0,0);stroke-width:1" x1="472.7091882269905" x2="496.97948161650936" y1="103.77014323961917"/>
<line y2="42.82561931858313" style="stroke:rgb(0,0,0);stroke-width:1" x1="496.97948161650936" x2="487.24438721040497" y1="72.40387784270935"/>
<line y2="105.2722147607552" style="stroke:rgb(0,0,0);stroke-width:1" x1="491.8550688006409" x2="526.2220488119447" y1="119.8517770249516"/>
<line y2="71.31029204277247" style="stroke:rgb(0,0,0);stroke-width:1" x1="526.2220488119447" x2="526.7845161367143" y1="105.2722147607552"/>
<line y2="72.40387784270935" style="stroke:rgb(0,0,0);stroke-width:1" x1="526.7845161367143" x2="496.97948161650936" y1="71.31029204277247"/>
<line y2="480.263974815587" style="stroke:rgb(0,0,0);stroke-width:1" x1="496.8336085612292" x2="501.98176811740376" y1="498.2795527543305"/>
<line y2="476.49310653393786" style="stroke:rgb(0,0,0);stroke-width:1" x1="501.98176811740376" x2="500.0083828501814" y1="480.263974815587"/>
<line y2="405.1439946772664" style="stroke:rgb(0,0,0);stroke-width:1" x1="470.29559541173234" x2="516.7902643875258" y1="423.38466039356183"/>
<line y2="384.7041300174609" style="stroke:rgb(0,0,0);stroke-width:1" x1="516.7902643875258" x2="518.8493219292143" y1="405.1439946772664"/>
<line y2="370.04923267371174" style="stroke:rgb(0,0,0);stroke-width:1" x1="518.8493219292143" x2="498.0434792520337" y1="384.7041300174609"/>
<line y2="70.37060672797179" style="stroke:rgb(0,0,0);stroke-width:1" x1="526.7845161367143" x2="527.8288614344295" y1="71.31029204277247"/>
<line y2="38.07486895308608" style="stroke:rgb(0,0,0);stroke-width:1" x1="527.8288614344295" x2="524.9262283011415" y1="70.37060672797179"/>
<line y2="372.8760033626547" style="stroke:rgb(0,0,0);stroke-width:1" x1="518.8493219292143" x2="543.5195544467095" y1="384.7041300174609"/>
<line y2="358.91077459151893" style="stroke:rgb(0,0,0);stroke-width:1" x1="543.5195544467095" x2="546.7137923047295" y1="372.8760033626547"/>
<line y2="331.9981983585362" style="stroke:rgb(0,0,0);stroke-width:1" x1="546.7137923047295" x2="514.6019425378514" y1="358.91077459151893"/>
<line y2="1094.2270498275757" style="stroke:rgb(0,0,0);stroke-width:1" x1="520.4907387173696" x2="1147.568175315857" y1="1094.2270498275757"/>
<line y2="704.0275382983302" style="stroke:rgb(0,0,0);stroke-width:1" x1="1147.568175315857" x2="1147.568175315857" y1="1094.2270498275757"/>
<line y2="510.38931419195353" style="stroke:rgb(0,0,0);stroke-width:1" x1="1147.568175315857" x2="564.5958651582827" y1="704.0275382983302"/>
<line y2="520.1625082721142" style="stroke:rgb(0,0,0);stroke-width:1" x1="564.5958651582827" x2="552.6208905896868" y1="510.38931419195353"/>
<line y2="487.71034021780986" style="stroke:rgb(0,0,0);stroke-width:1" x1="533.2224428441527" x2="535.9676929273378" y1="504.7808172688691"/>
<line y2="480.32367521022786" style="stroke:rgb(0,0,0);stroke-width:1" x1="535.9676929273378" x2="529.7889811237326" y1="487.71034021780986"/>
<line y2="480.263974815587" style="stroke:rgb(0,0,0);stroke-width:1" x1="529.7889811237326" x2="501.98176811740376" y1="480.32367521022786"/>
<line y2="444.5298038979567" style="stroke:rgb(0,0,0);stroke-width:1" x1="510.50623287259594" x2="522.1973574987945" y1="446.51368641621514"/>
<line y2="418.69764511472124" style="stroke:rgb(0,0,0);stroke-width:1" x1="522.1973574987945" x2="531.3772675891842" y1="444.5298038979567"/>
<line y2="405.1439946772664" style="stroke:rgb(0,0,0);stroke-width:1" x1="531.3772675891842" x2="516.7902643875258" y1="418.69764511472124"/>
<line y2="111.77098007793265" style="stroke:rgb(0,0,0);stroke-width:1" x1="526.2220488119447" x2="539.9793358703306" y1="105.2722147607552"/>
<line y2="107.38882416926762" style="stroke:rgb(0,0,0);stroke-width:1" x1="539.9793358703306" x2="555.8629959295497" y1="111.77098007793265"/>
<line y2="93.63570622104106" style="stroke:rgb(0,0,0);stroke-width:1" x1="555.8629959295497" x2="563.4759760787897" y1="107.38882416926762"/>
<line y2="70.82570136520638" style="stroke:rgb(0,0,0);stroke-width:1" x1="563.4759760787897" x2="552.1732287139552" y1="93.63570622104106"/>
<line y2="70.37060672797179" style="stroke:rgb(0,0,0);stroke-width:1" x1="552.1732287139552" x2="527.8288614344295" y1="70.82570136520638"/>
<line y2="179.1003887946169" style="stroke:rgb(0,0,0);stroke-width:1" x1="529.4864673199797" x2="536.1981972717407" y1="182.87751383542366"/>
<line y2="145.35199065816204" style="stroke:rgb(0,0,0);stroke-width:1" x1="536.1981972717407" x2="537.7475077024308" y1="179.1003887946169"/>
<line y2="142.87533496898925" style="stroke:rgb(0,0,0);stroke-width:1" x1="537.7475077024308" x2="498.0112892279853" y1="145.35199065816204"/>
<line y2="455.34325706831856" style="stroke:rgb(0,0,0);stroke-width:1" x1="529.7889811237326" x2="534.3182653175721" y1="480.32367521022786"/>
<line y2="444.5298038979567" style="stroke:rgb(0,0,0);stroke-width:1" x1="534.3182653175721" x2="522.1973574987945" y1="455.34325706831856"/>
<line y2="201.25851191765676" style="stroke:rgb(0,0,0);stroke-width:1" x1="537.4413221255746" x2="564.6916552639213" y1="236.92157024965678"/>
<line y2="182.56724123865118" style="stroke:rgb(0,0,0);stroke-width:1" x1="564.6916552639213" x2="556.2518115765549" y1="201.25851191765676"/>
<line y2="179.1003887946169" style="stroke:rgb(0,0,0);stroke-width:1" x1="556.2518115765549" x2="536.1981972717407" y1="182.56724123865118"/>
<line y2="416.14288079012493" style="stroke:rgb(0,0,0);stroke-width:1" x1="531.3772675891842" x2="551.1185815176084" y1="418.69764511472124"/>
<line y2="393.921796773067" style="stroke:rgb(0,0,0);stroke-width:1" x1="551.1185815176084" x2="559.7365244011944" y1="416.14288079012493"/>
<line y2="372.8760033626547" style="stroke:rgb(0,0,0);stroke-width:1" x1="559.7365244011944" x2="543.5195544467095" y1="393.921796773067"/>
<line y2="452.83497233192304" style="stroke:rgb(0,0,0);stroke-width:1" x1="534.3182653175721" x2="555.6145576939986" y1="455.34325706831856"/>
<line y2="429.61740654184734" style="stroke:rgb(0,0,0);stroke-width:1" x1="555.6145576939986" x2="562.2452278578426" y1="452.83497233192304"/>
<line y2="416.14288079012493" style="stroke:rgb(0,0,0);stroke-width:1" x1="562.2452278578426" x2="551.1185815176084" y1="429.61740654184734"/>
<line y2="353.04371893797077" style="stroke:rgb(0,0,0);stroke-width:1" x1="546.7137923047295" x2="556.7956423276311" y1="358.91077459151893"/>
<line y2="319.3571633933907" style="stroke:rgb(0,0,0);stroke-width:1" x1="556.7956423276311" x2="563.5012261535051" y1="353.04371893797077"/>
<line y2="293.76078204161166" style="stroke:rgb(0,0,0);stroke-width:1" x1="563.5012261535051" x2="538.1834199050745" y1="319.3571633933907"/>
<line y2="483.929445733801" style="stroke:rgb(0,0,0);stroke-width:1" x1="535.9676929273378" x2="559.4691862183505" y1="487.71034021780986"/>
<line y2="462.139756945424" style="stroke:rgb(0,0,0);stroke-width:1" x1="559.4691862183505" x2="563.5165203119923" y1="483.929445733801"/>
<line y2="452.83497233192304" style="stroke:rgb(0,0,0);stroke-width:1" x1="563.5165203119923" x2="555.6145576939986" y1="462.139756945424"/>
<line y2="144.7428901182365" style="stroke:rgb(0,0,0);stroke-width:1" x1="537.7475077024308" x2="538.6410352998828" y1="145.35199065816204"/>
<line y2="111.77098007793265" style="stroke:rgb(0,0,0);stroke-width:1" x1="538.6410352998828" x2="539.9793358703306" y1="144.7428901182365"/>
<line y2="165.95850757340867" style="stroke:rgb(0,0,0);stroke-width:1" x1="556.2518115765549" x2="569.6931633729719" y1="182.56724123865118"/>
<line y2="146.2175911153226" style="stroke:rgb(0,0,0);stroke-width:1" x1="569.6931633729719" x2="558.6513805468522" y1="165.95850757340867"/>
<line y2="144.7428901182365" style="stroke:rgb(0,0,0);stroke-width:1" x1="558.6513805468522" x2="538.6410352998828" y1="146.2175911153226"/>
<line y2="387.8991166432585" style="stroke:rgb(0,0,0);stroke-width:1" x1="1147.568175315857" x2="1147.568175315857" y1="411.107029874151"/>
<line y2="377.7380017078866" style="stroke:rgb(0,0,0);stroke-width:1" x1="1147.568175315857" x2="693.7788888593552" y1="387.8991166432585"/>
<line y2="393.921796773067" style="stroke:rgb(0,0,0);stroke-width:1" x1="693.7788888593552" x2="559.7365244011944" y1="377.7380017078866"/>
<line y2="411.107029874151" style="stroke:rgb(0,0,0);stroke-width:1" x1="562.2452278578426" x2="1147.568175315857" y1="429.61740654184734"/>
<line y2="58.34071617371821" style="stroke:rgb(0,0,0);stroke-width:1" x1="552.1732287139552" x2="562.521863824537" y1="70.82570136520638"/>
<line y2="34.121761078009335" style="stroke:rgb(0,0,0);stroke-width:1" x1="562.521863824537" x2="557.6118860300132" y1="58.34071617371821"/>
<line y2="77.31120459228552" style="stroke:rgb(0,0,0);stroke-width:1" x1="563.4759760787897" x2="770.0061737149235" y1="93.63570622104106"/>
<line y2="58.34071617371821" style="stroke:rgb(0,0,0);stroke-width:1" x1="770.0061737149235" x2="562.521863824537" y1="77.31120459228552"/>
<line y2="353.04371893797077" style="stroke:rgb(0,0,0);stroke-width:1" x1="693.7788888593552" x2="556.7956423276311" y1="377.7380017078866"/>
<line y2="129.05640899044508" style="stroke:rgb(0,0,0);stroke-width:1" x1="558.6513805468522" x2="572.5880853039345" y1="146.2175911153226"/>
<line y2="107.38882416926762" style="stroke:rgb(0,0,0);stroke-width:1" x1="572.5880853039345" x2="555.8629959295497" y1="129.05640899044508"/>
<line y2="308.38566110013096" style="stroke:rgb(0,0,0);stroke-width:1" x1="1147.568175315857" x2="1147.568175315857" y1="341.02530131723825"/>
<line y2="277.1128378961115" style="stroke:rgb(0,0,0);stroke-width:1" x1="1147.568175315857" x2="547.305173600636" y1="308.38566110013096"/>
<line y2="341.02530131723825" style="stroke:rgb(0,0,0);stroke-width:1" x1="563.5012261535051" x2="1147.568175315857" y1="319.3571633933907"/>
<line y2="215.71265661616528" style="stroke:rgb(0,0,0);stroke-width:1" x1="542.8838419201348" x2="697.2738326202632" y1="244.34569637817535"/>
<line y2="201.25851191765676" style="stroke:rgb(0,0,0);stroke-width:1" x1="697.2738326202632" x2="564.6916552639213" y1="215.71265661616528"/>
<line y2="490.73822888989093" style="stroke:rgb(0,0,0);stroke-width:1" x1="564.5958651582827" x2="566.0239084468934" y1="510.38931419195353"/>
<line y2="483.929445733801" style="stroke:rgb(0,0,0);stroke-width:1" x1="566.0239084468934" x2="559.4691862183505" y1="490.73822888989093"/>
<line y2="183.75594418881147" style="stroke:rgb(0,0,0);stroke-width:1" x1="1147.568175315857" x2="1147.568175315857" y1="198.7594136154305"/>
<line y2="165.95850757340867" style="stroke:rgb(0,0,0);stroke-width:1" x1="1147.568175315857" x2="569.6931633729719" y1="183.75594418881147"/>
<line y2="198.7594136154305" style="stroke:rgb(0,0,0);stroke-width:1" x1="697.2738326202632" x2="1147.568175315857" y1="215.71265661616528"/>
<line y2="411.107029874151" style="stroke:rgb(0,0,0);stroke-width:1" x1="1147.568175315857" x2="1147.568175315857" y1="429.3533185471438"/>
<line y2="437.7707360809379" style="stroke:rgb(0,0,0);stroke-width:1" x1="563.5165203119923" x2="1041.4673102159597" y1="462.139756945424"/>
<line y2="429.3533185471438" style="stroke:rgb(0,0,0);stroke-width:1" x1="1041.4673102159597" x2="1147.568175315857" y1="437.7707360809379"/>
<line y2="437.7707360809379" style="stroke:rgb(0,0,0);stroke-width:1" x1="566.0239084468934" x2="1041.4673102159597" y1="490.73822888989093"/>
<line y2="341.02530131723825" style="stroke:rgb(0,0,0);stroke-width:1" x1="1147.568175315857" x2="1147.568175315857" y1="387.8991166432585"/>
<line y2="78.5646547356516" style="stroke:rgb(0,0,0);stroke-width:1" x1="1147.568175315857" x2="1147.568175315857" y1="117.07830248731432"/>
<line y2="77.31120459228552" style="stroke:rgb(0,0,0);stroke-width:1" x1="1147.568175315857" x2="770.0061737149235" y1="78.5646547356516"/>
<line y2="117.07830248731432" style="stroke:rgb(0,0,0);stroke-width:1" x1="572.5880853039345" x2="1147.568175315857" y1="129.05640899044508"/>
<line y2="-192.08434681305457" style="stroke:rgb(0,0,0);stroke-width:1" x1="1147.568175315857" x2="1147.568175315857" y1="78.5646547356516"/>
<line y2="117.07830248731432" style="stroke:rgb(0,0,0);stroke-width:1" x1="1147.568175315857" x2="1147.568175315857" y1="183.75594418881147"/>
<line y2="429.3533185471438" style="stroke:rgb(0,0,0);stroke-width:1" x1="1147.568175315857" x2="1147.568175315857" y1="704.0275382983302"/>
<line y2="198.7594136154305" style="stroke:rgb(0,0,0);stroke-width:1" x1="1147.568175315857" x2="1147.568175315857" y1="308.38566110013096"/>
</svg>
