<?xml version="1.0" encoding="UTF-8"?><svg xmlns="http://www.w3.org/2000/svg" xmlns:xlink="http://www.w3.org/1999/xlink" contentScriptType="text/ecmascript" width="326.0" zoomAndPan="magnify" contentStyleType="text/css" height="182.0" preserveAspectRatio="xMidYMid meet" version="1.0">
<line y2="47.0" style="stroke:rgb(0,0,0);stroke-width:1" x1="30.0" x2="13.0" y1="18.0"/>
<line y2="18.0" style="stroke:rgb(0,0,0);stroke-width:1" x1="71.0" x2="30.0" y1="22.0"/>
<line y2="47.0" style="stroke:rgb(0,0,0);stroke-width:1" x1="50.0" x2="13.0" y1="57.0"/>
<line y2="57.0" style="stroke:rgb(0,0,0);stroke-width:1" x1="96.0" x2="50.0" y1="74.0"/>
<line y2="22.0" style="stroke:rgb(0,0,0);stroke-width:1" x1="115.0" x2="71.0" y1="26.0"/>
<line y2="57.0" style="stroke:rgb(0,0,0);stroke-width:1" x1="71.0" x2="50.0" y1="22.0"/>
<line y2="74.0" style="stroke:rgb(0,0,0);stroke-width:1" x1="106.0" x2="96.0" y1="48.0"/>
<line y2="74.0" style="stroke:rgb(0,0,0);stroke-width:1" x1="141.0" x2="96.0" y1="91.0"/>
<line y2="26.0" style="stroke:rgb(0,0,0);stroke-width:1" x1="163.0" x2="115.0" y1="30.0"/>
<line y2="48.0" style="stroke:rgb(0,0,0);stroke-width:1" x1="150.0" x2="106.0" y1="58.0"/>
<line y2="48.0" style="stroke:rgb(0,0,0);stroke-width:1" x1="115.0" x2="106.0" y1="26.0"/>
<line y2="58.0" style="stroke:rgb(0,0,0);stroke-width:1" x1="163.0" x2="150.0" y1="30.0"/>
<line y2="91.0" style="stroke:rgb(0,0,0);stroke-width:1" x1="150.0" x2="141.0" y1="58.0"/>
<path style="fill:none;stroke-width:6" d="M22.0,33.0 C11.517845138640254,38.21866677951482 7.349024843909946,42.37323868357335 2.094501022531041,52.83746502400105 C11.786934614361908,60.67619308334867 20.289159289110653,56.271432589264634 32.0,52.0" stroke="black"/>
<path style="stroke-linecap:round;fill:none;stroke-width:4" d="M22.0,33.0 C11.517845138640254,38.21866677951482 7.349024843909946,42.37323868357335 2.094501022531041,52.83746502400105 C11.786934614361908,60.67619308334867 20.289159289110653,56.271432589264634 32.0,52.0" stroke="red"/>
<path style="fill:none;stroke-width:6" d="M32.0,52.0 C41.47024264982842,47.34463759540076 51.07800363811391,43.67038533838407 61.0,40.0" stroke="black"/>
<path style="stroke-linecap:round;fill:none;stroke-width:4" d="M32.0,52.0 C41.47024264982842,47.34463759540076 51.07800363811391,43.67038533838407 61.0,40.0" stroke="red"/>
<path style="fill:none;stroke-width:6" d="M61.0,40.0 C72.45825385666768,35.761316027029736 81.30789846825016,27.668097819433427 93.0,24.0" stroke="black"/>
<path style="stroke-linecap:round;fill:none;stroke-width:4" d="M61.0,40.0 C72.45825385666768,35.761316027029736 81.30789846825016,27.668097819433427 93.0,24.0" stroke="red"/>
<path style="fill:none;stroke-width:6" d="M93.0,24.0 C113.67851470442154,17.51264488334811 123.85258400200448,12.478630023490316 139.0,28.0" stroke="black"/>
<path style="stroke-linecap:round;fill:none;stroke-width:4" d="M93.0,24.0 C113.67851470442154,17.51264488334811 123.85258400200448,12.478630023490316 139.0,28.0" stroke="red"/>
<path style="fill:none;stroke-width:6" d="M139.0,28.0 C144.66244331958356,33.802235691282426 156.95557391407658,34.88608924544192 157.0,44.0" stroke="black"/>
<path style="stroke-linecap:round;fill:none;stroke-width:4" d="M139.0,28.0 C144.66244331958356,33.802235691282426 156.95557391407658,34.88608924544192 157.0,44.0" stroke="red"/>
<path style="fill:none;stroke-width:6" d="M157.0,44.0 C157.06940646060943,58.238577957883 159.29735351629031,69.32144305507998 146.0,75.0" stroke="black"/>
<path style="stroke-linecap:round;fill:none;stroke-width:4" d="M157.0,44.0 C157.06940646060943,58.238577957883 159.29735351629031,69.32144305507998 146.0,75.0" stroke="red"/>
<path style="fill:none;stroke-width:6" d="M146.0,75.0 C137.13151745608718,78.78723353326981 128.46909443430422,82.66751258392043 119.0,83.0" stroke="black"/>
<path style="stroke-linecap:round;fill:none;stroke-width:4" d="M146.0,75.0 C137.13151745608718,78.78723353326981 128.46909443430422,82.66751258392043 119.0,83.0" stroke="red"/>
<path style="fill:none;stroke-width:6" d="M119.0,83.0 C96.0577330263481,83.80556964744622 82.67353888708686,86.9871014144537 73.0,66.0" stroke="black"/>
<path style="stroke-linecap:round;fill:none;stroke-width:4" d="M119.0,83.0 C96.0577330263481,83.80556964744622 82.67353888708686,86.9871014144537 73.0,66.0" stroke="red"/>
<path style="fill:none;stroke-width:6" d="M73.0,66.0 C69.00309595363878,57.32856842320665 64.37168431046125,49.114530594913866 61.0,40.0" stroke="black"/>
<path style="stroke-linecap:round;fill:none;stroke-width:4" d="M73.0,66.0 C69.00309595363878,57.32856842320665 64.37168431046125,49.114530594913866 61.0,40.0" stroke="red"/>
<path style="fill:none;stroke-width:6" d="M61.0,40.0 C58.35075568064054,32.83841066398643 58.44547875084699,21.74832320399077 51.0,20.0" stroke="black"/>
<path style="stroke-linecap:round;fill:none;stroke-width:4" d="M61.0,40.0 C58.35075568064054,32.83841066398643 58.44547875084699,21.74832320399077 51.0,20.0" stroke="red"/>
<path style="fill:none;stroke-width:6" d="M51.0,20.0 C20.9268145617492,12.939722555268805 12.890471149506602,9.487746085880485 22.0,33.0" stroke="black"/>
<path style="stroke-linecap:round;fill:none;stroke-width:4" d="M51.0,20.0 C20.9268145617492,12.939722555268805 12.890471149506602,9.487746085880485 22.0,33.0" stroke="red"/>
<path style="fill:none;stroke-width:6" d="M22.0,33.0 C24.65467384415274,39.84780617309235 26.476261670593452,47.44842983139004 32.0,52.0" stroke="black"/>
<path style="stroke-linecap:round;fill:none;stroke-width:4" d="M22.0,33.0 C24.65467384415274,39.84780617309235 26.476261670593452,47.44842983139004 32.0,52.0" stroke="red"/>
<path style="fill:none;stroke-width:6" d="M32.0,52.0 C46.83112252942872,64.22087123725127 53.97382402607213,71.97012184482668 73.0,66.0" stroke="black"/>
<path style="stroke-linecap:round;fill:none;stroke-width:4" d="M32.0,52.0 C46.83112252942872,64.22087123725127 53.97382402607213,71.97012184482668 73.0,66.0" stroke="red"/>
<path style="fill:none;stroke-width:6" d="M73.0,66.0 C82.34398315668705,63.06800157646637 91.8416989948068,64.37566599586805 101.0,61.0" stroke="black"/>
<path style="stroke-linecap:round;fill:none;stroke-width:4" d="M73.0,66.0 C82.34398315668705,63.06800157646637 91.8416989948068,64.37566599586805 101.0,61.0" stroke="red"/>
<path style="fill:none;stroke-width:6" d="M101.0,61.0 C109.88315742119175,57.72574941294722 119.14321667815217,57.0771485200301 128.0,53.0" stroke="black"/>
<path style="stroke-linecap:round;fill:none;stroke-width:4" d="M101.0,61.0 C109.88315742119175,57.72574941294722 119.14321667815217,57.0771485200301 128.0,53.0" stroke="red"/>
<path style="fill:none;stroke-width:6" d="M128.0,53.0 C137.5196194481566,48.617720233873406 149.0698001496476,50.314788769725084 157.0,44.0" stroke="black"/>
<path style="stroke-linecap:round;fill:none;stroke-width:4" d="M128.0,53.0 C137.5196194481566,48.617720233873406 149.0698001496476,50.314788769725084 157.0,44.0" stroke="red"/>
<path style="fill:none;stroke-width:6" d="M157.0,44.0 C166.44194885139393,36.88712618436162 169.81367955951353,31.99465800616661 173.09951435124566,20.639189642819534 C161.32487598853933,12.116549627270702 151.50914463388992,20.597378711863392 139.0,28.0" stroke="black"/>
<path style="stroke-linecap:round;fill:none;stroke-width:4" d="M157.0,44.0 C166.44194885139393,36.88712618436162 169.81367955951353,31.99465800616661 173.09951435124566,20.639189642819534 C161.32487598853933,12.116549627270702 151.50914463388992,20.597378711863392 139.0,28.0" stroke="red"/>
<path style="fill:none;stroke-width:6" d="M139.0,28.0 C129.73049068855727,33.144016671163364 117.94769706648962,30.036386122603677 111.0,37.0" stroke="black"/>
<path style="stroke-linecap:round;fill:none;stroke-width:4" d="M139.0,28.0 C129.73049068855727,33.144016671163364 117.94769706648962,30.036386122603677 111.0,37.0" stroke="red"/>
<path style="fill:none;stroke-width:6" d="M111.0,37.0 C102.39700111468541,45.62270790618549 94.39138199253475,50.268737348535815 101.0,61.0" stroke="black"/>
<path style="stroke-linecap:round;fill:none;stroke-width:4" d="M111.0,37.0 C102.39700111468541,45.62270790618549 94.39138199253475,50.268737348535815 101.0,61.0" stroke="red"/>
<path style="fill:none;stroke-width:6" d="M101.0,61.0 C106.15062149040052,69.36372626914228 112.34460630282163,75.79758764277959 119.0,83.0" stroke="black"/>
<path style="stroke-linecap:round;fill:none;stroke-width:4" d="M101.0,61.0 C106.15062149040052,69.36372626914228 112.34460630282163,75.79758764277959 119.0,83.0" stroke="red"/>
<path style="fill:none;stroke-width:6" d="M119.0,83.0 C126.73253341222795,95.91247024785504 132.4721077295917,100.8405912749284 146.40561660808712,106.53104742587567 C153.24346476681723,95.31152116721209 150.31491432881657,87.41029617880508 146.0,75.0" stroke="black"/>
<path style="stroke-linecap:round;fill:none;stroke-width:4" d="M119.0,83.0 C126.73253341222795,95.91247024785504 132.4721077295917,100.8405912749284 146.40561660808712,106.53104742587567 C153.24346476681723,95.31152116721209 150.31491432881657,87.41029617880508 146.0,75.0" stroke="red"/>
<path style="fill:none;stroke-width:6" d="M146.0,75.0 C140.55681094115445,67.08518535206949 134.06750864244938,60.36945564528008 128.0,53.0" stroke="black"/>
<path style="stroke-linecap:round;fill:none;stroke-width:4" d="M146.0,75.0 C140.55681094115445,67.08518535206949 134.06750864244938,60.36945564528008 128.0,53.0" stroke="red"/>
<path style="fill:none;stroke-width:6" d="M128.0,53.0 C122.88924190431999,46.79259143755161 116.29854611582154,43.67153730306981 111.0,37.0" stroke="black"/>
<path style="stroke-linecap:round;fill:none;stroke-width:4" d="M128.0,53.0 C122.88924190431999,46.79259143755161 116.29854611582154,43.67153730306981 111.0,37.0" stroke="red"/>
<path style="fill:none;stroke-width:6" d="M111.0,37.0 C105.60682997084312,30.209319265169896 99.75578050494467,27.564538430007726 93.0,24.0" stroke="black"/>
<path style="stroke-linecap:round;fill:none;stroke-width:4" d="M111.0,37.0 C105.60682997084312,30.209319265169896 99.75578050494467,27.564538430007726 93.0,24.0" stroke="red"/>
<path style="fill:none;stroke-width:6" d="M93.0,24.0 C75.48106124769376,14.756518748671429 67.86248216914012,9.550247727497666 51.0,20.0" stroke="black"/>
<path style="stroke-linecap:round;fill:none;stroke-width:4" d="M93.0,24.0 C75.48106124769376,14.756518748671429 67.86248216914012,9.550247727497666 51.0,20.0" stroke="red"/>
<path style="fill:none;stroke-width:6" d="M51.0,20.0 C41.66273876207447,25.78634069772516 31.00374048332781,27.140422860056503 22.0,33.0" stroke="black"/>
<path style="stroke-linecap:round;fill:none;stroke-width:4" d="M51.0,20.0 C41.66273876207447,25.78634069772516 31.00374048332781,27.140422860056503 22.0,33.0" stroke="red"/>
<path style="stroke-linecap:none;fill:none;stroke-width:6" d="M37.70006152679305,49.316697829118766 C35.79359779346965,50.17709944406361 33.89404852996569,51.068927519080155 32.0,52.0 C32.0,52.0 27.444008357089892,53.713906151898634 25.32333889817749,54.479844370471106" stroke="black"/>
<path style="stroke-linecap:round;fill:none;stroke-width:4" d="M37.70006152679305,49.316697829118766 C35.79359779346965,50.17709944406361 33.89404852996569,51.068927519080155 32.0,52.0 C32.0,52.0 27.444008357089892,53.713906151898634 25.32333889817749,54.479844370471106" stroke="red"/>
<path style="stroke-linecap:none;fill:none;stroke-width:6" d="M104.27039771069033,20.434804117460747 C100.85122806549509,21.46319156361101 97.13570294088431,22.702528976669626 93.0,24.0 C90.66157969365003,24.733619563886688 88.43685766410675,25.644243943299887 86.28222538204815,26.665635901257293" stroke="black"/>
<path style="stroke-linecap:round;fill:none;stroke-width:4" d="M104.27039771069033,20.434804117460747 C100.85122806549509,21.46319156361101 97.13570294088431,22.702528976669626 93.0,24.0 C90.66157969365003,24.733619563886688 88.43685766410675,25.644243943299887 86.28222538204815,26.665635901257293" stroke="red"/>
<path style="stroke-linecap:none;fill:none;stroke-width:6" d="M157.1591980184379,52.146472469114755 C157.11410420804665,49.569202668725765 157.01388129212188,46.8477155915766 157.0,44.0 C156.99111478281532,42.177217849088386 156.49228138528787,40.67563798619271 155.65453494168543,39.39327289661281" stroke="black"/>
<path style="stroke-linecap:round;fill:none;stroke-width:4" d="M157.1591980184379,52.146472469114755 C157.11410420804665,49.569202668725765 157.01388129212188,46.8477155915766 157.0,44.0 C156.99111478281532,42.177217849088386 156.49228138528787,40.67563798619271 155.65453494168543,39.39327289661281" stroke="red"/>
<path style="stroke-linecap:none;fill:none;stroke-width:6" d="M106.33482921527803,83.55610048040691 C110.20541612391489,83.41726634376094 114.41154660526962,83.16111392948925 119.0,83.0 C120.89381888686084,82.93350251678409 122.75537091722084,82.72509336818533 124.5927579385572,82.40389925141935" stroke="black"/>
<path style="stroke-linecap:round;fill:none;stroke-width:4" d="M106.33482921527803,83.55610048040691 C110.20541612391489,83.41726634376094 114.41154660526962,83.16111392948925 119.0,83.0 C120.89381888686084,82.93350251678409 122.75537091722084,82.72509336818533 124.5927579385572,82.40389925141935" stroke="red"/>
<path style="stroke-linecap:none;fill:none;stroke-width:6" d="M59.65745614144729,35.3377887225539 C60.05006096783886,36.978224340635286 60.47015113612811,38.56768213279729 61.0,40.0 C61.67433686209225,41.82290611898277 62.399062817493146,43.6097925273007 63.159023986766435,45.371522317074756" stroke="black"/>
<path style="stroke-linecap:round;fill:none;stroke-width:4" d="M59.65745614144729,35.3377887225539 C60.05006096783886,36.978224340635286 60.47015113612811,38.56768213279729 61.0,40.0 C61.67433686209225,41.82290611898277 62.399062817493146,43.6097925273007 63.159023986766435,45.371522317074756" stroke="red"/>
<path style="stroke-linecap:none;fill:none;stroke-width:6" d="M23.529115876531627,37.168606834280915 C23.028546096952617,35.76923516864516 22.530934768830548,34.36956123461847 22.0,33.0 C20.178094229901323,28.297549217176098 19.042023350312082,24.67366764969251 18.63091511933846,21.941507862283913" stroke="black"/>
<path style="stroke-linecap:round;fill:none;stroke-width:4" d="M23.529115876531627,37.168606834280915 C23.028546096952617,35.76923516864516 22.530934768830548,34.36956123461847 22.0,33.0 C20.178094229901323,28.297549217176098 19.042023350312082,24.67366764969251 18.63091511933846,21.941507862283913" stroke="red"/>
<path style="stroke-linecap:none;fill:none;stroke-width:6" d="M78.62089263566929,64.67817654096643 C76.74374256993214,64.99678714430397 74.86879663133742,65.41360031529328 73.0,66.0 C69.19476480521443,67.19402436896533 65.86486858952023,67.83927383983459 62.853736188836855,68.00973042718957" stroke="black"/>
<path style="stroke-linecap:round;fill:none;stroke-width:4" d="M78.62089263566929,64.67817654096643 C76.74374256993214,64.99678714430397 74.86879663133742,65.41360031529328 73.0,66.0 C69.19476480521443,67.19402436896533 65.86486858952023,67.83927383983459 62.853736188836855,68.00973042718957" stroke="red"/>
<path style="stroke-linecap:none;fill:none;stroke-width:6" d="M133.9102346824583,50.98742429170101 C131.88907022939603,51.4902620256285 129.90392388963133,52.12354404677469 128.0,53.0 C126.22864333563044,53.81542970400602 124.44115563385637,54.493717502927524 122.64377831684484,55.08329697533449" stroke="black"/>
<path style="stroke-linecap:round;fill:none;stroke-width:4" d="M133.9102346824583,50.98742429170101 C131.88907022939603,51.4902620256285 129.90392388963133,52.12354404677469 128.0,53.0 C126.22864333563044,53.81542970400602 124.44115563385637,54.493717502927524 122.64377831684484,55.08329697533449" stroke="red"/>
<path style="stroke-linecap:none;fill:none;stroke-width:6" d="M133.195487342789,30.24279546949669 C135.1916649029979,29.727540779676428 137.14609813771145,29.028803334232677 139.0,28.0 C139.0,28.0 143.89592132238636,24.995823172887114 146.2194957491235,23.573695706716087" stroke="black"/>
<path style="stroke-linecap:round;fill:none;stroke-width:4" d="M133.195487342789,30.24279546949669 C135.1916649029979,29.727540779676428 137.14609813771145,29.028803334232677 139.0,28.0 C139.0,28.0 143.89592132238636,24.995823172887114 146.2194957491235,23.573695706716087" stroke="red"/>
<path style="stroke-linecap:none;fill:none;stroke-width:6" d="M104.2109208573847,65.80823930105748 C103.10198312904105,64.26829591183672 102.03012429808012,62.67274525382846 101.0,61.0 C99.67827639850695,58.853747469707166 98.94112228219855,56.95090426777888 98.67640279214315,55.21097510083156" stroke="black"/>
<path style="stroke-linecap:round;fill:none;stroke-width:4" d="M104.2109208573847,65.80823930105748 C103.10198312904105,64.26829591183672 102.03012429808012,62.67274525382846 101.0,61.0 C99.67827639850695,58.853747469707166 98.94112228219855,56.95090426777888 98.67640279214315,55.21097510083156" stroke="red"/>
<path style="stroke-linecap:none;fill:none;stroke-width:6" d="M142.6202962310785,70.38017891714158 C143.78087984686744,71.88203753847344 144.9113621882309,73.4170370704139 146.0,75.0 C146.0,75.0 147.670511175894,79.7837556239061 148.35554465274475,81.96770814412051" stroke="black"/>
<path style="stroke-linecap:round;fill:none;stroke-width:4" d="M142.6202962310785,70.38017891714158 C143.78087984686744,71.88203753847344 144.9113621882309,73.4170370704139 146.0,75.0 C146.0,75.0 147.670511175894,79.7837556239061 148.35554465274475,81.96770814412051" stroke="red"/>
<path style="stroke-linecap:none;fill:none;stroke-width:6" d="M107.70557763727847,33.38257428710598 C108.8244168108676,34.449563702054675 109.92136599416864,35.64186385303398 111.0,37.0 C112.05970922316432,38.334307460613964 113.17110443323568,39.526595594484405 114.31200893129018,40.629959102383765" stroke="black"/>
<path style="stroke-linecap:round;fill:none;stroke-width:4" d="M107.70557763727847,33.38257428710598 C108.8244168108676,34.449563702054675 109.92136599416864,35.64186385303398 111.0,37.0 C112.05970922316432,38.334307460613964 113.17110443323568,39.526595594484405 114.31200893129018,40.629959102383765" stroke="red"/>
<path style="stroke-linecap:none;fill:none;stroke-width:6" d="M45.26285077103607,23.011435422491882 C47.21222602319695,22.137245937674308 49.1325477524149,21.15726813954503 51.0,20.0 C54.372496433828026,17.910049545499533 57.37523674403259,16.44634002274611 60.161375032728415,15.51592092723156" stroke="black"/>
<path style="stroke-linecap:round;fill:none;stroke-width:4" d="M45.26285077103607,23.011435422491882 C47.21222602319695,22.137245937674308 49.1325477524149,21.15726813954503 51.0,20.0 C54.372496433828026,17.910049545499533 57.37523674403259,16.44634002274611 60.161375032728415,15.51592092723156" stroke="red"/>
</svg>
