<?xml version="1.0" encoding="UTF-8"?><svg xmlns="http://www.w3.org/2000/svg" xmlns:xlink="http://www.w3.org/1999/xlink" contentScriptType="text/ecmascript" width="326.0" zoomAndPan="magnify" contentStyleType="text/css" height="182.0" preserveAspectRatio="xMidYMid meet" version="1.0">
<path style="fill:none;stroke-width:10" d="M22.0,33.0 C11.30711547306644,37.77203038410322 3.7703010923537637,41.248601938300126 2.094501022531041,52.83746502400105 C12.272366937687622,60.03468476036794 20.487821919794932,56.78107544074565 32.0,52.0" stroke="black"/>
<path style="stroke-linecap:round;fill:none;stroke-width:6" d="M22.0,33.0 C11.30711547306644,37.77203038410322 3.7703010923537637,41.248601938300126 2.094501022531041,52.83746502400105 C12.272366937687622,60.03468476036794 20.487821919794932,56.78107544074565 32.0,52.0" stroke="red"/>
<path style="fill:none;stroke-width:10" d="M32.0,52.0 C41.74558631167373,47.9526005378141 51.53430823296734,44.72423747381899 61.0,40.0" stroke="black"/>
<path style="stroke-linecap:round;fill:none;stroke-width:6" d="M32.0,52.0 C41.74558631167373,47.9526005378141 51.53430823296734,44.72423747381899 61.0,40.0" stroke="red"/>
<path style="fill:none;stroke-width:10" d="M61.0,40.0 C71.93129802105794,34.54429226943292 82.0523948374977,29.505462836822396 93.0,24.0" stroke="black"/>
<path style="stroke-linecap:round;fill:none;stroke-width:6" d="M61.0,40.0 C71.93129802105794,34.54429226943292 82.0523948374977,29.505462836822396 93.0,24.0" stroke="red"/>
<path style="fill:none;stroke-width:10" d="M93.0,24.0 C112.36180708970672,14.263102495583595 122.81085862971304,13.568477590465726 139.0,28.0" stroke="black"/>
<path style="stroke-linecap:round;fill:none;stroke-width:6" d="M93.0,24.0 C112.36180708970672,14.263102495583595 122.81085862971304,13.568477590465726 139.0,28.0" stroke="red"/>
<path style="fill:none;stroke-width:10" d="M139.0,28.0 C145.05186359271482,33.3948262641035 150.2180571160477,37.911437473592905 157.0,44.0" stroke="black"/>
<path style="stroke-linecap:round;fill:none;stroke-width:6" d="M139.0,28.0 C145.05186359271482,33.3948262641035 150.2180571160477,37.911437473592905 157.0,44.0" stroke="red"/>
<path style="fill:none;stroke-width:10" d="M157.0,44.0 C167.59536625490546,53.51210457490332 159.8538299076585,70.86031204031451 146.0,75.0" stroke="black"/>
<path style="stroke-linecap:round;fill:none;stroke-width:6" d="M157.0,44.0 C167.59536625490546,53.51210457490332 159.8538299076585,70.86031204031451 146.0,75.0" stroke="red"/>
<path style="fill:none;stroke-width:10" d="M146.0,75.0 C136.76038336862368,77.76090654901674 128.08087204744342,80.29591787373546 119.0,83.0" stroke="black"/>
<path style="stroke-linecap:round;fill:none;stroke-width:6" d="M146.0,75.0 C136.76038336862368,77.76090654901674 128.08087204744342,80.29591787373546 119.0,83.0" stroke="red"/>
<path style="fill:none;stroke-width:10" d="M119.0,83.0 C96.99834056873803,89.55160580453115 82.68389387833092,86.98232541292245 73.0,66.0" stroke="black"/>
<path style="stroke-linecap:round;fill:none;stroke-width:6" d="M119.0,83.0 C96.99834056873803,89.55160580453115 82.68389387833092,86.98232541292245 73.0,66.0" stroke="red"/>
<path style="fill:none;stroke-width:10" d="M73.0,66.0 C68.99881748772401,57.3305417671988 65.3432213469673,48.693638558525365 61.0,40.0" stroke="black"/>
<path style="stroke-linecap:round;fill:none;stroke-width:6" d="M73.0,66.0 C68.99881748772401,57.3305417671988 65.3432213469673,48.693638558525365 61.0,40.0" stroke="red"/>
<path style="fill:none;stroke-width:10" d="M61.0,40.0 C57.587386771212934,33.169119512678535 54.435634454863006,26.83287668171208 51.0,20.0" stroke="black"/>
<path style="stroke-linecap:round;fill:none;stroke-width:6" d="M61.0,40.0 C57.587386771212934,33.169119512678535 54.435634454863006,26.83287668171208 51.0,20.0" stroke="red"/>
<path style="fill:none;stroke-width:10" d="M51.0,20.0 C37.121976640057305,-7.5979069427535535 10.311747808473209,10.657342129744968 22.0,33.0" stroke="black"/>
<path style="stroke-linecap:round;fill:none;stroke-width:6" d="M51.0,20.0 C37.121976640057305,-7.5979069427535535 10.311747808473209,10.657342129744968 22.0,33.0" stroke="red"/>
<path style="fill:none;stroke-width:10" d="M22.0,33.0 C25.405701963261208,39.506991373938426 28.66412268922445,45.66751243988683 32.0,52.0" stroke="black"/>
<path style="stroke-linecap:round;fill:none;stroke-width:6" d="M22.0,33.0 C25.405701963261208,39.506991373938426 28.66412268922445,45.66751243988683 32.0,52.0" stroke="red"/>
<path style="fill:none;stroke-width:10" d="M32.0,52.0 C40.956761198456114,69.00259739317009 53.37866341361477,69.55540118646647 73.0,66.0" stroke="black"/>
<path style="stroke-linecap:round;fill:none;stroke-width:6" d="M32.0,52.0 C40.956761198456114,69.00259739317009 53.37866341361477,69.55540118646647 73.0,66.0" stroke="red"/>
<path style="fill:none;stroke-width:10" d="M73.0,66.0 C82.63627366981727,64.25389984581597 91.63852611958433,63.76268076398229 101.0,61.0" stroke="black"/>
<path style="stroke-linecap:round;fill:none;stroke-width:6" d="M73.0,66.0 C82.63627366981727,64.25389984581597 91.63852611958433,63.76268076398229 101.0,61.0" stroke="red"/>
<path style="fill:none;stroke-width:10" d="M101.0,61.0 C110.08022635715422,58.32031867951961 118.68767285634641,55.88899879441268 128.0,53.0" stroke="black"/>
<path style="stroke-linecap:round;fill:none;stroke-width:6" d="M101.0,61.0 C110.08022635715422,58.32031867951961 118.68767285634641,55.88899879441268 128.0,53.0" stroke="red"/>
<path style="fill:none;stroke-width:10" d="M128.0,53.0 C138.00925588476807,49.894790342092975 147.3197366629216,47.00950637108336 157.0,44.0" stroke="black"/>
<path style="stroke-linecap:round;fill:none;stroke-width:6" d="M128.0,53.0 C138.00925588476807,49.894790342092975 147.3197366629216,47.00950637108336 157.0,44.0" stroke="red"/>
<path style="fill:none;stroke-width:10" d="M157.0,44.0 C168.28836273192456,40.49055006275479 173.5732121567922,32.45100501635777 173.09951435124566,20.639189642819534 C159.892806978202,14.567914507401607 152.8205955190062,23.497929264529873 139.0,28.0" stroke="black"/>
<path style="stroke-linecap:round;fill:none;stroke-width:6" d="M157.0,44.0 C168.28836273192456,40.49055006275479 173.5732121567922,32.45100501635777 173.09951435124566,20.639189642819534 C159.892806978202,14.567914507401607 152.8205955190062,23.497929264529873 139.0,28.0" stroke="red"/>
<path style="fill:none;stroke-width:10" d="M139.0,28.0 C128.9201575016523,31.28351725998725 120.3623091945004,33.98179203702786 111.0,37.0" stroke="black"/>
<path style="stroke-linecap:round;fill:none;stroke-width:6" d="M139.0,28.0 C128.9201575016523,31.28351725998725 120.3623091945004,33.98179203702786 111.0,37.0" stroke="red"/>
<path style="fill:none;stroke-width:10" d="M111.0,37.0 C99.4071031316636,40.73730165443386 93.04547014515101,51.22455705087384 101.0,61.0" stroke="black"/>
<path style="stroke-linecap:round;fill:none;stroke-width:6" d="M111.0,37.0 C99.4071031316636,40.73730165443386 93.04547014515101,51.22455705087384 101.0,61.0" stroke="red"/>
<path style="fill:none;stroke-width:10" d="M101.0,61.0 C107.1995976118057,68.61877997413033 112.80997442445405,75.39391083394563 119.0,83.0" stroke="black"/>
<path style="stroke-linecap:round;fill:none;stroke-width:6" d="M101.0,61.0 C107.1995976118057,68.61877997413033 112.80997442445405,75.39391083394563 119.0,83.0" stroke="red"/>
<path style="fill:none;stroke-width:10" d="M119.0,83.0 C128.5001824598041,94.67349536785763 131.38764921558914,105.53876910260556 146.40561660808712,106.53104742587567 C154.153172928527,95.91929413189534 154.30317469442736,85.18288892724023 146.0,75.0" stroke="black"/>
<path style="stroke-linecap:round;fill:none;stroke-width:6" d="M119.0,83.0 C128.5001824598041,94.67349536785763 131.38764921558914,105.53876910260556 146.40561660808712,106.53104742587567 C154.153172928527,95.91929413189534 154.30317469442736,85.18288892724023 146.0,75.0" stroke="red"/>
<path style="fill:none;stroke-width:10" d="M146.0,75.0 C139.92959785860188,67.55534984817014 134.9427091466139,59.551513362534784 128.0,53.0" stroke="black"/>
<path style="stroke-linecap:round;fill:none;stroke-width:6" d="M146.0,75.0 C139.92959785860188,67.55534984817014 134.9427091466139,59.551513362534784 128.0,53.0" stroke="red"/>
<path style="fill:none;stroke-width:10" d="M128.0,53.0 C122.15204673483831,47.48155710528768 117.90000197074134,41.997396695431036 111.0,37.0" stroke="black"/>
<path style="stroke-linecap:round;fill:none;stroke-width:6" d="M128.0,53.0 C122.15204673483831,47.48155710528768 117.90000197074134,41.997396695431036 111.0,37.0" stroke="red"/>
<path style="fill:none;stroke-width:10" d="M111.0,37.0 C103.97677456866755,31.9133574583549 99.18113813941574,28.48776511767856 93.0,24.0" stroke="black"/>
<path style="stroke-linecap:round;fill:none;stroke-width:6" d="M111.0,37.0 C103.97677456866755,31.9133574583549 99.18113813941574,28.48776511767856 93.0,24.0" stroke="red"/>
<path style="fill:none;stroke-width:10" d="M93.0,24.0 C76.97121096449011,12.362427972045118 69.08052219455826,11.836952491053236 51.0,20.0" stroke="black"/>
<path style="stroke-linecap:round;fill:none;stroke-width:6" d="M93.0,24.0 C76.97121096449011,12.362427972045118 69.08052219455826,11.836952491053236 51.0,20.0" stroke="red"/>
<path style="fill:none;stroke-width:10" d="M51.0,20.0 C40.98827353201524,24.520123806453814 31.809951718955606,28.62200568503973 22.0,33.0" stroke="black"/>
<path style="stroke-linecap:round;fill:none;stroke-width:6" d="M51.0,20.0 C40.98827353201524,24.520123806453814 31.809951718955606,28.62200568503973 22.0,33.0" stroke="red"/>
<path style="stroke-linecap:none;fill:none;stroke-width:10" d="M46.6049604542404,46.25381425436241 C41.7563702140787,48.1573596373618 36.87279315583687,49.97630026890705 32.0,52.0 C26.243910959897466,54.390537720372826 21.31200269431937,56.39920891046481 16.546883449372338,56.910593203417726" stroke="black"/>
<path style="stroke-linecap:round;fill:none;stroke-width:6" d="M46.6049604542404,46.25381425436241 C41.7563702140787,48.1573596373618 36.87279315583687,49.97630026890705 32.0,52.0 C26.243910959897466,54.390537720372826 21.31200269431937,56.39920891046481 16.546883449372338,56.910593203417726" stroke="red"/>
<path style="stroke-linecap:none;fill:none;stroke-width:10" d="M117.18974964478241,16.936842532268496 C110.13361820228161,16.52367064540823 102.68090354485335,19.131551247791798 93.0,24.0 C87.52619741874885,26.752731418411198 82.25902192401334,29.388804485769427 76.99388482195837,32.018658164845746" stroke="black"/>
<path style="stroke-linecap:round;fill:none;stroke-width:6" d="M117.18974964478241,16.936842532268496 C110.13361820228161,16.52367064540823 102.68090354485335,19.131551247791798 93.0,24.0 C87.52619741874885,26.752731418411198 82.25902192401334,29.388804485769427 76.99388482195837,32.018658164845746" stroke="red"/>
<path style="stroke-linecap:none;fill:none;stroke-width:10" d="M160.6684485609615,61.51465623070669 C163.01114060436737,55.47113029753029 162.29768312745273,48.75605228745166 157.0,44.0 C153.60902855802385,40.955718736796456 150.62199445620257,38.304425302822324 147.72622026578597,35.73984890163615" stroke="black"/>
<path style="stroke-linecap:round;fill:none;stroke-width:6" d="M160.6684485609615,61.51465623070669 C163.01114060436737,55.47113029753029 162.29768312745273,48.75605228745166 157.0,44.0 C153.60902855802385,40.955718736796456 150.62199445620257,38.304425302822324 147.72622026578597,35.73984890163615" stroke="red"/>
<path style="stroke-linecap:none;fill:none;stroke-width:10" d="M91.38083791765087,84.8252242065451 C98.92014375395175,87.2713842554962 107.99917028436901,86.27580290226558 119.0,83.0 C123.54043602372171,81.64795893686772 127.98053186587762,80.33818557412192 132.44047078102517,79.02130915853208" stroke="black"/>
<path style="stroke-linecap:round;fill:none;stroke-width:6" d="M91.38083791765087,84.8252242065451 C98.92014375395175,87.2713842554962 107.99917028436901,86.27580290226558 119.0,83.0 C123.54043602372171,81.64795893686772 127.98053186587762,80.33818557412192 132.44047078102517,79.02130915853208" stroke="red"/>
<path style="stroke-linecap:none;fill:none;stroke-width:10" d="M56.008632959778474,30.000748572896477 C57.652601999322215,33.292778926767284 59.29369338560647,36.58455975633927 61.0,40.0 C63.17161067348365,44.34681927926268 65.17131504541464,48.679454721062385 67.12826456300924,53.00906762214657" stroke="black"/>
<path style="stroke-linecap:round;fill:none;stroke-width:6" d="M56.008632959778474,30.000748572896477 C57.652601999322215,33.292778926767284 59.29369338560647,36.58455975633927 61.0,40.0 C63.17161067348365,44.34681927926268 65.17131504541464,48.679454721062385 67.12826456300924,53.00906762214657" stroke="red"/>
<path style="stroke-linecap:none;fill:none;stroke-width:10" d="M27.02618424468212,42.56543893018447 C25.368881653936718,39.42037379694092 23.702850981630604,36.25349568696922 22.0,33.0 C16.155873904236604,21.828671064872484 19.93636806425093,11.679194329184096 26.912646668198946,7.772288195121781" stroke="black"/>
<path style="stroke-linecap:round;fill:none;stroke-width:6" d="M27.02618424468212,42.56543893018447 C25.368881653936718,39.42037379694092 23.702850981630604,36.25349568696922 22.0,33.0 C16.155873904236604,21.828671064872484 19.93636806425093,11.679194329184096 26.912646668198946,7.772288195121781" stroke="red"/>
<path style="stroke-linecap:none;fill:none;stroke-width:10" d="M87.1030499210256,63.88121772867434 C82.47776836480472,64.56762011390356 77.81813683490864,65.12694992290798 73.0,66.0 C63.18933170680738,67.77770059323323 55.17852200642141,68.52834994152576 48.50078422952658,66.70924946736372" stroke="black"/>
<path style="stroke-linecap:round;fill:none;stroke-width:6" d="M87.1030499210256,63.88121772867434 C82.47776836480472,64.56762011390356 77.81813683490864,65.12694992290798 73.0,66.0 C63.18933170680738,67.77770059323323 55.17852200642141,68.52834994152576 48.50078422952658,66.70924946736372" stroke="red"/>
<path style="stroke-linecap:none;fill:none;stroke-width:10" d="M142.62337220538362,48.464111267441126 C137.83456210811443,49.949771763817324 133.00462794238405,51.44739517104649 128.0,53.0 C123.3438364281732,54.44449939720634 118.86389301746176,55.77457906708624 114.41296220506274,57.07849405272461" stroke="black"/>
<path style="stroke-linecap:round;fill:none;stroke-width:6" d="M142.62337220538362,48.464111267441126 C137.83456210811443,49.949771763817324 133.00462794238405,51.44739517104649 128.0,53.0 C123.3438364281732,54.44449939720634 118.86389301746176,55.77457906708624 114.41296220506274,57.07849405272461" stroke="red"/>
<path style="stroke-linecap:none;fill:none;stroke-width:10" d="M124.73092501105727,32.599490986380665 C129.30065604945125,31.13720663925059 133.96007875082614,29.641758629993625 139.0,28.0 C145.9102977595031,25.748964632264936 151.1334995040536,22.39094325911534 156.27996523035878,20.354590119826746" stroke="black"/>
<path style="stroke-linecap:round;fill:none;stroke-width:6" d="M124.73092501105727,32.599490986380665 C129.30065604945125,31.13720663925059 133.96007875082614,29.641758629993625 139.0,28.0 C145.9102977595031,25.748964632264936 151.1334995040536,22.39094325911534 156.27996523035878,20.354590119826746" stroke="red"/>
<path style="stroke-linecap:none;fill:none;stroke-width:10" d="M110.0035895135974,72.0047590530285 C107.05229241201636,68.40786769555157 104.09979880590285,64.80938998706517 101.0,61.0 C97.0227350725755,56.11227852543692 96.62451085549141,51.04660393904538 98.66971497880547,46.735697014490384" stroke="black"/>
<path style="stroke-linecap:round;fill:none;stroke-width:6" d="M110.0035895135974,72.0047590530285 C107.05229241201636,68.40786769555157 104.09979880590285,64.80938998706517 101.0,61.0 C97.0227350725755,56.11227852543692 96.62451085549141,51.04660393904538 98.66971497880547,46.735697014490384" stroke="red"/>
<path style="stroke-linecap:none;fill:none;stroke-width:10" d="M137.3271151269559,63.66507370401435 C140.2004762159544,67.41555326471877 142.96479892930094,71.27767492408506 146.0,75.0 C150.15158734721368,80.09144446362012 152.1898805793454,85.32126799659395 152.22183243461876,90.6046995754103" stroke="black"/>
<path style="stroke-linecap:round;fill:none;stroke-width:6" d="M137.3271151269559,63.66507370401435 C140.2004762159544,67.41555326471877 142.96479892930094,71.27767492408506 146.0,75.0 C150.15158734721368,80.09144446362012 152.1898805793454,85.32126799659395 152.22183243461876,90.6046995754103" stroke="red"/>
<path style="stroke-linecap:none;fill:none;stroke-width:10" d="M101.68421726553123,30.275420966012547 C104.53367181918772,32.328620008597085 107.48838728433378,34.45667872917745 111.0,37.0 C114.45000098537068,39.49869834771552 117.23801266908025,42.119087624037434 119.89451826459236,44.804607675269516" stroke="black"/>
<path style="stroke-linecap:round;fill:none;stroke-width:6" d="M101.68421726553123,30.275420966012547 C104.53367181918772,32.328620008597085 107.48838728433378,34.45667872917745 111.0,37.0 C114.45000098537068,39.49869834771552 117.23801266908025,42.119087624037434 119.89451826459236,44.804607675269516" stroke="red"/>
<path style="stroke-linecap:none;fill:none;stroke-width:10" d="M36.42433446911407,26.55329855931008 C41.19662469574652,24.41556332448684 45.99413676600762,22.260061903226905 51.0,20.0 C60.04026109727913,15.918476245526618 66.53306383840166,14.009083238537897 72.76939993464313,14.574767673661883" stroke="black"/>
<path style="stroke-linecap:round;fill:none;stroke-width:6" d="M36.42433446911407,26.55329855931008 C41.19662469574652,24.41556332448684 45.99413676600762,22.260061903226905 51.0,20.0 C60.04026109727913,15.918476245526618 66.53306383840166,14.009083238537897 72.76939993464313,14.574767673661883" stroke="red"/>
</svg>
