<?xml version="1.0" encoding="UTF-8"?><svg xmlns="http://www.w3.org/2000/svg" xmlns:xlink="http://www.w3.org/1999/xlink" contentScriptType="text/ecmascript" width="326.0" zoomAndPan="magnify" contentStyleType="text/css" height="182.0" preserveAspectRatio="xMidYMid meet" version="1.0">
<path style="fill:none;stroke-width:8" d="M22.0,33.0 C10.405467418176752,34.63611359696644 3.7703010923537637,41.248601938300126 2.094501022531041,52.83746502400105 C12.272366937687622,60.03468476036794 22.240866596843944,59.75552975236759 32.0,52.0" stroke="black"/>
<path style="stroke-linecap:round;fill:none;stroke-width:4" d="M22.0,33.0 C10.405467418176752,34.63611359696644 3.7703010923537637,41.248601938300126 2.094501022531041,52.83746502400105 C12.272366937687622,60.03468476036794 22.240866596843944,59.75552975236759 32.0,52.0" stroke="red"/>
<path style="fill:none;stroke-width:8" d="M32.0,52.0 C41.15023964870487,46.74347935074401 50.73674789128397,42.565813027179004 61.0,40.0" stroke="black"/>
<path style="stroke-linecap:round;fill:none;stroke-width:4" d="M32.0,52.0 C41.15023964870487,46.74347935074401 50.73674789128397,42.565813027179004 61.0,40.0" stroke="red"/>
<path style="fill:none;stroke-width:8" d="M61.0,40.0 C72.85234742761925,37.03691314309519 83.58622697694938,31.84481085254219 93.0,24.0" stroke="black"/>
<path style="stroke-linecap:round;fill:none;stroke-width:4" d="M61.0,40.0 C72.85234742761925,37.03691314309519 83.58622697694938,31.84481085254219 93.0,24.0" stroke="red"/>
<path style="fill:none;stroke-width:8" d="M93.0,24.0 C109.64908941755536,10.125758818703858 124.99098644578312,11.443893072289157 139.0,28.0" stroke="black"/>
<path style="stroke-linecap:round;fill:none;stroke-width:4" d="M93.0,24.0 C109.64908941755536,10.125758818703858 124.99098644578312,11.443893072289157 139.0,28.0" stroke="red"/>
<path style="fill:none;stroke-width:8" d="M139.0,28.0 C144.23688299209107,34.18904353610762 153.86859138495447,35.440816452208864 157.0,44.0" stroke="black"/>
<path style="stroke-linecap:round;fill:none;stroke-width:4" d="M139.0,28.0 C144.23688299209107,34.18904353610762 153.86859138495447,35.440816452208864 157.0,44.0" stroke="red"/>
<path style="fill:none;stroke-width:8" d="M157.0,44.0 C161.89217053842813,57.37193280503689 158.55401581853457,67.82627667512311 146.0,75.0" stroke="black"/>
<path style="stroke-linecap:round;fill:none;stroke-width:4" d="M157.0,44.0 C161.89217053842813,57.37193280503689 158.55401581853457,67.82627667512311 146.0,75.0" stroke="red"/>
<path style="fill:none;stroke-width:8" d="M146.0,75.0 C137.62727605863194,79.78441368078175 127.63517257728049,79.10024464251849 119.0,83.0" stroke="black"/>
<path style="stroke-linecap:round;fill:none;stroke-width:4" d="M146.0,75.0 C137.62727605863194,79.78441368078175 127.63517257728049,79.10024464251849 119.0,83.0" stroke="red"/>
<path style="fill:none;stroke-width:8" d="M119.0,83.0 C98.07820689655173,92.44855172413793 82.66297014143531,86.99196961760083 73.0,66.0" stroke="black"/>
<path style="stroke-linecap:round;fill:none;stroke-width:4" d="M119.0,83.0 C98.07820689655173,92.44855172413793 82.66297014143531,86.99196961760083 73.0,66.0" stroke="red"/>
<path style="fill:none;stroke-width:8" d="M73.0,66.0 C69.00746273840625,57.32655698343426 63.35700361944157,49.42801447776629 61.0,40.0" stroke="black"/>
<path style="stroke-linecap:round;fill:none;stroke-width:4" d="M73.0,66.0 C69.00746273840625,57.32655698343426 63.35700361944157,49.42801447776629 61.0,40.0" stroke="red"/>
<path style="fill:none;stroke-width:8" d="M61.0,40.0 C59.14802399200266,32.59209596801066 55.85728127362056,25.90750425170068 51.0,20.0" stroke="black"/>
<path style="stroke-linecap:round;fill:none;stroke-width:4" d="M61.0,40.0 C59.14802399200266,32.59209596801066 55.85728127362056,25.90750425170068 51.0,20.0" stroke="red"/>
<path style="fill:none;stroke-width:8" d="M51.0,20.0 C31.38,-3.86 15.64,8.6 22.0,33.0" stroke="black"/>
<path style="stroke-linecap:round;fill:none;stroke-width:4" d="M51.0,20.0 C31.38,-3.86 15.64,8.6 22.0,33.0" stroke="red"/>
<path style="fill:none;stroke-width:8" d="M22.0,33.0 C23.85387932596485,40.106537416198584 28.43472045841722,45.793772649837386 32.0,52.0" stroke="black"/>
<path style="stroke-linecap:round;fill:none;stroke-width:4" d="M22.0,33.0 C23.85387932596485,40.106537416198584 28.43472045841722,45.793772649837386 32.0,52.0" stroke="red"/>
<path style="fill:none;stroke-width:8" d="M32.0,52.0 C41.57270141696966,68.6635913554657 54.88610680922594,74.33814131003885 73.0,66.0" stroke="black"/>
<path style="stroke-linecap:round;fill:none;stroke-width:4" d="M32.0,52.0 C41.57270141696966,68.6635913554657 54.88610680922594,74.33814131003885 73.0,66.0" stroke="red"/>
<path style="fill:none;stroke-width:8" d="M73.0,66.0 C81.89595014303228,61.90503882304863 92.08063761720905,64.9641610590182 101.0,61.0" stroke="black"/>
<path style="stroke-linecap:round;fill:none;stroke-width:4" d="M73.0,66.0 C81.89595014303228,61.90503882304863 92.08063761720905,64.9641610590182 101.0,61.0" stroke="red"/>
<path style="fill:none;stroke-width:8" d="M101.0,61.0 C109.65139725130891,57.15493455497382 119.74908873400604,58.195018204514724 128.0,53.0" stroke="black"/>
<path style="stroke-linecap:round;fill:none;stroke-width:4" d="M101.0,61.0 C109.65139725130891,57.15493455497382 119.74908873400604,58.195018204514724 128.0,53.0" stroke="red"/>
<path style="fill:none;stroke-width:8" d="M128.0,53.0 C136.86840430645006,47.41618988112404 147.4798403062496,47.48298525381113 157.0,44.0" stroke="black"/>
<path style="stroke-linecap:round;fill:none;stroke-width:4" d="M128.0,53.0 C136.86840430645006,47.41618988112404 147.4798403062496,47.48298525381113 157.0,44.0" stroke="red"/>
<path style="fill:none;stroke-width:8" d="M157.0,44.0 C168.20670737304366,40.23794180208459 173.5732121567922,32.45100501635777 173.09951435124566,20.639189642819534 C159.892806978202,14.567914507401607 148.52630219445345,17.021517959795098 139.0,28.0" stroke="black"/>
<path style="stroke-linecap:round;fill:none;stroke-width:4" d="M157.0,44.0 C168.20670737304366,40.23794180208459 173.5732121567922,32.45100501635777 173.09951435124566,20.639189642819534 C159.892806978202,14.567914507401607 148.52630219445345,17.021517959795098 139.0,28.0" stroke="red"/>
<path style="fill:none;stroke-width:8" d="M139.0,28.0 C130.90721563289907,34.847740618316166 120.07143131340828,33.19585138469975 111.0,37.0" stroke="black"/>
<path style="stroke-linecap:round;fill:none;stroke-width:4" d="M139.0,28.0 C130.90721563289907,34.847740618316166 120.07143131340828,33.19585138469975 111.0,37.0" stroke="red"/>
<path style="fill:none;stroke-width:8" d="M111.0,37.0 C99.76728321189017,41.71049413694928 95.88146557600545,49.48329754601227 101.0,61.0" stroke="black"/>
<path style="stroke-linecap:round;fill:none;stroke-width:4" d="M111.0,37.0 C99.76728321189017,41.71049413694928 95.88146557600545,49.48329754601227 101.0,61.0" stroke="red"/>
<path style="fill:none;stroke-width:8" d="M101.0,61.0 C104.98928087140158,69.97588196065355 114.9637419271921,74.0625714102111 119.0,83.0" stroke="black"/>
<path style="stroke-linecap:round;fill:none;stroke-width:4" d="M101.0,61.0 C104.98928087140158,69.97588196065355 114.9637419271921,74.0625714102111 119.0,83.0" stroke="red"/>
<path style="fill:none;stroke-width:8" d="M119.0,83.0 C122.25244367956013,97.69508662731367 131.3876492155892,105.53876910260557 146.40561660808714,106.53104742587567 C154.153172928527,95.91929413189533 154.01796739249795,85.40894498993677 146.0,75.0" stroke="black"/>
<path style="stroke-linecap:round;fill:none;stroke-width:4" d="M119.0,83.0 C122.25244367956013,97.69508662731367 131.3876492155892,105.53876910260557 146.40561660808714,106.53104742587567 C154.153172928527,95.91929413189533 154.01796739249795,85.40894498993677 146.0,75.0" stroke="red"/>
<path style="fill:none;stroke-width:8" d="M146.0,75.0 C141.23415748240606,66.6597755942106 133.08616351572138,61.0780244073222 128.0,53.0" stroke="black"/>
<path style="stroke-linecap:round;fill:none;stroke-width:4" d="M146.0,75.0 C141.23415748240606,66.6597755942106 133.08616351572138,61.0780244073222 128.0,53.0" stroke="red"/>
<path style="fill:none;stroke-width:8" d="M128.0,53.0 C123.71584436121515,46.195752808988765 114.2947660500544,44.8567498116682 111.0,37.0" stroke="black"/>
<path style="stroke-linecap:round;fill:none;stroke-width:4" d="M128.0,53.0 C123.71584436121515,46.195752808988765 114.2947660500544,44.8567498116682 111.0,37.0" stroke="red"/>
<path style="fill:none;stroke-width:8" d="M111.0,37.0 C107.6463944776893,29.00294067756679 97.89004108610217,29.868049303322614 93.0,24.0" stroke="black"/>
<path style="stroke-linecap:round;fill:none;stroke-width:4" d="M111.0,37.0 C107.6463944776893,29.00294067756679 97.89004108610217,29.868049303322614 93.0,24.0" stroke="red"/>
<path style="fill:none;stroke-width:8" d="M93.0,24.0 C80.31925493716336,8.78310592459604 66.32326744606485,7.400868988791121 51.0,20.0" stroke="black"/>
<path style="stroke-linecap:round;fill:none;stroke-width:4" d="M93.0,24.0 C80.31925493716336,8.78310592459604 66.32326744606485,7.400868988791121 51.0,20.0" stroke="red"/>
<path style="fill:none;stroke-width:8" d="M51.0,20.0 C42.51504803816178,26.97651605751143 32.39465920528202,30.288349772535128 22.0,33.0" stroke="black"/>
<path style="stroke-linecap:round;fill:none;stroke-width:4" d="M51.0,20.0 C42.51504803816178,26.97651605751143 32.39465920528202,30.288349772535128 22.0,33.0" stroke="red"/>
<path style="stroke-linecap:none;fill:none;stroke-width:8" d="M37.544419822665944,48.979814121294886 C35.67754660323693,49.940545913325245 33.83004792974098,50.9486958701488 32.0,52.0 C32.0,52.0 28.08797198849757,54.80315691117235 26.119396007386342,55.756152882096494" stroke="black"/>
<path style="stroke-linecap:round;fill:none;stroke-width:4" d="M37.544419822665944,48.979814121294886 C35.67754660323693,49.940545913325245 33.83004792974098,50.9486958701488 32.0,52.0 C32.0,52.0 28.08797198849757,54.80315691117235 26.119396007386342,55.756152882096494" stroke="red"/>
<path style="stroke-linecap:none;fill:none;stroke-width:8" d="M102.83238503513645,17.498905121322043 C99.60734807144905,19.057998544876803 96.32981788351108,21.225151763740776 93.0,24.0 C91.11724539538987,25.56896217050844 89.18168652972858,27.031815998537308 87.19493651220002,28.39195102911334" stroke="black"/>
<path style="stroke-linecap:round;fill:none;stroke-width:4" d="M102.83238503513645,17.498905121322043 C99.60734807144905,19.057998544876803 96.32981788351108,21.225151763740776 93.0,24.0 C91.11724539538987,25.56896217050844 89.18168652972858,27.031815998537308 87.19493651220002,28.39195102911334" stroke="red"/>
<path style="stroke-linecap:none;fill:none;stroke-width:8" d="M158.93977900533574,51.67014475794599 C158.6276552050384,49.23206956461674 157.97843410768564,46.67438656100738 157.0,44.0 C156.3737182769909,42.28816329044177 155.48742456286908,40.86862300615114 154.42827985906328,39.64342169711453" stroke="black"/>
<path style="stroke-linecap:round;fill:none;stroke-width:4" d="M158.93977900533574,51.67014475794599 C158.6276552050384,49.23206956461674 157.97843410768564,46.67438656100738 157.0,44.0 C156.3737182769909,42.28816329044177 155.48742456286908,40.86862300615114 154.42827985906328,39.64342169711453" stroke="red"/>
<path style="stroke-linecap:none;fill:none;stroke-width:8" d="M107.10967658185368,86.87547294535867 C110.85154501255398,86.18321533642818 114.81564137931035,84.88971034482759 119.0,83.0 C120.7270345154561,82.2200489285037 122.50834626707504,81.62345483283718 124.32012477130438,81.12979765608215" stroke="black"/>
<path style="stroke-linecap:round;fill:none;stroke-width:4" d="M107.10967658185368,86.87547294535867 C110.85154501255398,86.18321533642818 114.81564137931035,84.88971034482759 119.0,83.0 C120.7270345154561,82.2200489285037 122.50834626707504,81.62345483283718 124.32012477130438,81.12979765608215" stroke="red"/>
<path style="stroke-linecap:none;fill:none;stroke-width:8" d="M59.715140215196605,35.642485259879365 C60.20165892838568,37.06577087983144 60.629604798400536,38.518419193602135 61.0,40.0 C61.471400723888316,41.885602895553255 62.074539667757556,43.71002691222258 62.769805812752566,45.49170702987194" stroke="black"/>
<path style="stroke-linecap:round;fill:none;stroke-width:4" d="M59.715140215196605,35.642485259879365 C60.20165892838568,37.06577087983144 60.629604798400536,38.518419193602135 61.0,40.0 C61.471400723888316,41.885602895553255 62.074539667757556,43.71002691222258 62.769805812752566,45.49170702987194" stroke="red"/>
<path style="stroke-linecap:none;fill:none;stroke-width:8" d="M23.40962282517856,37.109112542204656 C22.850630202645444,35.785842879177046 22.37077586519297,34.421307483239715 22.0,33.0 C20.728,28.12 20.34,23.717600000000004 20.69024,19.987840000000006" stroke="black"/>
<path style="stroke-linecap:round;fill:none;stroke-width:4" d="M23.40962282517856,37.109112542204656 C22.850630202645444,35.785842879177046 22.37077586519297,34.421307483239715 22.0,33.0 C20.728,28.12 20.34,23.717600000000004 20.69024,19.987840000000006" stroke="red"/>
<path style="stroke-linecap:none;fill:none;stroke-width:8" d="M78.47178606617648,64.28809436971645 C76.6099295504587,64.64817886573631 74.77919002860646,65.18100776460973 73.0,66.0 C69.37722136184519,67.66762826200777 65.94646223563109,68.77474887343107 62.69924435077185,69.34555103317963" stroke="black"/>
<path style="stroke-linecap:round;fill:none;stroke-width:4" d="M78.47178606617648,64.28809436971645 C76.6099295504587,64.64817886573631 74.77919002860646,65.18100776460973 73.0,66.0 C69.37722136184519,67.66762826200777 65.94646223563109,68.77474887343107 62.69924435077185,69.34555103317963" stroke="red"/>
<path style="stroke-linecap:none;fill:none;stroke-width:8" d="M133.50753192307678,50.25418349871751 C131.617082990314,50.992500172112145 129.77368086129002,51.88323797622481 128.0,53.0 C126.34981774680121,54.03900364090295 124.62576428493429,54.82860320764367 122.85418420998397,55.45776070781114" stroke="black"/>
<path style="stroke-linecap:round;fill:none;stroke-width:4" d="M133.50753192307678,50.25418349871751 C131.617082990314,50.992500172112145 129.77368086129002,51.88323797622481 128.0,53.0 C126.34981774680121,54.03900364090295 124.62576428493429,54.82860320764367 122.85418420998397,55.45776070781114" stroke="red"/>
<path style="stroke-linecap:none;fill:none;stroke-width:8" d="M133.85122820912048,31.20033413036459 C135.65316625506406,30.399111053249165 137.38144312657982,29.369548123663236 139.0,28.0 C139.0,28.0 142.8841289813532,23.949602327430497 144.9366056273875,22.435896206414434" stroke="black"/>
<path style="stroke-linecap:round;fill:none;stroke-width:4" d="M133.85122820912048,31.20033413036459 C135.65316625506406,30.399111053249165 137.38144312657982,29.369548123663236 139.0,28.0 C139.0,28.0 142.8841289813532,23.949602327430497 144.9366056273875,22.435896206414434" stroke="red"/>
<path style="stroke-linecap:none;fill:none;stroke-width:8" d="M104.01640307962867,65.87674552827124 C102.8351195559362,64.3947850838176 101.79785617428033,62.79517639213071 101.0,61.0 C99.9762931152011,58.696659509202455 99.31276031279737,56.5430749802019 98.99614196952756,54.53379369481585" stroke="black"/>
<path style="stroke-linecap:round;fill:none;stroke-width:4" d="M104.01640307962867,65.87674552827124 C102.8351195559362,64.3947850838176 101.79785617428033,62.79517639213071 101.0,61.0 C99.9762931152011,58.696659509202455 99.31276031279737,56.5430749802019 98.99614196952756,54.53379369481585" stroke="red"/>
<path style="stroke-linecap:none;fill:none;stroke-width:8" d="M142.78618817075323,70.28484417127981 C143.95837693499882,71.77424916644028 145.04683149648122,73.33195511884212 146.0,75.0 C146.0,75.0 148.89187648274043,79.16763416205558 149.86484901272252,81.25753549220468" stroke="black"/>
<path style="stroke-linecap:round;fill:none;stroke-width:4" d="M142.78618817075323,70.28484417127981 C143.95837693499882,71.77424916644028 145.04683149648122,73.33195511884212 146.0,75.0 C146.0,75.0 148.89187648274043,79.16763416205558 149.86484901272252,81.25753549220468" stroke="red"/>
<path style="stroke-linecap:none;fill:none;stroke-width:8" d="M108.30965942369852,33.14046195330462 C109.40244787630468,34.15566298895428 110.32927889553787,35.40058813551336 111.0,37.0 C111.65895321001089,38.57134996233364 112.56295891046601,39.88199005209337 113.62191122189753,41.02778419734351" stroke="black"/>
<path style="stroke-linecap:round;fill:none;stroke-width:4" d="M108.30965942369852,33.14046195330462 C109.40244787630468,34.15566298895428 110.32927889553787,35.40058813551336 111.0,37.0 C111.65895321001089,38.57134996233364 112.56295891046601,39.88199005209337 113.62191122189753,41.02778419734351" stroke="red"/>
<path style="stroke-linecap:none;fill:none;stroke-width:8" d="M45.723665730361205,23.770663744247763 C47.54060174042306,22.64401912930506 49.30300960763236,21.395303211502288 51.0,20.0 C54.06465348921297,17.480173797758223 57.07621578022729,15.519602313397002 60.034783173256585,14.117111860457012" stroke="black"/>
<path style="stroke-linecap:round;fill:none;stroke-width:4" d="M45.723665730361205,23.770663744247763 C47.54060174042306,22.64401912930506 49.30300960763236,21.395303211502288 51.0,20.0 C54.06465348921297,17.480173797758223 57.07621578022729,15.519602313397002 60.034783173256585,14.117111860457012" stroke="red"/>
</svg>
