<?xml version="1.0" encoding="UTF-8"?><svg xmlns="http://www.w3.org/2000/svg" xmlns:xlink="http://www.w3.org/1999/xlink" contentScriptType="text/ecmascript" width="1200.0" zoomAndPan="magnify" contentStyleType="text/css" height="1200.0" preserveAspectRatio="xMidYMid meet" version="1.0">
<line y2="600.0" style="stroke:rgb(0,0,0);stroke-width:1" x1="300.0" x2="300.0" y1="300.0"/>
<line y2="600.0" style="stroke:rgb(0,0,0);stroke-width:1" x1="600.0" x2="300.0" y1="300.0"/>
<line y2="300.0" style="stroke:rgb(0,0,0);stroke-width:1" x1="600.0" x2="300.0" y1="300.0"/>
<path style="fill:none;stroke-width:2" d="M300.0,450.0 C87.87,662.13 450.0,874.26 450.0,450.0" stroke="black"/>
<path style="stroke-linecap:round;fill:none;stroke-width:1" d="M300.0,450.0 C87.87,662.13 450.0,874.26 450.0,450.0" stroke="red"/>
<path style="fill:none;stroke-width:2" d="M450.0,450.0 C450.0,400.0 500.0,350.0 450.0,300.0" stroke="black"/>
<path style="stroke-linecap:round;fill:none;stroke-width:1" d="M450.0,450.0 C450.0,400.0 500.0,350.0 450.0,300.0" stroke="red"/>
<path style="fill:none;stroke-width:2" d="M450.0,300.0 C237.87,87.87 87.87,237.87 300.0,450.0" stroke="black"/>
<path style="stroke-linecap:round;fill:none;stroke-width:1" d="M450.0,300.0 C237.87,87.87 87.87,237.87 300.0,450.0" stroke="red"/>
<path style="fill:none;stroke-width:2" d="M300.0,450.0 C350.0,500.0 400.0,450.0 450.0,450.0" stroke="black"/>
<path style="stroke-linecap:round;fill:none;stroke-width:1" d="M300.0,450.0 C350.0,500.0 400.0,450.0 450.0,450.0" stroke="red"/>
<path style="fill:none;stroke-width:2" d="M450.0,450.0 C874.26,450.0 662.13,87.87 450.0,300.0" stroke="black"/>
<path style="stroke-linecap:round;fill:none;stroke-width:1" d="M450.0,450.0 C874.26,450.0 662.13,87.87 450.0,300.0" stroke="red"/>
<path style="fill:none;stroke-width:2" d="M450.0,300.0 C400.0,350.0 350.0,400.0 300.0,450.0" stroke="black"/>
<path style="stroke-linecap:round;fill:none;stroke-width:1" d="M450.0,300.0 C400.0,350.0 350.0,400.0 300.0,450.0" stroke="red"/>
<path style="fill:none;stroke-width:2" d="M450.0,450.0 C450.0,440.0 452.0,430.0 454.8,420.0" stroke="black"/>
<path style="stroke-linecap:round;fill:none;stroke-width:1" d="M450.0,450.0 C450.0,440.0 452.0,430.0 454.8,420.0" stroke="red"/>
<path style="fill:none;stroke-width:2" d="M414.03551999999996,633.28032 C435.5148,594.2484 450.0,534.852 450.0,450.0" stroke="black"/>
<path style="stroke-linecap:round;fill:none;stroke-width:1" d="M414.03551999999996,633.28032 C435.5148,594.2484 450.0,534.852 450.0,450.0" stroke="red"/>
<path style="fill:none;stroke-width:2" d="M300.0,450.0 C310.0,460.0 320.0,466.0 330.0,469.20000000000005" stroke="black"/>
<path style="stroke-linecap:round;fill:none;stroke-width:1" d="M300.0,450.0 C310.0,460.0 320.0,466.0 330.0,469.20000000000005" stroke="red"/>
<path style="fill:none;stroke-width:2" d="M213.77759999999998,332.5776 C229.6332,367.6332 257.574,407.574 300.0,450.0" stroke="black"/>
<path style="stroke-linecap:round;fill:none;stroke-width:1" d="M213.77759999999998,332.5776 C229.6332,367.6332 257.574,407.574 300.0,450.0" stroke="red"/>
<path style="fill:none;stroke-width:2" d="M450.0,300.0 C440.0,310.0 430.0,320.0 420.0,330.0" stroke="black"/>
<path style="stroke-linecap:round;fill:none;stroke-width:1" d="M450.0,300.0 C440.0,310.0 430.0,320.0 420.0,330.0" stroke="red"/>
<path style="fill:none;stroke-width:2" d="M572.18688,234.14208000000002 C534.852,238.1184 492.42599999999993,257.574 450.0,300.0" stroke="black"/>
<path style="stroke-linecap:round;fill:none;stroke-width:1" d="M572.18688,234.14208000000002 C534.852,238.1184 492.42599999999993,257.574 450.0,300.0" stroke="red"/>
</svg>
