<?xml version="1.0" encoding="utf-8"?>
<!-- Generator: Adobe Illustrator 19.1.0, SVG Export Plug-In . SVG Version: 6.00 Build 0)  -->
<svg version="1.1" id="Layer_1" xmlns="http://www.w3.org/2000/svg" xmlns:xlink="http://www.w3.org/1999/xlink" x="0px" y="0px"
	 viewBox="0 0 1024 768" style="enable-background:new 0 0 1024 768;" xml:space="preserve">
<style type="text/css">
	.st0{fill:none;stroke:#000000;stroke-miterlimit:10;}
</style>
<line class="st0" x1="335.2" y1="68.2" x2="380.2" y2="68.2"/>
<line class="st0" x1="380.2" y1="68.2" x2="425.3" y2="68.2"/>
<line class="st0" x1="425.3" y1="68.2" x2="470.4" y2="68.2"/>
<line class="st0" x1="470.4" y1="68.2" x2="515.5" y2="68.2"/>
<line class="st0" x1="515.5" y1="68.2" x2="515.5" y2="122"/>
<line class="st0" x1="515.5" y1="122" x2="474.3" y2="121.6"/>
<line class="st0" x1="474.3" y1="121.6" x2="470.4" y2="68.2"/>
<line class="st0" x1="474.3" y1="121.6" x2="415" y2="118.9"/>
<line class="st0" x1="415" y1="118.9" x2="425.3" y2="68.2"/>
<line class="st0" x1="415" y1="118.9" x2="361.6" y2="114.1"/>
<line class="st0" x1="361.6" y1="114.1" x2="380.2" y2="68.2"/>
<line class="st0" x1="361.6" y1="114.1" x2="312.6" y2="107.3"/>
<line class="st0" x1="312.6" y1="107.3" x2="335.2" y2="68.2"/>
<line class="st0" x1="290.1" y1="146.3" x2="312.6" y2="107.3"/>
<line class="st0" x1="290.1" y1="146.3" x2="339.1" y2="162.7"/>
<line class="st0" x1="339.1" y1="162.7" x2="361.6" y2="114.1"/>
<line class="st0" x1="339.1" y1="162.7" x2="397.4" y2="176"/>
<line class="st0" x1="397.4" y1="176" x2="415" y2="118.9"/>
<line class="st0" x1="397.4" y1="176" x2="470.4" y2="184.3"/>
<line class="st0" x1="470.4" y1="184.3" x2="474.3" y2="121.6"/>
<line class="st0" x1="470.4" y1="184.3" x2="515.5" y2="185.3"/>
<line class="st0" x1="515.5" y1="185.3" x2="515.5" y2="122"/>
<line class="st0" x1="515.5" y1="185.3" x2="515.5" y2="270"/>
<line class="st0" x1="515.5" y1="270" x2="449.2" y2="265.8"/>
<line class="st0" x1="449.2" y1="265.8" x2="470.4" y2="184.3"/>
<line class="st0" x1="449.2" y1="265.8" x2="368" y2="243.4"/>
<line class="st0" x1="368" y1="243.4" x2="397.4" y2="176"/>
<line class="st0" x1="368" y1="243.4" x2="311.8" y2="215.5"/>
<line class="st0" x1="311.8" y1="215.5" x2="339.1" y2="162.7"/>
<line class="st0" x1="311.8" y1="215.5" x2="267.6" y2="185.3"/>
<line class="st0" x1="311.8" y1="215.5" x2="291.6" y2="251.3"/>
<line class="st0" x1="291.6" y1="251.3" x2="245" y2="224.4"/>
<line class="st0" x1="245" y1="224.4" x2="267.6" y2="185.3"/>
<line class="st0" x1="267.6" y1="185.3" x2="290.1" y2="146.3"/>
<line class="st0" x1="291.6" y1="251.3" x2="346.4" y2="282.9"/>
<line class="st0" x1="346.4" y1="282.9" x2="368" y2="243.4"/>
<line class="st0" x1="419.8" y1="325.3" x2="346.4" y2="282.9"/>
<line class="st0" x1="419.8" y1="325.3" x2="449.2" y2="265.8"/>
<line class="st0" x1="419.8" y1="325.3" x2="515.5" y2="380.5"/>
<line class="st0" x1="515.5" y1="380.5" x2="515.5" y2="270"/>
<line class="st0" x1="154.9" y1="380.5" x2="177.4" y2="341.5"/>
<line class="st0" x1="177.4" y1="341.5" x2="199.9" y2="302.5"/>
<line class="st0" x1="199.9" y1="302.5" x2="222.5" y2="263.4"/>
<line class="st0" x1="222.5" y1="263.4" x2="245" y2="224.4"/>
<line class="st0" x1="245" y1="224.4" x2="291.6" y2="251.3"/>
<line class="st0" x1="291.6" y1="251.3" x2="270.7" y2="286.7"/>
<line class="st0" x1="270.7" y1="286.7" x2="222.5" y2="263.4"/>
<line class="st0" x1="270.7" y1="286.7" x2="238.7" y2="336.7"/>
<line class="st0" x1="238.7" y1="336.7" x2="199.9" y2="302.5"/>
<line class="st0" x1="238.7" y1="336.7" x2="207.8" y2="380.5"/>
<line class="st0" x1="207.8" y1="380.5" x2="177.4" y2="341.5"/>
<line class="st0" x1="207.8" y1="380.5" x2="177.4" y2="419.5"/>
<line class="st0" x1="177.4" y1="419.5" x2="154.9" y2="380.5"/>
<line class="st0" x1="199.9" y1="458.6" x2="177.4" y2="419.5"/>
<line class="st0" x1="199.9" y1="458.6" x2="238.7" y2="424.3"/>
<line class="st0" x1="238.7" y1="424.3" x2="207.8" y2="380.5"/>
<line class="st0" x1="238.7" y1="424.3" x2="279.3" y2="380.5"/>
<line class="st0" x1="279.3" y1="380.5" x2="238.7" y2="336.7"/>
<line class="st0" x1="279.3" y1="380.5" x2="323" y2="321.4"/>
<line class="st0" x1="323" y1="321.4" x2="270.7" y2="286.7"/>
<line class="st0" x1="323" y1="321.4" x2="346.4" y2="282.9"/>
<line class="st0" x1="346.4" y1="282.9" x2="291.6" y2="251.3"/>
<line class="st0" x1="346.4" y1="282.9" x2="419.8" y2="325.3"/>
<line class="st0" x1="419.8" y1="325.3" x2="383" y2="380.5"/>
<line class="st0" x1="383" y1="380.5" x2="323" y2="321.4"/>
<line class="st0" x1="383" y1="380.5" x2="323" y2="439.6"/>
<line class="st0" x1="323" y1="439.6" x2="279.3" y2="380.5"/>
<line class="st0" x1="323" y1="439.6" x2="270.7" y2="474.4"/>
<line class="st0" x1="270.7" y1="474.4" x2="238.7" y2="424.3"/>
<line class="st0" x1="270.7" y1="474.4" x2="222.5" y2="497.6"/>
<line class="st0" x1="270.7" y1="474.4" x2="291.6" y2="509.8"/>
<line class="st0" x1="291.6" y1="509.8" x2="245" y2="536.6"/>
<line class="st0" x1="245" y1="536.6" x2="222.5" y2="497.6"/>
<line class="st0" x1="222.5" y1="497.6" x2="199.9" y2="458.6"/>
<line class="st0" x1="291.6" y1="509.8" x2="346.4" y2="478.1"/>
<line class="st0" x1="346.4" y1="478.1" x2="323" y2="439.6"/>
<line class="st0" x1="419.8" y1="435.8" x2="346.4" y2="478.1"/>
<line class="st0" x1="419.8" y1="435.8" x2="383" y2="380.5"/>
<line class="st0" x1="419.8" y1="435.8" x2="515.5" y2="380.5"/>
<line class="st0" x1="515.5" y1="380.5" x2="419.8" y2="325.3"/>
<line class="st0" x1="335.2" y1="692.8" x2="312.6" y2="653.8"/>
<line class="st0" x1="312.6" y1="653.8" x2="290.1" y2="614.7"/>
<line class="st0" x1="290.1" y1="614.7" x2="267.6" y2="575.7"/>
<line class="st0" x1="267.6" y1="575.7" x2="245" y2="536.6"/>
<line class="st0" x1="245" y1="536.6" x2="291.6" y2="509.8"/>
<line class="st0" x1="291.6" y1="509.8" x2="311.8" y2="545.6"/>
<line class="st0" x1="311.8" y1="545.6" x2="267.6" y2="575.7"/>
<line class="st0" x1="311.8" y1="545.6" x2="339.2" y2="598.3"/>
<line class="st0" x1="339.2" y1="598.3" x2="290.1" y2="614.7"/>
<line class="st0" x1="339.2" y1="598.3" x2="361.6" y2="647"/>
<line class="st0" x1="361.6" y1="647" x2="312.6" y2="653.8"/>
<line class="st0" x1="361.6" y1="647" x2="380.2" y2="692.8"/>
<line class="st0" x1="380.2" y1="692.8" x2="335.2" y2="692.8"/>
<line class="st0" x1="425.3" y1="692.8" x2="380.2" y2="692.8"/>
<line class="st0" x1="425.3" y1="692.8" x2="415" y2="642.1"/>
<line class="st0" x1="415" y1="642.1" x2="361.6" y2="647"/>
<line class="st0" x1="415" y1="642.1" x2="397.4" y2="585"/>
<line class="st0" x1="397.4" y1="585" x2="339.2" y2="598.3"/>
<line class="st0" x1="397.4" y1="585" x2="368.1" y2="517.6"/>
<line class="st0" x1="368.1" y1="517.6" x2="311.8" y2="545.6"/>
<line class="st0" x1="368.1" y1="517.6" x2="346.4" y2="478.1"/>
<line class="st0" x1="346.4" y1="478.1" x2="291.6" y2="509.8"/>
<line class="st0" x1="346.4" y1="478.1" x2="419.8" y2="435.7"/>
<line class="st0" x1="419.8" y1="435.7" x2="449.2" y2="495.3"/>
<line class="st0" x1="449.2" y1="495.3" x2="368.1" y2="517.6"/>
<line class="st0" x1="449.2" y1="495.3" x2="470.5" y2="576.7"/>
<line class="st0" x1="470.5" y1="576.7" x2="397.4" y2="585"/>
<line class="st0" x1="470.5" y1="576.7" x2="474.4" y2="639.4"/>
<line class="st0" x1="474.4" y1="639.4" x2="415" y2="642.1"/>
<line class="st0" x1="474.4" y1="639.4" x2="470.4" y2="692.8"/>
<line class="st0" x1="474.4" y1="639.4" x2="515.5" y2="639"/>
<line class="st0" x1="515.5" y1="639" x2="515.5" y2="692.8"/>
<line class="st0" x1="515.5" y1="692.8" x2="470.4" y2="692.8"/>
<line class="st0" x1="470.4" y1="692.8" x2="425.3" y2="692.8"/>
<line class="st0" x1="515.5" y1="639" x2="515.5" y2="575.8"/>
<line class="st0" x1="515.5" y1="575.8" x2="470.5" y2="576.7"/>
<line class="st0" x1="515.5" y1="491" x2="515.5" y2="575.8"/>
<line class="st0" x1="515.5" y1="491" x2="449.2" y2="495.3"/>
<line class="st0" x1="515.5" y1="491" x2="515.5" y2="380.5"/>
<line class="st0" x1="515.5" y1="380.5" x2="419.8" y2="435.7"/>
<line class="st0" x1="695.8" y1="692.8" x2="650.7" y2="692.8"/>
<line class="st0" x1="650.7" y1="692.8" x2="605.6" y2="692.8"/>
<line class="st0" x1="605.6" y1="692.8" x2="560.6" y2="692.8"/>
<line class="st0" x1="560.6" y1="692.8" x2="515.5" y2="692.8"/>
<line class="st0" x1="515.5" y1="692.8" x2="515.5" y2="639"/>
<line class="st0" x1="515.5" y1="639" x2="556.6" y2="639.4"/>
<line class="st0" x1="556.6" y1="639.4" x2="560.6" y2="692.8"/>
<line class="st0" x1="556.6" y1="639.4" x2="615.9" y2="642.1"/>
<line class="st0" x1="615.9" y1="642.1" x2="605.6" y2="692.8"/>
<line class="st0" x1="615.9" y1="642.1" x2="669.3" y2="647"/>
<line class="st0" x1="669.3" y1="647" x2="650.7" y2="692.8"/>
<line class="st0" x1="669.3" y1="647" x2="718.3" y2="653.8"/>
<line class="st0" x1="718.3" y1="653.8" x2="695.8" y2="692.8"/>
<line class="st0" x1="740.8" y1="614.7" x2="718.3" y2="653.8"/>
<line class="st0" x1="740.8" y1="614.7" x2="691.8" y2="598.3"/>
<line class="st0" x1="691.8" y1="598.3" x2="669.3" y2="647"/>
<line class="st0" x1="691.8" y1="598.3" x2="633.5" y2="585"/>
<line class="st0" x1="633.5" y1="585" x2="615.9" y2="642.1"/>
<line class="st0" x1="633.5" y1="585" x2="560.5" y2="576.7"/>
<line class="st0" x1="560.5" y1="576.7" x2="556.6" y2="639.4"/>
<line class="st0" x1="560.5" y1="576.7" x2="515.5" y2="575.7"/>
<line class="st0" x1="515.5" y1="575.7" x2="515.5" y2="639"/>
<line class="st0" x1="515.5" y1="575.7" x2="515.5" y2="491"/>
<line class="st0" x1="515.5" y1="491" x2="581.7" y2="495.2"/>
<line class="st0" x1="581.7" y1="495.2" x2="560.5" y2="576.7"/>
<line class="st0" x1="581.7" y1="495.2" x2="662.9" y2="517.6"/>
<line class="st0" x1="662.9" y1="517.6" x2="633.5" y2="585"/>
<line class="st0" x1="662.9" y1="517.6" x2="719.1" y2="545.5"/>
<line class="st0" x1="719.1" y1="545.5" x2="691.8" y2="598.3"/>
<line class="st0" x1="719.1" y1="545.5" x2="763.4" y2="575.7"/>
<line class="st0" x1="719.1" y1="545.5" x2="739.3" y2="509.8"/>
<line class="st0" x1="739.3" y1="509.8" x2="785.9" y2="536.6"/>
<line class="st0" x1="785.9" y1="536.6" x2="763.4" y2="575.7"/>
<line class="st0" x1="763.4" y1="575.7" x2="740.8" y2="614.7"/>
<line class="st0" x1="739.3" y1="509.8" x2="684.6" y2="478.1"/>
<line class="st0" x1="684.6" y1="478.1" x2="662.9" y2="517.6"/>
<line class="st0" x1="611.2" y1="435.8" x2="684.6" y2="478.1"/>
<line class="st0" x1="611.2" y1="435.8" x2="581.7" y2="495.2"/>
<line class="st0" x1="611.2" y1="435.8" x2="515.5" y2="380.5"/>
<line class="st0" x1="515.5" y1="380.5" x2="515.5" y2="491"/>
<line class="st0" x1="876.1" y1="380.5" x2="853.5" y2="419.5"/>
<line class="st0" x1="853.5" y1="419.5" x2="831" y2="458.5"/>
<line class="st0" x1="831" y1="458.5" x2="808.5" y2="497.6"/>
<line class="st0" x1="808.5" y1="497.6" x2="785.9" y2="536.6"/>
<line class="st0" x1="785.9" y1="536.6" x2="739.3" y2="509.8"/>
<line class="st0" x1="739.3" y1="509.8" x2="760.2" y2="474.3"/>
<line class="st0" x1="760.2" y1="474.3" x2="808.5" y2="497.6"/>
<line class="st0" x1="760.2" y1="474.3" x2="792.2" y2="424.3"/>
<line class="st0" x1="792.2" y1="424.3" x2="831" y2="458.5"/>
<line class="st0" x1="792.2" y1="424.3" x2="823.1" y2="380.5"/>
<line class="st0" x1="823.1" y1="380.5" x2="853.5" y2="419.5"/>
<line class="st0" x1="823.1" y1="380.5" x2="853.5" y2="341.5"/>
<line class="st0" x1="853.5" y1="341.5" x2="876.1" y2="380.5"/>
<line class="st0" x1="831" y1="302.4" x2="853.5" y2="341.5"/>
<line class="st0" x1="831" y1="302.4" x2="792.2" y2="336.7"/>
<line class="st0" x1="792.2" y1="336.7" x2="823.1" y2="380.5"/>
<line class="st0" x1="792.2" y1="336.7" x2="751.6" y2="380.5"/>
<line class="st0" x1="751.6" y1="380.5" x2="792.2" y2="424.3"/>
<line class="st0" x1="751.6" y1="380.5" x2="707.9" y2="439.6"/>
<line class="st0" x1="707.9" y1="439.6" x2="760.2" y2="474.3"/>
<line class="st0" x1="707.9" y1="439.6" x2="684.5" y2="478.1"/>
<line class="st0" x1="684.5" y1="478.1" x2="739.3" y2="509.8"/>
<line class="st0" x1="684.5" y1="478.1" x2="611.1" y2="435.7"/>
<line class="st0" x1="611.1" y1="435.7" x2="648" y2="380.5"/>
<line class="st0" x1="648" y1="380.5" x2="707.9" y2="439.6"/>
<line class="st0" x1="648" y1="380.5" x2="707.9" y2="321.4"/>
<line class="st0" x1="707.9" y1="321.4" x2="751.6" y2="380.5"/>
<line class="st0" x1="707.9" y1="321.4" x2="760.2" y2="286.6"/>
<line class="st0" x1="760.2" y1="286.6" x2="792.2" y2="336.7"/>
<line class="st0" x1="760.2" y1="286.6" x2="808.4" y2="263.4"/>
<line class="st0" x1="760.2" y1="286.6" x2="739.3" y2="251.3"/>
<line class="st0" x1="739.3" y1="251.3" x2="785.9" y2="224.4"/>
<line class="st0" x1="785.9" y1="224.4" x2="808.4" y2="263.4"/>
<line class="st0" x1="808.4" y1="263.4" x2="831" y2="302.4"/>
<line class="st0" x1="739.3" y1="251.3" x2="684.6" y2="282.9"/>
<line class="st0" x1="684.6" y1="282.9" x2="707.9" y2="321.4"/>
<line class="st0" x1="611.2" y1="325.3" x2="684.6" y2="282.9"/>
<line class="st0" x1="611.2" y1="325.3" x2="648" y2="380.5"/>
<line class="st0" x1="611.2" y1="325.3" x2="515.5" y2="380.5"/>
<line class="st0" x1="515.5" y1="380.5" x2="611.1" y2="435.7"/>
<line class="st0" x1="695.8" y1="68.2" x2="718.3" y2="107.2"/>
<line class="st0" x1="718.3" y1="107.2" x2="740.8" y2="146.3"/>
<line class="st0" x1="740.8" y1="146.3" x2="763.3" y2="185.3"/>
<line class="st0" x1="763.3" y1="185.3" x2="785.9" y2="224.4"/>
<line class="st0" x1="785.9" y1="224.4" x2="739.3" y2="251.3"/>
<line class="st0" x1="739.3" y1="251.3" x2="719.1" y2="215.5"/>
<line class="st0" x1="719.1" y1="215.5" x2="763.3" y2="185.3"/>
<line class="st0" x1="719.1" y1="215.5" x2="691.8" y2="162.7"/>
<line class="st0" x1="691.8" y1="162.7" x2="740.8" y2="146.3"/>
<line class="st0" x1="691.8" y1="162.7" x2="669.3" y2="114"/>
<line class="st0" x1="669.3" y1="114" x2="718.3" y2="107.2"/>
<line class="st0" x1="669.3" y1="114" x2="650.7" y2="68.2"/>
<line class="st0" x1="650.7" y1="68.2" x2="695.8" y2="68.2"/>
<line class="st0" x1="605.6" y1="68.2" x2="650.7" y2="68.2"/>
<line class="st0" x1="605.6" y1="68.2" x2="615.9" y2="118.9"/>
<line class="st0" x1="615.9" y1="118.9" x2="669.3" y2="114"/>
<line class="st0" x1="615.9" y1="118.9" x2="633.5" y2="176"/>
<line class="st0" x1="633.5" y1="176" x2="691.8" y2="162.7"/>
<line class="st0" x1="633.5" y1="176" x2="662.8" y2="243.4"/>
<line class="st0" x1="662.8" y1="243.4" x2="719.1" y2="215.5"/>
<line class="st0" x1="662.8" y1="243.4" x2="684.5" y2="282.9"/>
<line class="st0" x1="684.5" y1="282.9" x2="739.3" y2="251.3"/>
<line class="st0" x1="684.5" y1="282.9" x2="611.1" y2="325.3"/>
<line class="st0" x1="611.1" y1="325.3" x2="581.7" y2="265.8"/>
<line class="st0" x1="581.7" y1="265.8" x2="662.8" y2="243.4"/>
<line class="st0" x1="581.7" y1="265.8" x2="560.5" y2="184.3"/>
<line class="st0" x1="560.5" y1="184.3" x2="633.5" y2="176"/>
<line class="st0" x1="560.5" y1="184.3" x2="556.5" y2="121.6"/>
<line class="st0" x1="556.5" y1="121.6" x2="615.9" y2="118.9"/>
<line class="st0" x1="556.5" y1="121.6" x2="560.5" y2="68.2"/>
<line class="st0" x1="556.5" y1="121.6" x2="515.5" y2="122"/>
<line class="st0" x1="515.5" y1="122" x2="515.5" y2="68.2"/>
<line class="st0" x1="515.5" y1="68.2" x2="560.5" y2="68.2"/>
<line class="st0" x1="560.5" y1="68.2" x2="605.6" y2="68.2"/>
<line class="st0" x1="515.5" y1="122" x2="515.5" y2="185.3"/>
<line class="st0" x1="515.5" y1="185.3" x2="560.5" y2="184.3"/>
<line class="st0" x1="515.5" y1="270" x2="515.5" y2="185.3"/>
<line class="st0" x1="515.5" y1="270" x2="581.7" y2="265.8"/>
<line class="st0" x1="515.5" y1="270" x2="515.5" y2="380.5"/>
<line class="st0" x1="515.5" y1="380.5" x2="611.1" y2="325.3"/>
</svg>
