<?xml version="1.0" encoding="UTF-8"?><svg xmlns="http://www.w3.org/2000/svg" xmlns:xlink="http://www.w3.org/1999/xlink" contentScriptType="text/ecmascript" width="842.0" zoomAndPan="magnify" contentStyleType="text/css" height="846.0" preserveAspectRatio="xMidYMid meet" version="1.0">
<line y2="38.0" style="stroke:rgb(0,0,0);stroke-width:1" x1="211.0" x2="161.0" y1="28.0"/>
<line y2="63.0" style="stroke:rgb(0,0,0);stroke-width:1" x1="161.0" x2="111.0" y1="38.0"/>
<line y2="109.0" style="stroke:rgb(0,0,0);stroke-width:1" x1="111.0" x2="65.0" y1="63.0"/>
<line y2="159.0" style="stroke:rgb(0,0,0);stroke-width:1" x1="65.0" x2="39.0" y1="109.0"/>
<line y2="209.0" style="stroke:rgb(0,0,0);stroke-width:1" x1="39.0" x2="28.0" y1="159.0"/>
<line y2="259.0" style="stroke:rgb(0,0,0);stroke-width:1" x1="28.0" x2="30.0" y1="209.0"/>
<line y2="309.0" style="stroke:rgb(0,0,0);stroke-width:1" x1="30.0" x2="46.0" y1="259.0"/>
<line y2="359.0" style="stroke:rgb(0,0,0);stroke-width:1" x1="46.0" x2="79.0" y1="309.0"/>
<line y2="398.0" style="stroke:rgb(0,0,0);stroke-width:1" x1="79.0" x2="129.0" y1="359.0"/>
<line y2="417.0" style="stroke:rgb(0,0,0);stroke-width:1" x1="129.0" x2="179.0" y1="398.0"/>
<line y2="423.0" style="stroke:rgb(0,0,0);stroke-width:1" x1="179.0" x2="229.0" y1="417.0"/>
<line y2="415.0" style="stroke:rgb(0,0,0);stroke-width:1" x1="229.0" x2="279.0" y1="423.0"/>
<line y2="393.0" style="stroke:rgb(0,0,0);stroke-width:1" x1="279.0" x2="329.0" y1="415.0"/>
<line y2="350.0" style="stroke:rgb(0,0,0);stroke-width:1" x1="329.0" x2="378.0" y1="393.0"/>
<line y2="300.0" style="stroke:rgb(0,0,0);stroke-width:1" x1="378.0" x2="408.0" y1="350.0"/>
<line y2="250.0" style="stroke:rgb(0,0,0);stroke-width:1" x1="408.0" x2="421.0" y1="300.0"/>
<line y2="200.0" style="stroke:rgb(0,0,0);stroke-width:1" x1="421.0" x2="421.0" y1="250.0"/>
<line y2="150.0" style="stroke:rgb(0,0,0);stroke-width:1" x1="421.0" x2="408.0" y1="200.0"/>
<line y2="100.0" style="stroke:rgb(0,0,0);stroke-width:1" x1="408.0" x2="378.0" y1="150.0"/>
<line y2="57.0" style="stroke:rgb(0,0,0);stroke-width:1" x1="378.0" x2="329.0" y1="100.0"/>
<line y2="35.0" style="stroke:rgb(0,0,0);stroke-width:1" x1="329.0" x2="279.0" y1="57.0"/>
<line y2="35.0" style="stroke:rgb(0,0,0);stroke-width:1" x1="211.0" x2="279.0" y1="28.0"/>
<line y2="85.0" style="stroke:rgb(0,0,0);stroke-width:1" x1="211.0" x2="174.0" y1="79.0"/>
<line y2="107.0" style="stroke:rgb(0,0,0);stroke-width:1" x1="174.0" x2="137.0" y1="85.0"/>
<line y2="142.0" style="stroke:rgb(0,0,0);stroke-width:1" x1="137.0" x2="103.0" y1="107.0"/>
<line y2="179.0" style="stroke:rgb(0,0,0);stroke-width:1" x1="103.0" x2="84.0" y1="142.0"/>
<line y2="216.0" style="stroke:rgb(0,0,0);stroke-width:1" x1="84.0" x2="79.0" y1="179.0"/>
<line y2="253.0" style="stroke:rgb(0,0,0);stroke-width:1" x1="79.0" x2="80.0" y1="216.0"/>
<line y2="290.0" style="stroke:rgb(0,0,0);stroke-width:1" x1="80.0" x2="90.0" y1="253.0"/>
<line y2="327.0" style="stroke:rgb(0,0,0);stroke-width:1" x1="90.0" x2="118.0" y1="290.0"/>
<line y2="357.0" style="stroke:rgb(0,0,0);stroke-width:1" x1="118.0" x2="155.0" y1="327.0"/>
<line y2="370.0" style="stroke:rgb(0,0,0);stroke-width:1" x1="155.0" x2="192.0" y1="357.0"/>
<line y2="373.0" style="stroke:rgb(0,0,0);stroke-width:1" x1="192.0" x2="229.0" y1="370.0"/>
<line y2="368.0" style="stroke:rgb(0,0,0);stroke-width:1" x1="229.0" x2="266.0" y1="373.0"/>
<line y2="351.0" style="stroke:rgb(0,0,0);stroke-width:1" x1="266.0" x2="303.0" y1="368.0"/>
<line y2="318.0" style="stroke:rgb(0,0,0);stroke-width:1" x1="303.0" x2="339.0" y1="351.0"/>
<line y2="281.0" style="stroke:rgb(0,0,0);stroke-width:1" x1="339.0" x2="364.0" y1="318.0"/>
<line y2="244.0" style="stroke:rgb(0,0,0);stroke-width:1" x1="364.0" x2="372.0" y1="281.0"/>
<line y2="207.0" style="stroke:rgb(0,0,0);stroke-width:1" x1="372.0" x2="371.0" y1="244.0"/>
<line y2="170.0" style="stroke:rgb(0,0,0);stroke-width:1" x1="371.0" x2="364.0" y1="207.0"/>
<line y2="133.0" style="stroke:rgb(0,0,0);stroke-width:1" x1="364.0" x2="339.0" y1="170.0"/>
<line y2="100.0" style="stroke:rgb(0,0,0);stroke-width:1" x1="339.0" x2="303.0" y1="133.0"/>
<line y2="83.0" style="stroke:rgb(0,0,0);stroke-width:1" x1="303.0" x2="266.0" y1="100.0"/>
<line y2="83.0" style="stroke:rgb(0,0,0);stroke-width:1" x1="211.0" x2="266.0" y1="79.0"/>
<line y2="151.0" style="stroke:rgb(0,0,0);stroke-width:1" x1="211.0" x2="161.0" y1="129.0"/>
<line y2="201.0" style="stroke:rgb(0,0,0);stroke-width:1" x1="161.0" x2="130.0" y1="151.0"/>
<line y2="251.0" style="stroke:rgb(0,0,0);stroke-width:1" x1="130.0" x2="130.0" y1="201.0"/>
<line y2="301.0" style="stroke:rgb(0,0,0);stroke-width:1" x1="130.0" x2="163.0" y1="251.0"/>
<line y2="322.0" style="stroke:rgb(0,0,0);stroke-width:1" x1="163.0" x2="213.0" y1="301.0"/>
<line y2="318.0" style="stroke:rgb(0,0,0);stroke-width:1" x1="213.0" x2="263.0" y1="322.0"/>
<line y2="274.0" style="stroke:rgb(0,0,0);stroke-width:1" x1="263.0" x2="311.0" y1="318.0"/>
<line y2="224.0" style="stroke:rgb(0,0,0);stroke-width:1" x1="311.0" x2="322.0" y1="274.0"/>
<line y2="174.0" style="stroke:rgb(0,0,0);stroke-width:1" x1="322.0" x2="309.0" y1="224.0"/>
<line y2="132.0" style="stroke:rgb(0,0,0);stroke-width:1" x1="309.0" x2="261.0" y1="174.0"/>
<line y2="132.0" style="stroke:rgb(0,0,0);stroke-width:1" x1="211.0" x2="261.0" y1="129.0"/>
<line y2="225.0" style="stroke:rgb(0,0,0);stroke-width:1" x1="211.0" x2="179.0" y1="179.0"/>
<line y2="272.0" style="stroke:rgb(0,0,0);stroke-width:1" x1="179.0" x2="211.0" y1="225.0"/>
<line y2="252.0" style="stroke:rgb(0,0,0);stroke-width:1" x1="211.0" x2="264.0" y1="272.0"/>
<line y2="199.0" style="stroke:rgb(0,0,0);stroke-width:1" x1="264.0" x2="265.0" y1="252.0"/>
<line y2="199.0" style="stroke:rgb(0,0,0);stroke-width:1" x1="211.0" x2="265.0" y1="179.0"/>
<line y2="79.0" style="stroke:rgb(0,0,0);stroke-width:1" x1="211.0" x2="211.0" y1="28.0"/>
<line y2="85.0" style="stroke:rgb(0,0,0);stroke-width:1" x1="161.0" x2="174.0" y1="38.0"/>
<line y2="107.0" style="stroke:rgb(0,0,0);stroke-width:1" x1="111.0" x2="137.0" y1="63.0"/>
<line y2="142.0" style="stroke:rgb(0,0,0);stroke-width:1" x1="65.0" x2="103.0" y1="109.0"/>
<line y2="179.0" style="stroke:rgb(0,0,0);stroke-width:1" x1="39.0" x2="84.0" y1="159.0"/>
<line y2="216.0" style="stroke:rgb(0,0,0);stroke-width:1" x1="28.0" x2="79.0" y1="209.0"/>
<line y2="253.0" style="stroke:rgb(0,0,0);stroke-width:1" x1="30.0" x2="80.0" y1="259.0"/>
<line y2="290.0" style="stroke:rgb(0,0,0);stroke-width:1" x1="46.0" x2="90.0" y1="309.0"/>
<line y2="327.0" style="stroke:rgb(0,0,0);stroke-width:1" x1="79.0" x2="118.0" y1="359.0"/>
<line y2="357.0" style="stroke:rgb(0,0,0);stroke-width:1" x1="129.0" x2="155.0" y1="398.0"/>
<line y2="370.0" style="stroke:rgb(0,0,0);stroke-width:1" x1="179.0" x2="192.0" y1="417.0"/>
<line y2="373.0" style="stroke:rgb(0,0,0);stroke-width:1" x1="229.0" x2="229.0" y1="423.0"/>
<line y2="368.0" style="stroke:rgb(0,0,0);stroke-width:1" x1="279.0" x2="266.0" y1="415.0"/>
<line y2="351.0" style="stroke:rgb(0,0,0);stroke-width:1" x1="329.0" x2="303.0" y1="393.0"/>
<line y2="318.0" style="stroke:rgb(0,0,0);stroke-width:1" x1="378.0" x2="339.0" y1="350.0"/>
<line y2="281.0" style="stroke:rgb(0,0,0);stroke-width:1" x1="408.0" x2="364.0" y1="300.0"/>
<line y2="244.0" style="stroke:rgb(0,0,0);stroke-width:1" x1="421.0" x2="372.0" y1="250.0"/>
<line y2="207.0" style="stroke:rgb(0,0,0);stroke-width:1" x1="421.0" x2="371.0" y1="200.0"/>
<line y2="170.0" style="stroke:rgb(0,0,0);stroke-width:1" x1="408.0" x2="364.0" y1="150.0"/>
<line y2="133.0" style="stroke:rgb(0,0,0);stroke-width:1" x1="378.0" x2="339.0" y1="100.0"/>
<line y2="100.0" style="stroke:rgb(0,0,0);stroke-width:1" x1="329.0" x2="303.0" y1="57.0"/>
<line y2="83.0" style="stroke:rgb(0,0,0);stroke-width:1" x1="279.0" x2="266.0" y1="35.0"/>
<line y2="129.0" style="stroke:rgb(0,0,0);stroke-width:1" x1="211.0" x2="211.0" y1="79.0"/>
<line y2="129.0" style="stroke:rgb(0,0,0);stroke-width:1" x1="174.0" x2="211.0" y1="85.0"/>
<line y2="151.0" style="stroke:rgb(0,0,0);stroke-width:1" x1="137.0" x2="161.0" y1="107.0"/>
<line y2="151.0" style="stroke:rgb(0,0,0);stroke-width:1" x1="103.0" x2="161.0" y1="142.0"/>
<line y2="201.0" style="stroke:rgb(0,0,0);stroke-width:1" x1="84.0" x2="130.0" y1="179.0"/>
<line y2="201.0" style="stroke:rgb(0,0,0);stroke-width:1" x1="79.0" x2="130.0" y1="216.0"/>
<line y2="251.0" style="stroke:rgb(0,0,0);stroke-width:1" x1="80.0" x2="130.0" y1="253.0"/>
<line y2="251.0" style="stroke:rgb(0,0,0);stroke-width:1" x1="90.0" x2="130.0" y1="290.0"/>
<line y2="301.0" style="stroke:rgb(0,0,0);stroke-width:1" x1="118.0" x2="163.0" y1="327.0"/>
<line y2="301.0" style="stroke:rgb(0,0,0);stroke-width:1" x1="155.0" x2="163.0" y1="357.0"/>
<line y2="322.0" style="stroke:rgb(0,0,0);stroke-width:1" x1="192.0" x2="213.0" y1="370.0"/>
<line y2="322.0" style="stroke:rgb(0,0,0);stroke-width:1" x1="229.0" x2="213.0" y1="373.0"/>
<line y2="318.0" style="stroke:rgb(0,0,0);stroke-width:1" x1="266.0" x2="263.0" y1="368.0"/>
<line y2="318.0" style="stroke:rgb(0,0,0);stroke-width:1" x1="303.0" x2="263.0" y1="351.0"/>
<line y2="274.0" style="stroke:rgb(0,0,0);stroke-width:1" x1="339.0" x2="311.0" y1="318.0"/>
<line y2="274.0" style="stroke:rgb(0,0,0);stroke-width:1" x1="364.0" x2="311.0" y1="281.0"/>
<line y2="224.0" style="stroke:rgb(0,0,0);stroke-width:1" x1="372.0" x2="322.0" y1="244.0"/>
<line y2="224.0" style="stroke:rgb(0,0,0);stroke-width:1" x1="371.0" x2="322.0" y1="207.0"/>
<line y2="174.0" style="stroke:rgb(0,0,0);stroke-width:1" x1="364.0" x2="309.0" y1="170.0"/>
<line y2="174.0" style="stroke:rgb(0,0,0);stroke-width:1" x1="339.0" x2="309.0" y1="133.0"/>
<line y2="132.0" style="stroke:rgb(0,0,0);stroke-width:1" x1="303.0" x2="261.0" y1="100.0"/>
<line y2="132.0" style="stroke:rgb(0,0,0);stroke-width:1" x1="266.0" x2="261.0" y1="83.0"/>
<line y2="179.0" style="stroke:rgb(0,0,0);stroke-width:1" x1="211.0" x2="211.0" y1="129.0"/>
<line y2="179.0" style="stroke:rgb(0,0,0);stroke-width:1" x1="161.0" x2="211.0" y1="151.0"/>
<line y2="225.0" style="stroke:rgb(0,0,0);stroke-width:1" x1="130.0" x2="179.0" y1="201.0"/>
<line y2="225.0" style="stroke:rgb(0,0,0);stroke-width:1" x1="130.0" x2="179.0" y1="251.0"/>
<line y2="272.0" style="stroke:rgb(0,0,0);stroke-width:1" x1="163.0" x2="211.0" y1="301.0"/>
<line y2="272.0" style="stroke:rgb(0,0,0);stroke-width:1" x1="213.0" x2="211.0" y1="322.0"/>
<line y2="252.0" style="stroke:rgb(0,0,0);stroke-width:1" x1="263.0" x2="264.0" y1="318.0"/>
<line y2="252.0" style="stroke:rgb(0,0,0);stroke-width:1" x1="311.0" x2="264.0" y1="274.0"/>
<line y2="199.0" style="stroke:rgb(0,0,0);stroke-width:1" x1="322.0" x2="265.0" y1="224.0"/>
<line y2="199.0" style="stroke:rgb(0,0,0);stroke-width:1" x1="309.0" x2="265.0" y1="174.0"/>
<line y2="199.0" style="stroke:rgb(0,0,0);stroke-width:1" x1="261.0" x2="265.0" y1="132.0"/>
</svg>
