<?xml version="1.0" encoding="UTF-8"?><svg xmlns="http://www.w3.org/2000/svg" xmlns:xlink="http://www.w3.org/1999/xlink" contentScriptType="text/ecmascript" width="1134.0" zoomAndPan="magnify" contentStyleType="text/css" height="1040.0" preserveAspectRatio="xMidYMid meet" version="1.0">
<line y2="48.0" style="stroke:rgb(0,0,0);stroke-width:1" x1="308.0" x2="248.0" y1="18.0"/>
<line y2="50.0" style="stroke:rgb(0,0,0);stroke-width:1" x1="248.0" x2="188.0" y1="48.0"/>
<line y2="48.0" style="stroke:rgb(0,0,0);stroke-width:1" x1="188.0" x2="128.0" y1="50.0"/>
<line y2="66.0" style="stroke:rgb(0,0,0);stroke-width:1" x1="128.0" x2="74.0" y1="48.0"/>
<line y2="117.0" style="stroke:rgb(0,0,0);stroke-width:1" x1="74.0" x2="105.0" y1="66.0"/>
<line y2="177.0" style="stroke:rgb(0,0,0);stroke-width:1" x1="105.0" x2="89.0" y1="117.0"/>
<line y2="218.0" style="stroke:rgb(0,0,0);stroke-width:1" x1="89.0" x2="31.0" y1="177.0"/>
<line y2="278.0" style="stroke:rgb(0,0,0);stroke-width:1" x1="31.0" x2="28.0" y1="218.0"/>
<line y2="337.0" style="stroke:rgb(0,0,0);stroke-width:1" x1="28.0" x2="69.0" y1="278.0"/>
<line y2="397.0" style="stroke:rgb(0,0,0);stroke-width:1" x1="69.0" x2="75.0" y1="337.0"/>
<line y2="457.0" style="stroke:rgb(0,0,0);stroke-width:1" x1="75.0" x2="96.0" y1="397.0"/>
<line y2="462.0" style="stroke:rgb(0,0,0);stroke-width:1" x1="96.0" x2="156.0" y1="457.0"/>
<line y2="481.0" style="stroke:rgb(0,0,0);stroke-width:1" x1="156.0" x2="212.0" y1="462.0"/>
<line y2="520.0" style="stroke:rgb(0,0,0);stroke-width:1" x1="212.0" x2="270.0" y1="481.0"/>
<line y2="490.0" style="stroke:rgb(0,0,0);stroke-width:1" x1="270.0" x2="329.0" y1="520.0"/>
<line y2="471.0" style="stroke:rgb(0,0,0);stroke-width:1" x1="329.0" x2="387.0" y1="490.0"/>
<line y2="472.0" style="stroke:rgb(0,0,0);stroke-width:1" x1="387.0" x2="447.0" y1="471.0"/>
<line y2="430.0" style="stroke:rgb(0,0,0);stroke-width:1" x1="447.0" x2="494.0" y1="472.0"/>
<line y2="370.0" style="stroke:rgb(0,0,0);stroke-width:1" x1="494.0" x2="462.0" y1="430.0"/>
<line y2="344.0" style="stroke:rgb(0,0,0);stroke-width:1" x1="462.0" x2="516.0" y1="370.0"/>
<line y2="293.0" style="stroke:rgb(0,0,0);stroke-width:1" x1="516.0" x2="567.0" y1="344.0"/>
<line y2="233.0" style="stroke:rgb(0,0,0);stroke-width:1" x1="567.0" x2="555.0" y1="293.0"/>
<line y2="183.0" style="stroke:rgb(0,0,0);stroke-width:1" x1="555.0" x2="503.0" y1="233.0"/>
<line y2="123.0" style="stroke:rgb(0,0,0);stroke-width:1" x1="503.0" x2="513.0" y1="183.0"/>
<line y2="77.0" style="stroke:rgb(0,0,0);stroke-width:1" x1="513.0" x2="477.0" y1="123.0"/>
<line y2="83.0" style="stroke:rgb(0,0,0);stroke-width:1" x1="477.0" x2="417.0" y1="77.0"/>
<line y2="57.0" style="stroke:rgb(0,0,0);stroke-width:1" x1="417.0" x2="367.0" y1="83.0"/>
<line y2="57.0" style="stroke:rgb(0,0,0);stroke-width:1" x1="308.0" x2="367.0" y1="18.0"/>
<line y2="109.0" style="stroke:rgb(0,0,0);stroke-width:1" x1="308.0" x2="264.0" y1="79.0"/>
<line y2="125.0" style="stroke:rgb(0,0,0);stroke-width:1" x1="264.0" x2="220.0" y1="109.0"/>
<line y2="109.0" style="stroke:rgb(0,0,0);stroke-width:1" x1="220.0" x2="176.0" y1="125.0"/>
<line y2="141.0" style="stroke:rgb(0,0,0);stroke-width:1" x1="176.0" x2="163.0" y1="109.0"/>
<line y2="185.0" style="stroke:rgb(0,0,0);stroke-width:1" x1="163.0" x2="151.0" y1="141.0"/>
<line y2="225.0" style="stroke:rgb(0,0,0);stroke-width:1" x1="151.0" x2="123.0" y1="185.0"/>
<line y2="254.0" style="stroke:rgb(0,0,0);stroke-width:1" x1="123.0" x2="84.0" y1="225.0"/>
<line y2="297.0" style="stroke:rgb(0,0,0);stroke-width:1" x1="84.0" x2="114.0" y1="254.0"/>
<line y2="341.0" style="stroke:rgb(0,0,0);stroke-width:1" x1="114.0" x2="133.0" y1="297.0"/>
<line y2="385.0" style="stroke:rgb(0,0,0);stroke-width:1" x1="133.0" x2="136.0" y1="341.0"/>
<line y2="398.0" style="stroke:rgb(0,0,0);stroke-width:1" x1="136.0" x2="159.0" y1="385.0"/>
<line y2="400.0" style="stroke:rgb(0,0,0);stroke-width:1" x1="159.0" x2="203.0" y1="398.0"/>
<line y2="427.0" style="stroke:rgb(0,0,0);stroke-width:1" x1="203.0" x2="246.0" y1="400.0"/>
<line y2="449.0" style="stroke:rgb(0,0,0);stroke-width:1" x1="246.0" x2="285.0" y1="427.0"/>
<line y2="417.0" style="stroke:rgb(0,0,0);stroke-width:1" x1="285.0" x2="327.0" y1="449.0"/>
<line y2="406.0" style="stroke:rgb(0,0,0);stroke-width:1" x1="327.0" x2="371.0" y1="417.0"/>
<line y2="416.0" style="stroke:rgb(0,0,0);stroke-width:1" x1="371.0" x2="415.0" y1="406.0"/>
<line y2="375.0" style="stroke:rgb(0,0,0);stroke-width:1" x1="415.0" x2="403.0" y1="416.0"/>
<line y2="331.0" style="stroke:rgb(0,0,0);stroke-width:1" x1="403.0" x2="416.0" y1="375.0"/>
<line y2="302.0" style="stroke:rgb(0,0,0);stroke-width:1" x1="416.0" x2="454.0" y1="331.0"/>
<line y2="286.0" style="stroke:rgb(0,0,0);stroke-width:1" x1="454.0" x2="498.0" y1="302.0"/>
<line y2="249.0" style="stroke:rgb(0,0,0);stroke-width:1" x1="498.0" x2="478.0" y1="286.0"/>
<line y2="208.0" style="stroke:rgb(0,0,0);stroke-width:1" x1="478.0" x2="451.0" y1="249.0"/>
<line y2="164.0" style="stroke:rgb(0,0,0);stroke-width:1" x1="451.0" x2="445.0" y1="208.0"/>
<line y2="140.0" style="stroke:rgb(0,0,0);stroke-width:1" x1="445.0" x2="431.0" y1="164.0"/>
<line y2="145.0" style="stroke:rgb(0,0,0);stroke-width:1" x1="431.0" x2="387.0" y1="140.0"/>
<line y2="127.0" style="stroke:rgb(0,0,0);stroke-width:1" x1="387.0" x2="343.0" y1="145.0"/>
<line y2="127.0" style="stroke:rgb(0,0,0);stroke-width:1" x1="308.0" x2="343.0" y1="79.0"/>
<line y2="185.0" style="stroke:rgb(0,0,0);stroke-width:1" x1="289.0" x2="224.0" y1="158.0"/>
<line y2="236.0" style="stroke:rgb(0,0,0);stroke-width:1" x1="224.0" x2="190.0" y1="185.0"/>
<line y2="297.0" style="stroke:rgb(0,0,0);stroke-width:1" x1="190.0" x2="175.0" y1="236.0"/>
<line y2="346.0" style="stroke:rgb(0,0,0);stroke-width:1" x1="175.0" x2="218.0" y1="297.0"/>
<line y2="375.0" style="stroke:rgb(0,0,0);stroke-width:1" x1="218.0" x2="283.0" y1="346.0"/>
<line y2="348.0" style="stroke:rgb(0,0,0);stroke-width:1" x1="283.0" x2="348.0" y1="375.0"/>
<line y2="284.0" style="stroke:rgb(0,0,0);stroke-width:1" x1="348.0" x2="376.0" y1="348.0"/>
<line y2="234.0" style="stroke:rgb(0,0,0);stroke-width:1" x1="376.0" x2="402.0" y1="284.0"/>
<line y2="191.0" style="stroke:rgb(0,0,0);stroke-width:1" x1="402.0" x2="353.0" y1="234.0"/>
<line y2="191.0" style="stroke:rgb(0,0,0);stroke-width:1" x1="289.0" x2="353.0" y1="158.0"/>
<line y2="275.0" style="stroke:rgb(0,0,0);stroke-width:1" x1="279.0" x2="233.0" y1="222.0"/>
<line y2="314.0" style="stroke:rgb(0,0,0);stroke-width:1" x1="233.0" x2="285.0" y1="275.0"/>
<line y2="258.0" style="stroke:rgb(0,0,0);stroke-width:1" x1="285.0" x2="326.0" y1="314.0"/>
<line y2="258.0" style="stroke:rgb(0,0,0);stroke-width:1" x1="279.0" x2="326.0" y1="222.0"/>
<line y2="79.0" style="stroke:rgb(0,0,0);stroke-width:1" x1="308.0" x2="308.0" y1="18.0"/>
<line y2="109.0" style="stroke:rgb(0,0,0);stroke-width:1" x1="248.0" x2="264.0" y1="48.0"/>
<line y2="125.0" style="stroke:rgb(0,0,0);stroke-width:1" x1="188.0" x2="220.0" y1="50.0"/>
<line y2="109.0" style="stroke:rgb(0,0,0);stroke-width:1" x1="128.0" x2="176.0" y1="48.0"/>
<line y2="141.0" style="stroke:rgb(0,0,0);stroke-width:1" x1="74.0" x2="163.0" y1="66.0"/>
<line y2="185.0" style="stroke:rgb(0,0,0);stroke-width:1" x1="105.0" x2="151.0" y1="117.0"/>
<line y2="225.0" style="stroke:rgb(0,0,0);stroke-width:1" x1="89.0" x2="123.0" y1="177.0"/>
<line y2="254.0" style="stroke:rgb(0,0,0);stroke-width:1" x1="31.0" x2="84.0" y1="218.0"/>
<line y2="297.0" style="stroke:rgb(0,0,0);stroke-width:1" x1="28.0" x2="114.0" y1="278.0"/>
<line y2="341.0" style="stroke:rgb(0,0,0);stroke-width:1" x1="69.0" x2="133.0" y1="337.0"/>
<line y2="385.0" style="stroke:rgb(0,0,0);stroke-width:1" x1="75.0" x2="136.0" y1="397.0"/>
<line y2="398.0" style="stroke:rgb(0,0,0);stroke-width:1" x1="96.0" x2="159.0" y1="457.0"/>
<line y2="400.0" style="stroke:rgb(0,0,0);stroke-width:1" x1="156.0" x2="203.0" y1="462.0"/>
<line y2="427.0" style="stroke:rgb(0,0,0);stroke-width:1" x1="212.0" x2="246.0" y1="481.0"/>
<line y2="449.0" style="stroke:rgb(0,0,0);stroke-width:1" x1="270.0" x2="285.0" y1="520.0"/>
<line y2="417.0" style="stroke:rgb(0,0,0);stroke-width:1" x1="329.0" x2="327.0" y1="490.0"/>
<line y2="406.0" style="stroke:rgb(0,0,0);stroke-width:1" x1="387.0" x2="371.0" y1="471.0"/>
<line y2="416.0" style="stroke:rgb(0,0,0);stroke-width:1" x1="447.0" x2="415.0" y1="472.0"/>
<line y2="375.0" style="stroke:rgb(0,0,0);stroke-width:1" x1="494.0" x2="403.0" y1="430.0"/>
<line y2="331.0" style="stroke:rgb(0,0,0);stroke-width:1" x1="462.0" x2="416.0" y1="370.0"/>
<line y2="302.0" style="stroke:rgb(0,0,0);stroke-width:1" x1="516.0" x2="454.0" y1="344.0"/>
<line y2="286.0" style="stroke:rgb(0,0,0);stroke-width:1" x1="567.0" x2="498.0" y1="293.0"/>
<line y2="249.0" style="stroke:rgb(0,0,0);stroke-width:1" x1="555.0" x2="478.0" y1="233.0"/>
<line y2="208.0" style="stroke:rgb(0,0,0);stroke-width:1" x1="503.0" x2="451.0" y1="183.0"/>
<line y2="164.0" style="stroke:rgb(0,0,0);stroke-width:1" x1="513.0" x2="445.0" y1="123.0"/>
<line y2="140.0" style="stroke:rgb(0,0,0);stroke-width:1" x1="477.0" x2="431.0" y1="77.0"/>
<line y2="145.0" style="stroke:rgb(0,0,0);stroke-width:1" x1="417.0" x2="387.0" y1="83.0"/>
<line y2="127.0" style="stroke:rgb(0,0,0);stroke-width:1" x1="367.0" x2="343.0" y1="57.0"/>
<line y2="158.0" style="stroke:rgb(0,0,0);stroke-width:1" x1="308.0" x2="289.0" y1="79.0"/>
<line y2="158.0" style="stroke:rgb(0,0,0);stroke-width:1" x1="264.0" x2="289.0" y1="109.0"/>
<line y2="185.0" style="stroke:rgb(0,0,0);stroke-width:1" x1="220.0" x2="224.0" y1="125.0"/>
<line y2="185.0" style="stroke:rgb(0,0,0);stroke-width:1" x1="176.0" x2="224.0" y1="109.0"/>
<line y2="185.0" style="stroke:rgb(0,0,0);stroke-width:1" x1="163.0" x2="224.0" y1="141.0"/>
<line y2="236.0" style="stroke:rgb(0,0,0);stroke-width:1" x1="151.0" x2="190.0" y1="185.0"/>
<line y2="236.0" style="stroke:rgb(0,0,0);stroke-width:1" x1="123.0" x2="190.0" y1="225.0"/>
<line y2="297.0" style="stroke:rgb(0,0,0);stroke-width:1" x1="84.0" x2="175.0" y1="254.0"/>
<line y2="297.0" style="stroke:rgb(0,0,0);stroke-width:1" x1="114.0" x2="175.0" y1="297.0"/>
<line y2="297.0" style="stroke:rgb(0,0,0);stroke-width:1" x1="133.0" x2="175.0" y1="341.0"/>
<line y2="346.0" style="stroke:rgb(0,0,0);stroke-width:1" x1="136.0" x2="218.0" y1="385.0"/>
<line y2="346.0" style="stroke:rgb(0,0,0);stroke-width:1" x1="159.0" x2="218.0" y1="398.0"/>
<line y2="346.0" style="stroke:rgb(0,0,0);stroke-width:1" x1="203.0" x2="218.0" y1="400.0"/>
<line y2="375.0" style="stroke:rgb(0,0,0);stroke-width:1" x1="246.0" x2="283.0" y1="427.0"/>
<line y2="375.0" style="stroke:rgb(0,0,0);stroke-width:1" x1="285.0" x2="283.0" y1="449.0"/>
<line y2="375.0" style="stroke:rgb(0,0,0);stroke-width:1" x1="327.0" x2="283.0" y1="417.0"/>
<line y2="348.0" style="stroke:rgb(0,0,0);stroke-width:1" x1="371.0" x2="348.0" y1="406.0"/>
<line y2="348.0" style="stroke:rgb(0,0,0);stroke-width:1" x1="415.0" x2="348.0" y1="416.0"/>
<line y2="348.0" style="stroke:rgb(0,0,0);stroke-width:1" x1="403.0" x2="348.0" y1="375.0"/>
<line y2="284.0" style="stroke:rgb(0,0,0);stroke-width:1" x1="416.0" x2="376.0" y1="331.0"/>
<line y2="284.0" style="stroke:rgb(0,0,0);stroke-width:1" x1="454.0" x2="376.0" y1="302.0"/>
<line y2="234.0" style="stroke:rgb(0,0,0);stroke-width:1" x1="498.0" x2="402.0" y1="286.0"/>
<line y2="234.0" style="stroke:rgb(0,0,0);stroke-width:1" x1="478.0" x2="402.0" y1="249.0"/>
<line y2="234.0" style="stroke:rgb(0,0,0);stroke-width:1" x1="451.0" x2="402.0" y1="208.0"/>
<line y2="234.0" style="stroke:rgb(0,0,0);stroke-width:1" x1="445.0" x2="402.0" y1="164.0"/>
<line y2="191.0" style="stroke:rgb(0,0,0);stroke-width:1" x1="431.0" x2="353.0" y1="140.0"/>
<line y2="191.0" style="stroke:rgb(0,0,0);stroke-width:1" x1="387.0" x2="353.0" y1="145.0"/>
<line y2="158.0" style="stroke:rgb(0,0,0);stroke-width:1" x1="343.0" x2="289.0" y1="127.0"/>
<line y2="222.0" style="stroke:rgb(0,0,0);stroke-width:1" x1="289.0" x2="279.0" y1="158.0"/>
<line y2="222.0" style="stroke:rgb(0,0,0);stroke-width:1" x1="224.0" x2="279.0" y1="185.0"/>
<line y2="275.0" style="stroke:rgb(0,0,0);stroke-width:1" x1="190.0" x2="233.0" y1="236.0"/>
<line y2="275.0" style="stroke:rgb(0,0,0);stroke-width:1" x1="175.0" x2="233.0" y1="297.0"/>
<line y2="275.0" style="stroke:rgb(0,0,0);stroke-width:1" x1="218.0" x2="233.0" y1="346.0"/>
<line y2="314.0" style="stroke:rgb(0,0,0);stroke-width:1" x1="283.0" x2="285.0" y1="375.0"/>
<line y2="314.0" style="stroke:rgb(0,0,0);stroke-width:1" x1="348.0" x2="285.0" y1="348.0"/>
<line y2="258.0" style="stroke:rgb(0,0,0);stroke-width:1" x1="376.0" x2="326.0" y1="284.0"/>
<line y2="258.0" style="stroke:rgb(0,0,0);stroke-width:1" x1="402.0" x2="326.0" y1="234.0"/>
<line y2="258.0" style="stroke:rgb(0,0,0);stroke-width:1" x1="353.0" x2="326.0" y1="191.0"/>
</svg>
